<svg width="174" height="198" viewBox="0 0 174 198" fill="none" xmlns="http://www.w3.org/2000/svg">
<g clip-path="url(#clip0_204_514)">
<rect width="174" height="198" fill="#061B2F"/>
<mask id="mask0_204_514" style="mask-type:luminance" maskUnits="userSpaceOnUse" x="0" y="0" width="174" height="198">
<path d="M174 0H0V198H174V0Z" fill="white"/>
</mask>
<g mask="url(#mask0_204_514)">
<mask id="mask1_204_514" style="mask-type:luminance" maskUnits="userSpaceOnUse" x="-24" y="-24" width="222" height="222">
<path d="M165.116 165.199C208.215 122.101 208.215 52.2253 165.116 9.12694C122.018 -33.9713 52.1421 -33.9713 9.04393 9.12692C-34.0544 52.2252 -34.0544 122.101 9.04393 165.199C52.1421 208.298 122.018 208.298 165.116 165.199Z" fill="white"/>
</mask>
<g mask="url(#mask1_204_514)">
<path opacity="0.75" d="M177.85 156.78C167.58 151.82 147.57 143.75 142.05 141.77C118.59 133.37 133.3 128.55 110.89 121.08V115.62C110.89 115.62 124.28 108.91 128.3 84.8798C128.3 84.8798 135.85 88.3298 135.43 77.4098C135.06 67.7098 138.76 55.0398 128.2 60.5098C129.49 55.3898 133.77 48.9998 130.32 28.0398C130.32 28.0398 124.65 -0.450195 87.0902 -0.450195C49.5302 -0.450195 43.8602 28.0398 43.8602 28.0398C40.4102 48.9998 44.6902 55.3998 45.9802 60.5098C35.4202 55.0398 39.1202 67.7098 38.7502 77.4098C38.3302 88.3298 45.8802 84.8798 45.8802 84.8798C49.9002 108.91 63.2902 115.62 63.2902 115.62V121.08C40.8802 128.55 55.5902 133.36 32.1302 141.77C26.6202 143.74 6.60015 151.82 -3.66985 156.78C-11.1798 160.41 -13.7398 187.33 -14.5698 201.54H188.76C187.93 187.33 185.37 160.41 177.86 156.78H177.85Z" fill="#BCBEC0"/>
</g>
</g>
</g>
<defs>
<clipPath id="clip0_204_514">
<rect width="174" height="198" fill="white"/>
</clipPath>
</defs>
</svg>
