<svg width="872" height="193" viewBox="0 0 872 193" fill="none" xmlns="http://www.w3.org/2000/svg">
<path d="M665.882 42.313C667.701 40.7923 669.322 39.2386 671.175 37.9493C674.119 35.8996 677.361 34.5442 680.901 33.883C685.599 32.9904 690.33 32.8251 695.061 33.4863C702.108 34.4781 708.129 37.4203 712.793 42.9081C713.091 43.2387 713.356 43.5693 713.687 43.9329C715.242 42.6767 716.73 41.4535 718.252 40.2964C720.833 38.3129 723.645 36.8253 726.688 35.6682C733.239 33.1888 739.988 32.8582 746.902 33.4202C751.633 33.8169 756.033 35.1062 760.102 37.4203C767.844 41.8172 772.31 48.5612 773.766 57.2887C774.097 59.3714 774.262 61.4872 774.262 63.5699C774.295 80.43 774.295 97.3231 774.295 114.183C774.295 116.497 774.097 116.696 771.814 116.696C766.653 116.696 761.492 116.696 756.364 116.696C753.982 116.696 753.784 116.53 753.784 114.15C753.784 98.8107 753.784 83.5044 753.784 68.1651C753.784 64.8592 753.32 61.6194 751.865 58.6111C749.648 54.0159 746.075 51.3381 741.047 50.4125C736.713 49.6191 732.544 49.9166 728.607 51.9001C723.843 54.2804 721.395 58.4788 720.469 63.603C720.171 65.322 720.072 67.0742 720.072 68.7932C720.039 83.9673 720.039 99.1413 720.039 114.282C720.039 116.563 719.906 116.696 717.624 116.696C712.396 116.696 707.169 116.696 701.909 116.696C699.759 116.696 699.527 116.464 699.527 114.315C699.527 98.7115 699.527 83.0747 699.527 67.4709C699.527 63.4707 698.601 59.702 696.318 56.33C694.068 52.9911 690.859 51.2389 686.989 50.4125C683.912 49.7513 680.802 49.7843 677.825 50.5778C672.267 51.9993 668.561 55.5697 666.94 61.0574C666.312 63.2063 665.981 65.5204 665.948 67.7353C665.882 83.1408 665.915 98.5462 665.915 113.952C665.915 114.448 665.915 114.943 665.848 115.406C665.716 116.167 665.319 116.663 664.459 116.663C658.57 116.663 652.681 116.663 646.793 116.663C645.932 116.663 645.502 116.233 645.403 115.472C645.337 115.043 645.337 114.58 645.337 114.15C645.337 88.6286 645.337 63.1401 645.337 37.6187C645.337 35.3045 645.668 34.974 648.017 34.974C653.244 34.974 658.471 34.974 663.731 34.974C665.385 34.974 665.915 35.4698 665.915 37.1228C665.882 38.7757 665.882 40.5279 665.882 42.313Z" fill="#08266E"/>
<path d="M469.136 42.3127C470.856 40.8911 472.411 39.4696 474.098 38.2134C477.142 35.9654 480.583 34.5769 484.354 33.8496C489.052 32.957 493.816 32.7917 498.514 33.4859C509.233 35.0728 518.661 42.1474 521.97 53.5858C522.896 56.7594 523.293 59.9992 523.26 63.3051C523.26 80.2643 523.26 97.1905 523.26 114.15C523.26 116.497 523.161 116.629 520.779 116.629C515.518 116.629 510.225 116.629 504.965 116.629C503.046 116.629 502.781 116.365 502.781 114.414C502.781 98.8104 502.781 83.2066 502.781 67.5697C502.781 63.7018 501.987 59.9992 499.87 56.6933C497.488 52.9246 493.981 50.9741 489.68 50.2468C485.115 49.4534 480.748 49.9493 476.778 52.2634C472.411 54.8089 470.228 58.9744 469.434 63.8671C469.202 65.2225 469.169 66.611 469.169 67.9995C469.136 83.2396 469.169 98.4798 469.169 113.753C469.169 114.249 469.169 114.745 469.136 115.208C469.037 116.133 468.573 116.662 467.548 116.662C461.791 116.629 456.035 116.629 450.278 116.662C449.187 116.662 448.723 116.133 448.657 115.141C448.624 114.778 448.657 114.414 448.657 114.051C448.657 77.3882 448.657 40.7258 448.657 4.09657C448.657 1.65021 448.955 1.38574 451.403 1.38574C456.564 1.38574 461.725 1.38574 466.853 1.38574C468.772 1.38574 469.235 1.84857 469.235 3.76598C469.235 16.1631 469.235 28.5932 469.235 40.9903C469.136 41.387 469.136 41.8498 469.136 42.3127Z" fill="#08266E"/>
<path d="M599.881 109.124C597.168 112.695 593.463 114.876 589.393 116.397C585.456 117.885 581.288 118.315 577.119 118.513C571.396 118.777 565.739 118.149 560.412 116.033C551.315 112.397 545.459 105.289 545.227 94.6113C545.095 89.1566 545.988 83.9663 549.23 79.3711C551.513 76.0983 554.59 73.8503 558.163 72.1643C565.309 68.7262 572.951 67.9327 580.726 67.8005C586.581 67.7013 592.404 67.7675 598.26 67.8005C599.418 67.8005 599.848 67.4038 599.848 66.2798C599.781 62.9408 600.013 59.5688 598.624 56.3621C597.234 53.1554 594.72 51.3041 591.511 50.4776C584.563 48.6594 577.516 48.7916 570.536 50.0479C566.864 50.709 563.423 52.2959 560.313 54.4778C558.56 55.7009 558.03 55.5687 556.972 53.7835C554.921 50.3785 552.87 47.0065 550.818 43.6014C549.925 42.1468 550.024 41.684 551.447 40.7583C555.053 38.4111 558.99 36.7912 563.092 35.535C571.528 32.9564 580.163 32.7581 588.831 33.3862C592.735 33.6506 596.705 34.0143 600.476 34.973C609.442 37.2871 616.091 41.6178 618.473 53.1554C619.003 55.8001 619.234 58.544 619.234 61.2548C619.301 78.9083 619.267 96.5287 619.267 114.182C619.267 116.496 619.135 116.629 616.885 116.629C612.022 116.629 607.159 116.629 602.263 116.629C600.542 116.629 600.278 116.331 600.278 114.645C600.278 112.827 600.278 111.042 600.278 109.223C600.079 109.19 599.98 109.157 599.881 109.124ZM589.195 81.8506C583.571 81.8506 577.913 81.6853 572.422 83.239C569.974 83.9333 567.724 85.0903 566.334 87.3053C562.331 93.6856 565.904 101.157 573.348 102.512C579.336 103.603 585.192 103.405 590.981 101.521C595.613 99.9999 598.855 97.0246 599.451 91.9666C599.781 89.2227 599.682 86.3796 599.748 83.6027C599.781 82.115 599.517 81.8506 597.962 81.8506C595.051 81.8506 592.139 81.8506 589.195 81.8506Z" fill="#08266E"/>
<path d="M834.507 118.613C826.931 118.447 821.141 118.084 815.55 116.464C808.106 114.315 801.258 110.811 795.204 105.918C793.98 104.926 793.947 104.265 795.072 103.141C798.413 99.8683 801.754 96.5954 805.129 93.3557C806.353 92.1986 806.75 92.1986 808.04 93.2234C811.712 96.1987 815.815 98.3145 820.248 99.9344C826.699 102.315 833.316 103.009 840.065 101.951C843.439 101.422 846.582 100.232 848.666 97.2897C851.909 92.7276 849.824 87.0745 844.432 85.3885C839.734 83.9339 834.904 83.5702 830.074 83.2396C823.92 82.7768 817.833 82.0826 812.109 79.5701C804.203 76.0989 799.604 70.1153 798.876 61.3877C798.413 55.8007 799.24 50.4783 802.35 45.6847C805.294 41.1226 809.463 38.0481 814.458 36.0976C822.233 33.0562 830.305 32.6595 838.477 33.3537C842.017 33.6513 845.59 34.048 848.997 34.9406C855.184 36.5605 861.039 39.0068 866.167 42.9739C867.391 43.9326 867.424 44.5607 866.333 45.7839C864.48 47.8666 862.594 49.9163 860.742 51.999C859.782 53.0569 858.856 54.1147 857.897 55.1396C856.937 56.1644 856.143 56.3297 854.985 55.6024C851.412 53.3544 847.542 51.7345 843.505 50.5774C838.344 49.0898 833.051 48.3955 827.659 49.2551C825.409 49.6187 823.358 50.2468 821.538 51.6353C819.255 53.3874 818.23 55.7016 818.594 58.5446C818.958 61.2885 820.711 63.0406 823.159 64.0655C826.104 65.3217 829.213 65.6854 832.356 66.0159C835.929 66.3796 839.535 66.6441 843.108 67.1069C846.152 67.5036 849.229 67.9003 852.173 68.7268C861.933 71.4045 869.476 77.7519 869.906 89.6861C870.27 99.6699 866.2 107.373 857.764 112.728C853.662 115.34 849.13 116.861 844.332 117.489C840.528 118.051 836.657 118.381 834.507 118.613Z" fill="#08266E"/>
<path d="M392.184 33.0234C394.698 33.321 399.363 33.5524 403.863 34.5111C410.81 35.9987 417.327 38.6765 423.051 43.0403C424.341 43.999 424.341 44.561 423.249 45.8172C421.364 47.933 419.478 50.0157 417.559 52.0984C416.633 53.1233 415.739 54.1481 414.813 55.1399C413.854 56.1647 413.06 56.363 411.902 55.6357C408.329 53.3877 404.458 51.7678 400.422 50.6108C395.261 49.1231 389.968 48.3958 384.575 49.2884C382.425 49.6521 380.44 50.2141 378.653 51.5034C376.271 53.2224 375.146 55.5035 375.477 58.4127C375.808 61.2558 377.528 63.2393 380.175 64.0658C383.086 64.9583 386.13 65.5534 389.141 65.9832C392.747 66.5121 396.419 66.6444 400.025 67.1072C403.035 67.5039 406.046 67.9336 408.957 68.694C419.577 71.504 427.054 78.7109 426.855 91.2402C426.723 100.596 422.588 107.704 414.714 112.728C410.578 115.373 405.98 116.795 401.15 117.555C396.452 118.282 391.721 118.679 386.99 118.448C381.531 118.183 376.04 117.72 370.846 115.968C364.03 113.654 357.645 110.414 352.021 105.819C350.896 104.894 350.863 104.199 351.889 103.208C355.263 99.9016 358.638 96.5957 362.045 93.3229C363.269 92.1328 363.666 92.1328 364.957 93.1907C369.357 96.8602 374.452 99.2735 379.91 100.827C385.005 102.282 390.199 102.844 395.526 102.084C398.602 101.621 401.547 100.96 403.995 98.9429C406.542 96.8602 407.601 94.2155 406.873 90.9757C406.211 87.9343 404.028 86.3144 401.216 85.3888C396.452 83.8019 391.456 83.5705 386.494 83.2069C380.473 82.744 374.485 82.0167 368.894 79.5043C360.921 75.9339 356.322 69.8511 355.727 61.0243C355.363 55.6027 356.157 50.4455 359.167 45.7842C362.112 41.189 366.247 38.1145 371.243 36.0979C377.264 33.6516 383.649 33.1887 392.184 33.0234Z" fill="#08266E"/>
<path d="M482.138 183.706C483.56 186.615 484.95 189.392 486.439 192.466C485.115 192.466 484.024 192.532 482.965 192.433C482.667 192.4 482.336 191.97 482.171 191.673C481.178 189.59 480.153 187.507 479.26 185.392C478.863 184.466 478.333 184.168 477.341 184.201C475.025 184.268 475.025 184.235 475.025 186.516C475.025 188.466 475.025 190.384 475.025 192.235C474.826 192.367 474.76 192.433 474.694 192.433C471.684 192.665 471.684 192.665 471.684 189.656C471.684 184.235 471.684 178.78 471.684 173.358C471.684 172.928 471.684 172.499 471.684 171.738C475.025 171.904 478.3 171.804 481.443 172.267C484.057 172.664 485.446 174.681 485.81 177.292C486.174 179.871 485.016 182.119 482.766 183.408C482.601 183.507 482.436 183.573 482.138 183.706ZM477.936 180.896C478.499 180.896 479.061 180.896 479.624 180.896C481.245 180.863 482.237 180.003 482.502 178.515C482.733 177.094 481.906 175.639 480.451 175.243C479.69 175.044 478.863 175.011 478.069 175.011C475.025 174.978 475.025 175.011 475.025 177.986C475.025 180.896 475.025 180.896 477.936 180.896Z" fill="#08266E"/>
<path d="M778.563 192.467C777.306 192.467 776.313 192.533 775.354 192.434C774.99 192.401 774.494 192.004 774.328 191.64C773.303 189.558 772.31 187.475 771.417 185.359C771.02 184.466 770.524 184.103 769.498 184.136C767.182 184.202 767.182 184.169 767.182 186.45C767.182 188.4 767.182 190.318 767.182 192.334C766.058 192.334 765.032 192.334 763.907 192.334C763.907 185.524 763.907 178.78 763.907 171.838C765.131 171.838 766.355 171.805 767.613 171.838C769.631 171.904 771.682 171.838 773.634 172.202C776.082 172.697 777.504 174.45 777.868 176.896C778.298 179.739 777.24 181.987 774.957 183.309C774.758 183.409 774.56 183.508 774.262 183.64C775.685 186.615 777.074 189.425 778.563 192.467ZM767.182 180.863C769.035 180.863 770.722 180.863 772.41 180.863C772.641 180.863 772.873 180.764 773.104 180.632C774.328 180.003 774.858 178.813 774.593 177.359C774.328 176.036 773.27 175.111 771.748 175.012C770.557 174.945 769.333 174.945 768.109 175.012C767.778 175.045 767.249 175.507 767.249 175.805C767.149 177.458 767.182 179.078 767.182 180.863Z" fill="#08266E"/>
<path d="M480.881 149.688C480.749 151.044 480.716 152.796 480.352 154.482C479.426 158.713 475.753 160.333 472.081 159.771C468.376 159.209 466.258 156.895 466.027 153.126C465.861 150.416 465.828 147.705 466.06 144.994C466.424 140.432 470.725 137.655 475.158 138.779C478.929 139.738 480.352 142.68 480.583 145.258C480.716 146.614 480.782 147.936 480.881 149.688ZM477.407 149.953H477.374C477.374 149.159 477.407 148.333 477.374 147.54C477.341 146.845 477.308 146.151 477.209 145.49C476.944 143.275 475.29 141.721 473.305 141.721C471.287 141.721 469.567 143.275 469.468 145.523C469.335 148.035 469.335 150.548 469.468 153.027C469.6 155.275 471.32 156.763 473.371 156.73C475.456 156.697 477.01 155.209 477.242 152.961C477.308 151.969 477.341 150.945 477.407 149.953Z" fill="#08266E"/>
<path d="M365.916 143.209C365.486 143.44 365.122 143.605 364.758 143.837C363.7 144.465 362.939 144.432 362.079 143.275C361.086 141.986 359.564 141.357 357.844 141.886C356.091 142.448 355.032 143.672 354.966 145.523C354.866 148.002 354.833 150.449 354.966 152.928C355.098 155.374 357.083 156.994 359.266 156.73C361.682 156.399 363.402 154.184 362.972 151.804C362.939 151.54 362.476 151.209 362.211 151.176C361.318 151.077 360.424 151.143 359.432 151.143C359.432 150.217 359.432 149.358 359.432 148.366C361.682 148.366 363.964 148.366 366.578 148.366C366.346 150.647 366.346 152.928 365.784 155.077C364.924 158.449 361.053 160.499 357.513 159.738C353.775 158.945 351.79 156.829 351.558 152.994C351.393 150.349 351.36 147.639 351.591 144.994C351.988 140.134 356.355 137.886 360.457 138.713C363.005 139.275 364.924 140.564 365.916 143.209Z" fill="#08266E"/>
<path d="M506.586 157.853C504.535 159.44 502.352 159.704 500.301 158.415C499.341 157.82 498.58 156.564 498.216 155.473C497.489 153.291 497.654 151.01 498.051 148.762C498.845 144.365 503.907 143.638 506.421 146.018C506.95 145.026 507.314 144.927 509.762 145.225C509.796 145.588 509.829 145.985 509.829 146.382C509.829 150.547 509.829 154.712 509.829 158.878C509.829 161.357 509.167 163.572 506.785 164.63C504.138 165.787 501.426 165.688 498.977 163.936C498.448 163.572 497.919 163.076 498.613 162.514C499.242 161.985 499.54 160.531 500.863 161.457C501.26 161.721 501.69 162.019 502.12 162.151C505.296 163.043 507.083 161.357 506.586 157.853ZM500.896 152.002C501.062 152.795 501.161 153.655 501.392 154.514C501.756 155.704 502.683 156.299 503.874 156.266C504.998 156.233 506.057 155.704 506.223 154.547C506.454 152.894 506.52 151.175 506.322 149.555C506.189 148.266 505.164 147.704 503.741 147.737C502.451 147.737 501.624 148.332 501.293 149.654C501.128 150.349 501.028 151.109 500.896 152.002Z" fill="#08266E"/>
<path d="M826.7 187.474C828.122 188.168 829.346 188.895 830.636 189.424C832.456 190.119 834.606 189.623 835.566 188.433C836.856 186.846 836.228 184.763 834.243 184.234C832.555 183.804 830.835 183.507 829.181 183.011C826.6 182.251 825.442 180.234 825.608 177.159C825.74 174.647 827.593 172.366 829.909 171.936C832.489 171.44 835.003 171.573 837.319 172.862C837.816 173.126 838.576 173.754 838.51 174.019C838.246 174.812 837.716 175.573 837.187 176.234C837.088 176.366 836.393 176.102 836.029 175.87C834.54 175.011 832.985 174.614 831.265 174.911C829.842 175.176 829.082 176.002 829.015 177.325C828.949 178.581 829.578 179.507 830.967 179.87C832.357 180.267 833.812 180.498 835.202 180.829C837.816 181.424 839.404 183.275 839.536 185.821C839.701 188.962 838.279 191.441 835.797 192.201C832.357 193.259 829.015 192.995 825.939 190.945C824.715 190.119 824.681 189.953 825.542 188.796C825.939 188.366 826.369 187.904 826.7 187.474Z" fill="#08266E"/>
<path d="M602.561 171.97C603.686 171.97 604.613 171.97 605.638 171.97C605.638 178.747 605.638 185.524 605.638 192.4C604.712 192.4 603.752 192.4 602.727 192.4C602.661 192.103 602.628 191.772 602.561 191.375C602.462 191.408 602.33 191.441 602.264 191.508C599.154 194.251 594.522 192.797 593.894 188.698C593.53 186.383 593.563 183.904 593.927 181.623C594.588 177.656 599.088 176.267 602.164 178.912C602.264 178.978 602.363 179.011 602.595 179.144C602.561 176.73 602.561 174.416 602.561 171.97ZM602.661 185.226C602.561 184.433 602.528 183.606 602.363 182.813C602.065 181.392 601.04 180.565 599.65 180.598C598.294 180.598 597.202 181.358 597.037 182.78C596.871 184.4 596.838 186.086 597.037 187.706C597.202 189.193 598.228 189.855 599.65 189.855C601.139 189.855 602.065 189.16 602.363 187.64C602.528 186.846 602.561 186.053 602.661 185.226Z" fill="#08266E"/>
<path d="M808.37 171.937C809.495 171.937 810.421 171.937 811.414 171.937C811.414 178.78 811.414 185.557 811.414 192.4C810.388 192.4 809.462 192.4 808.436 192.4C808.37 192.036 808.337 191.706 808.271 191.276C806.352 193.094 804.234 193.16 802.051 192.235C800.265 191.474 799.603 189.755 799.471 188.003C799.338 185.92 799.272 183.772 799.636 181.722C800.364 177.656 804.764 176.234 807.907 178.912C808.006 178.978 808.105 179.011 808.337 179.143C808.37 176.73 808.37 174.383 808.37 171.937ZM808.436 185.193C808.337 184.367 808.304 183.54 808.105 182.714C807.807 181.358 806.749 180.598 805.392 180.631C804.102 180.631 802.977 181.391 802.812 182.714C802.613 184.367 802.613 186.086 802.812 187.739C802.977 189.193 804.003 189.888 805.459 189.888C806.947 189.888 807.841 189.193 808.171 187.64C808.304 186.846 808.337 186.02 808.436 185.193Z" fill="#08266E"/>
<path d="M708.791 143.242C707.865 143.705 706.971 144.168 706.012 144.631C705.648 144.135 705.383 143.639 705.02 143.242C704.093 142.217 702.968 141.49 701.513 141.787C699.991 142.118 698.8 143.044 698.535 144.631C698.271 146.217 698.204 147.837 698.138 149.457C698.105 150.548 698.204 151.639 698.271 152.73C698.436 154.912 699.495 156.234 701.413 156.664C702.968 157.028 704.523 156.168 705.549 154.416C705.648 154.251 705.78 154.085 705.946 153.821C706.905 154.284 707.799 154.747 708.692 155.209C707.633 158.912 703.597 160.4 700.619 159.738C697.311 159.011 695.293 157.028 694.995 153.656C694.731 150.68 694.731 147.672 695.028 144.697C695.359 141.292 697.874 139.044 701.149 138.614C704.424 138.184 707.269 139.87 708.791 143.242Z" fill="#08266E"/>
<path d="M398.9 177.656C398.701 177.326 398.503 177.028 398.304 176.73C397.18 175.011 395.922 174.516 393.838 174.945C392.581 175.21 391.324 176.631 391.258 178.251C391.158 180.863 391.059 183.508 391.291 186.119C391.555 189.161 394.566 190.648 396.981 189.094C397.577 188.731 398.007 188.103 398.404 187.475C398.768 186.913 399.098 186.78 399.661 187.111C400.289 187.475 400.951 187.772 401.712 188.136C400.951 190.351 399.495 191.904 397.246 192.466C394.566 193.128 391.952 192.962 389.835 190.78C388.71 189.59 387.982 188.136 387.916 186.549C387.784 183.673 387.718 180.797 387.916 177.954C388.115 174.945 390.398 172.301 392.846 171.871C396.816 171.143 399.628 172.267 401.315 175.21C401.745 175.97 401.778 176.433 400.819 176.73C400.157 176.962 399.562 177.326 398.9 177.656Z" fill="#08266E"/>
<path d="M380.54 155.275C381.103 155.969 382.228 156.763 382.095 157.226C381.897 157.953 380.937 158.581 380.176 158.978C378.092 160.069 375.909 160.135 373.725 159.242C372.27 158.647 371.277 157.523 370.814 156.003C370.02 153.457 369.954 150.878 370.814 148.366C371.74 145.622 374.718 144.068 377.53 144.696C381.136 145.49 383.452 149.093 382.592 152.697C382.525 152.961 381.963 153.226 381.632 153.259C379.349 153.292 377.1 153.292 374.817 153.292C373.394 153.292 373.295 153.49 373.758 154.845C374.552 157.126 377.596 157.292 379.449 156.102C379.746 155.936 380.044 155.672 380.54 155.275ZM376.372 150.911C377.067 150.911 377.761 150.878 378.423 150.911C379.217 150.944 379.416 150.548 379.316 149.854C379.118 148.564 378.092 147.672 376.603 147.539C375.082 147.407 373.99 148.168 373.593 149.556C373.328 150.449 373.461 150.978 374.552 150.911C375.148 150.878 375.776 150.911 376.372 150.911Z" fill="#08266E"/>
<path d="M415.706 153.292C412.894 153.292 410.38 153.292 407.865 153.292C406.443 153.292 406.344 153.524 406.774 154.846C407.535 157.127 410.644 157.292 412.464 156.102C412.795 155.871 413.093 155.64 413.456 155.375C413.655 155.507 413.82 155.64 413.986 155.739C415.706 157.127 415.706 157.656 413.787 158.714C411.538 159.97 409.156 160.202 406.774 159.21C405.219 158.582 404.226 157.326 403.796 155.739C403.135 153.425 403.068 151.077 403.73 148.763C404.491 146.019 406.807 144.433 409.784 144.532C412.696 144.631 414.813 146.35 415.375 149.193C415.574 150.548 415.574 151.838 415.706 153.292ZM409.52 150.912C410.214 150.912 410.909 151.011 411.571 150.879C411.902 150.813 412.365 150.35 412.365 150.053C412.365 148.664 411.074 147.573 409.486 147.54C407.899 147.507 406.674 148.532 406.542 149.986C406.476 150.582 406.641 150.912 407.303 150.912C408.064 150.879 408.792 150.912 409.52 150.912Z" fill="#08266E"/>
<path d="M795.039 186.218C791.863 186.218 788.919 186.218 786.007 186.218C785.776 188.069 786.702 189.392 788.323 189.755C789.713 190.053 791.036 189.855 792.062 188.896C792.69 188.301 793.054 188.367 793.517 188.995C793.716 189.26 793.98 189.458 794.245 189.623C794.808 190.02 794.774 190.45 794.245 190.78C793.286 191.408 792.326 192.235 791.268 192.499C787.265 193.425 783.46 192.4 782.831 187.474C782.6 185.623 782.666 183.64 783.063 181.854C783.758 178.747 785.941 177.557 789.779 177.722C792.095 177.821 794.212 179.772 794.675 182.383C794.907 183.54 794.907 184.764 795.039 186.218ZM788.786 183.772C789.481 183.772 790.143 183.739 790.838 183.772C791.632 183.805 791.797 183.441 791.665 182.714C791.4 181.425 790.176 180.4 788.819 180.367C787.529 180.334 786.272 181.325 785.974 182.549C785.776 183.309 785.908 183.838 786.868 183.772C787.496 183.739 788.125 183.772 788.786 183.772Z" fill="#08266E"/>
<path d="M770.955 155.407C771.12 155.539 771.253 155.639 771.385 155.738C773.205 157.192 773.171 157.82 771.021 158.911C768.871 160.002 766.588 160.234 764.338 159.341C762.916 158.779 761.923 157.721 761.427 156.267C760.534 153.622 760.468 150.911 761.394 148.266C762.221 145.952 764.371 144.63 767.018 144.63C769.665 144.663 771.815 146.018 772.543 148.366C772.94 149.655 772.94 151.076 773.105 152.432C773.205 153.159 772.774 153.324 772.146 153.291C769.863 153.258 767.613 153.291 765.331 153.291C763.941 153.291 763.809 153.523 764.272 154.878C765.066 157.159 768.143 157.291 769.962 156.101C770.326 155.903 770.624 155.639 770.955 155.407ZM766.886 150.911C767.58 150.911 768.275 150.878 768.937 150.911C769.797 150.944 769.995 150.547 769.863 149.787C769.632 148.498 768.573 147.605 767.117 147.539C765.695 147.44 764.603 148.167 764.206 149.39C763.809 150.614 764.041 150.878 765.331 150.911C765.827 150.911 766.356 150.911 766.886 150.911Z" fill="#08266E"/>
<path d="M502.882 186.185C500.037 186.185 497.489 186.185 494.942 186.185C493.685 186.185 493.519 186.417 493.916 187.607C494.743 189.987 497.919 190.714 499.904 188.896C501.294 187.64 501.492 189.326 502.121 189.689C502.981 190.218 502.154 190.648 501.757 191.078C499.706 193.359 493.685 193.524 491.964 190.681C491.336 189.623 490.807 188.433 490.641 187.243C490.41 185.822 490.476 184.334 490.641 182.912C490.972 180.003 493.155 177.821 495.67 177.722C499.706 177.557 501.823 178.945 502.551 182.45C502.783 183.607 502.75 184.83 502.882 186.185ZM496.629 183.772C497.324 183.772 498.019 183.739 498.68 183.772C499.441 183.805 499.673 183.474 499.54 182.714C499.276 181.425 498.019 180.4 496.662 180.367C495.372 180.334 494.148 181.292 493.817 182.549C493.619 183.309 493.718 183.838 494.677 183.772C495.339 183.739 495.967 183.772 496.629 183.772Z" fill="#08266E"/>
<path d="M690.33 186.186C690.132 188.103 691.025 189.392 692.679 189.723C694.069 190.021 695.392 189.822 696.417 188.864C697.079 188.235 697.344 188.434 697.873 188.963C699.263 190.351 699.296 190.351 697.807 191.541C695.623 193.227 690.463 193.459 688.577 190.88C688.18 190.318 687.75 189.756 687.551 189.128C686.724 186.483 686.658 183.772 687.584 181.128C688.279 179.144 690.33 177.855 692.414 177.69C697.046 177.326 699.196 180.5 699.23 184.169C699.23 184.764 699.23 185.392 699.23 186.186C697.708 186.186 696.219 186.186 694.73 186.186C693.275 186.186 691.786 186.186 690.33 186.186ZM693.043 183.772C693.771 183.772 694.499 183.772 695.226 183.772C695.954 183.772 696.153 183.442 696.02 182.781C695.789 181.524 694.631 180.533 693.308 180.4C692.051 180.301 690.727 181.161 690.33 182.384C689.999 183.442 690.198 183.739 691.356 183.772C691.918 183.772 692.481 183.772 693.043 183.772Z" fill="#08266E"/>
<path d="M856.078 186.185C853.233 186.185 850.652 186.185 848.072 186.185C846.815 186.185 846.649 186.416 847.079 187.607C847.906 189.954 851.082 190.714 853.1 188.896C854.49 187.64 854.688 189.326 855.317 189.689C856.078 190.119 855.449 190.648 855.019 191.012C852.637 193.094 849.858 193.26 847.079 192.169C844.631 191.21 843.837 188.995 843.738 186.582C843.672 185.193 843.672 183.739 843.936 182.35C844.598 179.044 846.583 177.623 850.222 177.656C853.067 177.689 855.152 179.441 855.714 182.449C855.946 183.64 855.946 184.83 856.078 186.185ZM849.726 183.772C850.421 183.772 851.115 183.739 851.777 183.772C852.67 183.805 852.803 183.342 852.637 182.615C852.34 181.391 851.082 180.4 849.825 180.367C848.535 180.334 847.443 181.16 847.013 182.416C846.682 183.309 846.815 183.838 847.939 183.772C848.535 183.739 849.131 183.772 849.726 183.772Z" fill="#08266E"/>
<path d="M807.38 148.598C807.148 148.234 806.983 148.003 806.85 147.771C805.957 146.151 806.156 145.688 807.942 145.16C809.927 144.598 811.879 144.399 813.93 145.027C815.75 145.589 816.742 146.449 816.875 148.399C817.04 150.978 816.974 153.59 817.007 156.168C817.007 157.226 817.007 158.251 817.007 159.276C814.625 159.639 814.195 159.54 813.831 158.482C811.813 160.069 809.629 160.301 807.38 159.21C805.693 158.416 804.965 156.333 805.428 154.152C805.825 152.366 807.347 151.044 809.199 150.945C810.423 150.879 811.647 150.879 812.838 150.912C813.699 150.945 813.996 150.647 813.93 149.788C813.831 148.498 813.335 147.936 812.044 147.672C810.456 147.374 808.902 147.606 807.38 148.598ZM812.078 153.292C812.078 153.259 812.078 153.259 812.078 153.226C811.35 153.325 810.655 153.424 809.927 153.523C808.935 153.689 808.438 154.317 808.405 155.276C808.372 156.234 808.935 156.895 809.828 156.929C810.853 156.995 811.912 156.929 812.905 156.631C813.798 156.367 814.426 154.714 813.93 153.821C813.732 153.424 812.805 153.424 812.21 153.259C812.144 153.292 812.111 153.292 812.078 153.292Z" fill="#08266E"/>
<path d="M519.555 186.185C516.776 186.185 514.196 186.185 511.615 186.185C510.358 186.185 510.192 186.45 510.589 187.607C511.383 189.954 514.593 190.714 516.611 188.896C518 187.64 518.166 189.359 518.827 189.69C519.621 190.119 518.96 190.615 518.563 191.012C516.544 192.962 514.03 193.095 511.516 192.533C508.935 191.971 507.711 189.987 507.347 187.442C507.05 185.359 507.05 183.309 507.711 181.326C508.406 179.276 510.457 177.821 512.541 177.656C517.041 177.292 519.191 180.069 519.456 183.541C519.489 184.367 519.522 185.194 519.555 186.185ZM513.335 183.772C513.997 183.772 514.626 183.739 515.254 183.772C516.214 183.838 516.346 183.342 516.147 182.549C515.85 181.326 514.493 180.301 513.17 180.367C511.747 180.433 510.656 181.458 510.424 182.813C510.292 183.541 510.556 183.772 511.251 183.772C511.946 183.772 512.641 183.772 513.335 183.772Z" fill="#08266E"/>
<path d="M571.098 192.598C569.907 192.135 568.484 193.292 567.922 191.507C566.003 193.061 563.886 193.16 561.669 192.268C560.015 191.606 559.287 190.02 559.453 187.838C559.585 185.92 560.511 184.664 562.298 184.267C563.654 183.97 565.077 183.937 566.466 183.738C567.029 183.672 567.922 184.135 568.021 183.11C568.12 182.152 567.922 181.226 566.896 180.763C564.978 179.937 563.191 180.366 561.438 181.556C561.206 181.16 560.974 180.796 560.776 180.432C560.048 179.176 560.147 178.746 561.471 178.284C563.72 177.457 566.036 177.391 568.352 178.052C569.907 178.515 570.833 179.672 570.899 181.226C571.032 183.904 570.999 186.548 571.032 189.226C571.098 190.284 571.098 191.276 571.098 192.598ZM564.911 190.251C567.227 190.119 568.286 189.028 568.054 186.945C568.021 186.714 567.889 186.35 567.723 186.251C566.896 185.755 563.654 186.35 562.959 187.044C562.232 187.805 562.331 189.127 563.257 189.656C563.72 189.987 564.349 190.086 564.911 190.251Z" fill="#08266E"/>
<path d="M871.925 192.334C869.675 192.731 869.311 192.632 868.914 191.475C866.995 193.029 864.878 193.161 862.661 192.268C860.974 191.574 860.246 189.987 860.412 187.739C860.544 185.921 861.47 184.632 863.224 184.268C864.58 183.97 866.003 183.937 867.392 183.739C867.955 183.673 868.782 184.136 868.98 183.144C869.179 182.185 868.616 181.094 867.756 180.764C866.069 180.069 864.382 180.301 862.363 181.59C862 180.962 861.603 180.367 861.338 179.706C861.239 179.474 861.404 178.979 861.603 178.846C862.198 178.45 862.86 178.053 863.521 177.921C865.639 177.491 867.822 177.326 869.84 178.218C871.23 178.846 871.925 180.169 871.925 181.656C871.991 185.094 871.958 188.533 871.958 191.971C872.057 192.136 871.958 192.235 871.925 192.334ZM867.127 186.185C867.094 186.119 867.094 186.053 867.061 186.02C866.168 186.251 865.209 186.351 864.448 186.813C863.951 187.111 863.455 188.004 863.554 188.533C863.621 189.095 864.348 189.921 864.845 189.987C865.837 190.119 866.929 189.954 867.888 189.657C868.848 189.359 869.443 187.772 868.947 186.747C868.749 186.384 867.822 186.351 867.227 186.185C867.194 186.185 867.161 186.185 867.127 186.185Z" fill="#08266E"/>
<path d="M526.105 159.474C524.981 159.176 523.723 160.003 523.095 158.846C521.705 159.176 520.283 159.738 518.827 159.804C517.173 159.838 515.618 159.209 514.89 157.49C514.162 155.672 514.096 153.821 515.552 152.399C516.28 151.672 517.471 151.242 518.496 151.011C519.654 150.779 520.911 150.912 522.135 150.945C522.896 150.945 523.128 150.647 523.095 149.92C523.029 148.531 522.499 147.969 521.176 147.705C519.522 147.374 517.967 147.639 516.478 148.597C516.28 148.3 516.081 148.035 515.916 147.771C515.023 146.184 515.188 145.721 516.908 145.192C518.86 144.597 520.845 144.399 522.896 144.994C524.947 145.622 525.973 146.614 526.006 148.763C526.172 152.234 526.105 155.738 526.105 159.474ZM521.242 153.226C520.481 153.325 519.687 153.391 518.893 153.556C518.066 153.755 517.603 154.317 517.57 155.209C517.537 156.102 517.934 156.763 518.794 156.862C519.72 156.961 520.713 156.961 521.639 156.763C522.797 156.532 523.393 155.308 523.161 153.986C522.929 152.763 521.904 153.556 521.242 153.226Z" fill="#08266E"/>
<path d="M582.578 159.606C581.486 159.011 580.064 160.3 579.501 158.482C577.781 159.804 575.928 160.234 573.844 159.54C571.727 158.812 570.701 157.159 570.999 154.68C571.23 152.663 572.785 151.11 574.87 150.977C576.127 150.911 577.384 150.911 578.641 150.944C579.435 150.977 579.733 150.647 579.667 149.853C579.567 148.498 579.071 147.936 577.682 147.705C576.061 147.407 574.539 147.672 573.017 148.63C572.653 148.002 572.223 147.407 572.024 146.746C571.925 146.481 572.223 145.853 572.488 145.721C575.068 144.465 577.781 144.266 580.494 145.324C581.883 145.853 582.578 147.076 582.611 148.498C582.644 152.068 582.578 155.672 582.578 159.606ZM577.715 153.225C576.987 153.325 576.226 153.391 575.498 153.556C574.572 153.721 574.109 154.316 574.042 155.242C573.976 156.201 574.506 156.862 575.399 156.961C576.292 157.06 577.252 157.027 578.112 156.829C579.27 156.564 579.865 155.341 579.634 154.052C579.435 152.763 578.409 153.556 577.715 153.225Z" fill="#08266E"/>
<path d="M437.938 181.524C437.839 181.457 437.773 181.457 437.773 181.424C436.251 179.044 436.284 178.581 439.03 177.986C440.817 177.59 442.802 177.755 444.654 178.052C446.474 178.35 447.367 179.838 447.433 181.59C447.532 185.16 447.466 188.697 447.466 192.367C446.54 192.367 445.68 192.367 444.687 192.367C444.621 192.135 444.522 191.805 444.423 191.441C442.405 193.061 440.254 193.193 438.005 192.268C436.417 191.607 435.656 189.921 435.821 187.805C435.953 185.986 436.913 184.697 438.633 184.3C439.99 184.003 441.412 183.97 442.802 183.772C443.364 183.672 444.191 183.573 444.39 183.176C444.787 182.35 444.092 181.16 443.232 180.796C441.379 180.003 439.626 180.433 437.938 181.524ZM441.379 190.218C443.596 190.086 444.654 189.028 444.456 187.044C444.423 186.747 444.158 186.251 443.993 186.251C442.537 186.218 441.015 185.92 439.659 186.846C438.534 187.639 438.567 189.16 439.791 189.788C440.254 190.053 440.85 190.086 441.379 190.218Z" fill="#08266E"/>
<path d="M443.794 159.54C442.768 159.011 441.379 160.201 440.75 158.515C439.063 159.804 437.21 160.234 435.126 159.506C433.042 158.779 431.983 157.093 432.281 154.779C432.546 152.597 434.034 151.11 436.152 150.944C437.376 150.878 438.6 150.845 439.791 150.911C440.75 150.944 441.015 150.548 440.916 149.688C440.783 148.531 440.287 147.87 439.063 147.671C437.409 147.407 435.854 147.605 434.266 148.597C433.902 147.936 433.472 147.341 433.273 146.68C433.207 146.415 433.505 145.82 433.77 145.688C436.317 144.432 438.997 144.266 441.643 145.258C442.868 145.721 443.695 146.713 443.728 148.035C443.86 151.771 443.794 155.539 443.794 159.54ZM439.493 153.159C438.335 153.324 437.508 153.391 436.747 153.556C435.887 153.721 435.424 154.316 435.358 155.176C435.291 156.035 435.655 156.763 436.549 156.862C437.508 156.961 438.534 156.961 439.493 156.763C440.618 156.531 441.313 155.176 440.883 153.953C440.717 153.523 439.824 153.358 439.493 153.159Z" fill="#08266E"/>
<path d="M852.571 152.3C852.372 153.49 852.273 154.713 851.942 155.87C851.049 159.143 847.708 160.201 845.259 159.771C842.216 159.275 840.529 157.655 840.264 154.581C840.065 152.597 840.098 150.515 840.595 148.597C841.323 145.655 844.532 144.068 847.509 144.795C850.685 145.589 852.108 147.275 852.405 150.713C852.439 151.242 852.405 151.771 852.405 152.3C852.439 152.3 852.505 152.3 852.571 152.3ZM843.274 152.168C843.341 152.928 843.341 153.688 843.473 154.449C843.804 156.102 844.697 156.829 846.318 156.796C847.807 156.796 848.799 156.002 848.965 154.383C849.13 152.961 849.13 151.473 848.965 150.052C848.799 148.498 847.807 147.738 846.384 147.705C844.73 147.672 843.837 148.333 843.473 149.986C843.341 150.713 843.341 151.44 843.274 152.168Z" fill="#08266E"/>
<path d="M405.518 185.226C405.584 182.945 405.749 180.664 407.668 179.011C410.579 176.532 416.667 177.259 417.626 182.284C418.056 184.499 418.056 186.714 417.427 188.896C416.766 191.144 414.648 192.598 412.399 192.764C407.503 193.094 405.385 189.921 405.518 185.226ZM414.748 185.292C414.615 184.367 414.582 183.441 414.351 182.548C414.02 181.292 412.994 180.598 411.737 180.598C410.48 180.598 409.289 181.259 409.124 182.515C408.892 184.301 408.892 186.152 409.091 187.904C409.256 189.292 410.381 189.888 411.77 189.854C413.094 189.821 413.954 189.193 414.318 187.838C414.582 187.044 414.615 186.185 414.748 185.292Z" fill="#08266E"/>
<path d="M363.601 185.292C363.436 187.54 363.204 189.656 361.451 191.342C359.102 193.623 353.015 193.557 351.592 189.061C350.831 186.648 350.798 184.201 351.526 181.755C352.287 179.11 354.272 177.722 357.15 177.722C360.26 177.722 362.245 179.044 363.006 181.755C363.337 182.879 363.436 184.102 363.601 185.292ZM360.359 185.094C360.326 185.094 360.293 185.094 360.26 185.061C360.194 184.333 360.194 183.606 360.028 182.879C359.764 181.557 358.771 180.697 357.547 180.598C356.323 180.499 355.132 181.094 354.768 182.284C354.139 184.267 354.139 186.284 354.801 188.234C355.198 189.391 356.157 189.821 357.282 189.821C358.44 189.821 359.4 189.391 359.764 188.267C360.061 187.243 360.161 186.152 360.359 185.094Z" fill="#08266E"/>
<path d="M618.274 152.333C618.175 153.291 618.142 154.283 617.943 155.209C617.182 158.746 614.271 160.102 611.26 159.771C608.184 159.44 606.331 157.589 606.066 154.482C605.901 152.564 605.967 150.581 606.331 148.729C607.026 145.258 610.963 144.2 613.245 144.729C616.355 145.457 617.844 147.143 618.142 150.349C618.208 150.977 618.142 151.639 618.142 152.3C618.208 152.333 618.241 152.333 618.274 152.333ZM609.044 152.432C609.143 153.093 609.176 153.92 609.342 154.68C609.705 156.201 610.533 156.829 612.121 156.796C613.543 156.796 614.536 156.068 614.734 154.614C614.899 153.159 614.933 151.639 614.8 150.151C614.635 148.465 613.675 147.705 612.22 147.671C610.499 147.638 609.639 148.333 609.308 150.085C609.143 150.812 609.143 151.539 609.044 152.432Z" fill="#08266E"/>
<path d="M669.721 152.366C669.522 153.556 669.39 154.779 669.092 155.936C668.166 159.308 664.427 160.267 662.145 159.738C659.134 159.011 657.645 157.523 657.414 154.416C657.248 152.531 657.314 150.515 657.711 148.663C658.439 145.324 662.178 144.299 664.46 144.762C667.57 145.39 669.125 147.109 669.489 150.283C669.555 150.977 669.489 151.672 669.489 152.333C669.588 152.333 669.654 152.366 669.721 152.366ZM660.424 152.333C660.49 153.027 660.49 153.787 660.656 154.548C661.02 156.201 661.88 156.829 663.567 156.796C664.99 156.763 665.949 156.002 666.115 154.416C666.28 153.027 666.28 151.605 666.148 150.217C665.982 148.531 665.056 147.738 663.567 147.705C661.88 147.671 660.954 148.366 660.623 150.085C660.49 150.779 660.49 151.539 660.424 152.333Z" fill="#08266E"/>
<path d="M724.738 152.365C724.606 153.423 724.539 154.547 724.275 155.572C723.382 158.977 720.305 160.167 717.559 159.77C714.449 159.34 712.729 157.522 712.464 154.382C712.299 152.596 712.365 150.745 712.696 148.993C713.258 146.117 715.442 144.761 718.485 144.662C721.43 144.563 723.679 146.282 724.341 149.092C724.573 150.15 724.606 151.241 724.738 152.365ZM715.475 152.365C715.574 153.092 715.607 153.952 715.806 154.745C716.136 156.167 716.997 156.795 718.518 156.795C719.941 156.795 721 156.101 721.165 154.679C721.363 153.158 721.363 151.605 721.231 150.117C721.066 148.464 720.106 147.704 718.584 147.704C716.93 147.704 716.103 148.365 715.739 150.051C715.574 150.778 715.574 151.505 715.475 152.365Z" fill="#08266E"/>
<path d="M634.452 159.341C633.493 159.341 632.533 159.341 631.409 159.341C631.409 157.49 631.409 155.671 631.409 153.886C631.409 152.696 631.442 151.539 631.342 150.349C631.243 148.663 630.35 147.737 628.927 147.704C627.24 147.638 626.214 148.398 626.049 150.117C625.884 152.002 625.95 153.919 625.917 155.837C625.917 156.961 625.917 158.085 625.917 159.308C624.891 159.308 623.932 159.308 622.873 159.308C622.873 154.613 622.873 149.919 622.873 145.126C623.832 145.126 624.726 145.126 625.751 145.126C625.817 145.39 625.917 145.687 626.049 146.051C627.637 144.828 629.258 144.266 631.177 144.894C632.997 145.489 634.254 146.712 634.353 148.498C634.618 152.101 634.452 155.704 634.452 159.341Z" fill="#08266E"/>
<path d="M627.24 192.301C627.075 192.367 627.041 192.4 627.008 192.4C623.932 192.763 623.932 192.763 623.932 189.689C623.932 185.259 623.899 180.862 623.965 176.432C623.965 175.341 623.7 174.878 622.509 174.978C621.153 175.077 619.763 175.011 618.241 175.011C618.241 174.118 618.175 173.358 618.274 172.597C618.308 172.333 618.738 171.903 618.969 171.903C623.535 171.87 628.133 171.87 632.831 171.87C632.831 172.895 632.831 173.821 632.831 174.978C632.169 174.978 631.475 174.978 630.747 174.978C627.273 174.978 627.273 174.978 627.273 178.482C627.273 182.614 627.273 186.747 627.273 190.879C627.306 191.408 627.273 191.904 627.24 192.301Z" fill="#08266E"/>
<path d="M585.357 192.367C585.357 189.888 585.357 187.474 585.357 185.028C585.357 184.367 585.39 183.739 585.291 183.078C585.092 181.557 584.067 180.598 582.677 180.565C581.321 180.565 580.196 181.524 579.998 183.011C579.865 183.97 579.931 184.962 579.931 185.921C579.931 188.036 579.931 190.119 579.931 192.334C578.906 192.334 577.946 192.334 576.888 192.334C576.888 187.574 576.888 182.846 576.888 178.086C578.939 177.557 579.766 177.755 579.964 178.615C581.222 178.284 582.479 177.854 583.769 177.689C586.283 177.325 588.401 179.739 588.467 181.921C588.566 185.359 588.5 188.797 588.5 192.334C587.474 192.367 586.515 192.367 585.357 192.367Z" fill="#08266E"/>
<path d="M737.738 159.341C737.738 156.796 737.738 154.35 737.738 151.87C737.738 151.176 737.705 150.482 737.573 149.82C737.275 148.333 736.448 147.705 734.959 147.705C733.57 147.705 732.544 148.531 732.412 149.953C732.247 151.837 732.28 153.754 732.247 155.672C732.213 156.862 732.247 158.085 732.247 159.341C731.155 159.341 730.195 159.341 729.137 159.341C729.137 154.647 729.137 149.953 729.137 145.291C730.989 144.762 732.015 144.994 732.412 146.052C733.967 144.895 735.621 144.3 737.573 144.961C739.723 145.688 740.716 147.275 740.815 149.325C740.947 152.63 740.848 155.969 740.848 159.375C739.856 159.341 738.896 159.341 737.738 159.341Z" fill="#08266E"/>
<path d="M741.113 179.176C743.065 177.424 745.05 177.226 747.035 178.184C749.02 179.11 749.681 180.895 749.648 182.978C749.648 186.086 749.648 189.193 749.648 192.4C748.59 192.4 747.63 192.4 746.505 192.4C746.505 191.672 746.505 190.945 746.505 190.251C746.505 188.036 746.538 185.788 746.472 183.573C746.406 181.722 745.347 180.631 743.793 180.631C742.238 180.631 741.146 181.788 741.08 183.606C741.014 186.086 741.047 188.532 741.047 191.011C741.047 191.441 741.047 191.871 741.047 192.433C739.988 192.433 739.029 192.433 737.97 192.433C737.937 191.937 737.904 191.474 737.904 191.011C737.904 187.276 737.904 183.573 737.904 179.837C737.904 177.755 737.672 178.052 739.823 177.986C740.683 177.887 741.212 178.019 741.113 179.176Z" fill="#08266E"/>
<path d="M387.222 145.159C389.901 144.894 390.133 144.96 390.53 146.018C391.986 144.927 393.507 144.332 395.36 144.828C397.643 145.423 398.834 147.01 398.933 149.192C399.099 152.531 398.966 155.903 398.966 159.341C397.941 159.341 396.981 159.341 395.856 159.341C395.856 158.68 395.856 158.052 395.856 157.424C395.823 154.944 395.856 152.465 395.691 150.018C395.592 148.432 394.632 147.704 393.11 147.704C391.622 147.704 390.629 148.465 390.497 149.985C390.331 151.837 390.365 153.721 390.331 155.572C390.298 156.795 390.331 157.986 390.331 159.308C389.273 159.308 388.28 159.308 387.222 159.308C387.222 154.581 387.222 149.919 387.222 145.159Z" fill="#08266E"/>
<path d="M643.783 191.276C642.195 192.863 640.342 193.127 638.489 192.532C636.24 191.805 635.38 189.921 635.347 187.706C635.28 184.796 635.347 181.854 635.313 178.945C635.313 178.218 635.545 177.854 636.273 177.953C636.438 177.986 636.604 177.953 636.769 177.953C638.489 177.953 638.489 177.953 638.489 179.639C638.489 182.119 638.489 184.598 638.556 187.044C638.589 188.168 638.92 189.226 640.177 189.623C642.129 190.251 643.717 189.16 643.783 186.978C643.849 184.466 643.816 181.953 643.816 179.441C643.816 179.011 643.816 178.581 643.816 177.953C644.742 177.953 645.536 177.887 646.33 177.986C646.562 178.019 646.959 178.482 646.959 178.747C646.992 183.044 646.992 187.342 646.992 191.64C646.992 192.268 646.76 192.532 646.132 192.499C645.768 192.466 645.404 192.466 645.04 192.499C644.18 192.631 643.684 192.367 643.783 191.276Z" fill="#08266E"/>
<path d="M868.782 159.374C867.657 159.374 866.731 159.374 865.639 159.374C865.639 157.919 865.639 156.465 865.639 155.01C865.639 153.556 865.672 152.101 865.606 150.647C865.54 148.663 864.647 147.704 862.959 147.704C861.272 147.704 860.247 148.729 860.213 150.68C860.147 153.258 860.18 155.87 860.18 158.448C860.18 158.713 860.147 159.01 860.147 159.341C859.122 159.341 858.162 159.341 857.137 159.341C857.137 154.614 857.137 149.919 857.137 145.159C858.096 145.159 859.056 145.159 860.114 145.159C860.147 145.39 860.213 145.688 860.28 146.018C860.445 145.952 860.577 145.952 860.644 145.853C862.364 144.431 864.25 144.233 866.202 145.159C868.021 146.018 868.749 147.671 868.782 149.622C868.815 152.861 868.782 156.035 868.782 159.374Z" fill="#08266E"/>
<path d="M534.343 159.342C533.252 159.342 532.325 159.342 531.267 159.342C531.267 154.614 531.267 149.953 531.267 145.259C533.119 144.73 534.145 144.961 534.509 146.019C536.031 144.862 537.652 144.267 539.57 144.895C541.589 145.523 542.746 146.978 542.846 148.961C543.011 152.399 542.879 155.838 542.879 159.342C541.853 159.342 540.927 159.342 539.769 159.342C539.769 158.581 539.769 157.854 539.769 157.094C539.769 154.945 539.802 152.796 539.736 150.647C539.67 148.697 538.743 147.705 537.089 147.705C535.369 147.705 534.41 148.697 534.343 150.68C534.277 153.094 534.31 155.54 534.31 157.953C534.343 158.416 534.343 158.846 534.343 159.342Z" fill="#08266E"/>
<path d="M747.035 155.109C748.954 156.498 750.674 157.258 752.759 156.828C753.619 156.63 754.214 156.233 754.28 155.34C754.347 154.448 753.751 154.018 752.957 153.886C751.568 153.621 750.145 153.555 748.789 153.159C746.969 152.63 746.109 151.274 746.076 149.324C746.076 147.34 747.002 145.72 748.623 145.158C751.171 144.233 753.619 144.563 755.968 145.853C756.795 146.282 756.894 146.745 756.332 147.472C755.703 148.365 755.207 148.828 753.917 148.167C752.891 147.638 751.535 147.671 750.311 147.737C749.88 147.77 749.186 148.663 749.219 149.092C749.252 149.588 749.947 150.216 750.509 150.382C751.501 150.712 752.593 150.712 753.619 150.878C755.802 151.208 757.026 152.332 757.258 154.283C757.523 156.597 756.464 158.58 754.479 159.275C751.634 160.266 748.888 159.936 746.341 158.316C745.216 157.622 745.249 157.324 746.076 156.365C746.473 156.002 746.738 155.539 747.035 155.109Z" fill="#08266E"/>
<path d="M534.972 190.284C535.17 190.053 535.336 189.854 535.468 189.656C536.229 188.598 536.891 188.135 538.247 189.094C539.504 190.02 541.158 190.516 542.713 189.656C543.209 189.392 543.805 188.631 543.739 188.168C543.706 187.706 542.978 187.077 542.448 186.912C541.257 186.549 540 186.482 538.776 186.185C536.857 185.755 535.865 184.631 535.733 182.813C535.567 180.565 536.46 178.813 538.214 178.152C540.86 177.193 543.441 177.391 545.856 178.978C546.385 179.342 546.518 179.705 546.088 180.267C545.062 181.656 545.128 181.524 543.573 180.962C542.448 180.565 541.158 180.532 539.934 180.598C539.537 180.631 538.942 181.457 538.909 181.953C538.876 182.35 539.471 182.945 539.901 183.21C540.298 183.474 540.894 183.408 541.423 183.507C542.382 183.672 543.342 183.805 544.268 184.069C545.856 184.532 546.782 185.59 546.915 187.309C547.08 189.226 546.551 190.813 544.864 191.904C542.515 193.392 536.924 193.127 534.972 190.284Z" fill="#08266E"/>
<path d="M703.662 190.251C704.125 189.722 704.522 189.094 705.085 188.697C705.316 188.532 705.945 188.631 706.276 188.829C707.897 189.722 709.518 190.482 711.437 189.689C712.165 189.391 712.694 188.829 712.429 188.135C712.231 187.606 711.602 187.077 711.073 186.912C709.915 186.548 708.691 186.482 707.5 186.218C705.581 185.788 704.588 184.73 704.39 183.011C704.158 180.829 704.952 179.011 706.54 178.251C708.691 177.226 713.124 177.325 715.076 179.672C714.712 180.201 714.381 180.829 713.885 181.259C713.653 181.457 713.058 181.391 712.661 181.292C711.635 181.028 710.61 180.532 709.584 180.432C708.36 180.3 707.5 180.994 707.467 181.92C707.401 182.846 708.161 183.408 709.485 183.573C710.61 183.705 711.734 183.838 712.826 184.102C714.48 184.532 715.44 185.656 715.572 187.375C715.737 189.259 715.208 190.78 713.554 191.871C711.271 193.425 705.482 193.094 703.662 190.251Z" fill="#08266E"/>
<path d="M566.964 145.159C567.195 146.812 566.997 148.134 565.806 149.391C563.986 151.275 562.431 153.424 560.777 155.441C560.546 155.738 560.314 156.069 559.917 156.598C561.274 156.598 562.398 156.598 563.49 156.598C564.615 156.598 565.74 156.598 566.931 156.598C566.931 157.556 566.931 158.383 566.931 159.308C563.358 159.308 559.752 159.308 556.146 159.308C555.947 157.854 555.98 156.664 557.039 155.474C558.991 153.325 560.744 151.011 562.564 148.73C562.729 148.531 562.862 148.3 563.192 147.87C560.81 147.87 558.627 147.87 556.41 147.87C556.41 146.878 556.41 146.052 556.41 145.159C559.95 145.159 563.424 145.159 566.964 145.159Z" fill="#08266E"/>
<path d="M531.169 172.069C531.169 173.027 531.169 173.887 531.169 174.713C530.242 174.945 529.316 175.044 528.588 175.474C528.257 175.672 528.158 176.631 528.29 177.16C528.654 178.945 530.242 177.325 531.102 178.383C531.102 178.78 531.102 179.507 531.102 180.399C530.639 180.432 530.11 180.499 529.614 180.466C528.555 180.366 528.191 180.73 528.224 181.821C528.29 184.862 528.257 187.904 528.257 190.945C528.257 191.375 528.257 191.805 528.257 192.367C527.199 192.367 526.239 192.367 525.147 192.367C525.114 191.97 525.081 191.54 525.081 191.111C525.081 188.036 525.081 184.962 525.081 181.854C525.081 180.994 525.081 180.201 523.791 180.499C523.791 179.606 523.791 178.879 523.791 178.052C524.916 178.151 525.081 177.523 525.081 176.565C525.147 172.994 527.331 171.407 531.169 172.069Z" fill="#08266E"/>
<path d="M648.05 147.803C647.487 147.704 647.124 147.638 646.727 147.539C646.727 146.778 646.727 146.018 646.727 145.258C646.826 145.324 646.958 145.39 647.057 145.456C647.355 144.993 647.918 144.564 647.951 144.068C648.215 139.935 649.77 138.613 654.071 139.109C654.071 139.968 654.071 140.828 654.071 141.82C653.575 141.853 653.045 141.754 652.648 141.952C652.119 142.249 651.391 142.679 651.292 143.175C650.862 144.828 651.127 145.092 652.814 145.092C653.211 145.092 653.608 145.092 654.104 145.092C654.104 145.919 654.104 146.679 654.104 147.572C653.674 147.605 653.244 147.638 652.814 147.638C651.193 147.671 651.193 147.638 651.193 149.291C651.193 152.167 651.193 155.043 651.193 157.919C651.193 158.349 651.193 158.812 651.193 159.308C650.134 159.308 649.175 159.308 648.05 159.308C648.05 155.539 648.05 151.704 648.05 147.803Z" fill="#08266E"/>
<path d="M802.383 145.192C801.853 146.779 801.324 148.3 800.795 149.82C799.769 152.763 798.677 155.672 797.685 158.614C797.387 159.507 796.825 159.441 796.196 159.374C795.468 159.308 794.608 159.804 794.211 158.614C792.689 154.151 791.068 149.688 789.414 145.093C790.44 145.093 791.366 145.027 792.259 145.126C792.557 145.159 792.954 145.622 793.053 145.952C793.946 148.564 794.807 151.176 795.667 153.787C795.733 154.019 795.832 154.217 796.064 154.68C796.891 152.134 797.652 149.886 798.347 147.572C799.174 144.961 799.141 144.961 801.853 145.093C801.986 145.126 802.118 145.159 802.383 145.192Z" fill="#08266E"/>
<path d="M375.115 178.482C375.115 178.879 375.115 179.606 375.115 180.532C374.486 180.532 373.891 180.565 373.328 180.532C372.468 180.466 372.203 180.83 372.203 181.656C372.236 184.929 372.203 188.202 372.203 191.508C372.203 191.772 372.17 192.07 372.137 192.433C371.145 192.433 370.218 192.433 369.06 192.433C369.06 191.838 369.06 191.243 369.06 190.648C369.06 187.805 369.06 184.995 369.06 182.152C369.06 181.193 369.127 180.268 367.671 180.499C367.671 179.64 367.671 178.945 367.671 178.152C368.399 178.02 369.16 177.954 369.06 176.83C368.763 173.193 371.343 171.441 375.048 172.102C375.048 172.995 375.048 173.92 375.048 174.747C374.188 174.945 373.262 175.044 372.534 175.474C372.203 175.672 372.17 176.532 372.236 177.061C372.501 179.011 374.188 177.292 375.115 178.482Z" fill="#08266E"/>
<path d="M586.847 145.126C588.071 145.324 588.137 144.63 588.104 143.738C588.071 142.713 588.104 141.655 588.104 140.729C588.335 140.63 588.369 140.597 588.402 140.597C591.28 140.266 591.28 140.266 591.28 143.109C591.28 143.242 591.28 143.341 591.28 143.473C591.114 144.663 591.445 145.357 592.835 145.126C593.033 145.093 593.232 145.159 593.496 145.159C593.496 145.952 593.496 146.713 593.496 147.572C592.835 147.638 592.173 147.672 591.28 147.738C591.28 148.696 591.28 149.655 591.28 150.614C591.28 151.837 591.28 153.06 591.28 154.25C591.28 156.498 591.28 156.498 593.563 156.895C593.563 157.391 593.563 157.92 593.563 158.416C593.563 158.779 593.53 159.11 593.496 159.705C592.305 159.606 591.181 159.606 590.089 159.341C588.931 159.044 588.302 158.052 588.236 156.895C588.137 154.713 588.137 152.531 588.104 150.349C588.104 149.556 588.104 148.729 588.104 147.969C586.582 147.341 586.582 147.341 586.847 145.126Z" fill="#08266E"/>
<path d="M827.726 156.894C827.726 157.754 827.726 158.614 827.726 159.738C826.469 159.605 825.278 159.671 824.219 159.308C822.697 158.812 822.366 157.39 822.333 155.936C822.3 153.655 822.333 151.407 822.333 149.126C822.333 148.696 822.333 148.233 822.333 147.836C820.712 147.407 820.712 147.407 821.043 145.159C822.201 145.291 822.499 144.663 822.333 143.638C822.3 143.439 822.333 143.241 822.333 143.043C822.333 140.233 822.333 140.233 825.476 140.629C825.476 141.555 825.476 142.514 825.476 143.44C825.476 145.059 825.476 145.059 827.031 145.092C827.23 145.092 827.428 145.125 827.726 145.125C827.726 145.919 827.726 146.679 827.726 147.44C827.627 147.506 827.56 147.572 827.494 147.572C825.476 147.836 825.476 147.836 825.476 149.886C825.476 151.308 825.476 152.729 825.476 154.151C825.443 156.465 825.476 156.498 827.726 156.894Z" fill="#08266E"/>
<path d="M672.433 192.697C671.738 192.697 671.176 192.73 670.613 192.697C668.397 192.598 667.172 191.408 667.106 189.193C667.04 186.846 667.073 184.499 667.073 182.152C667.073 181.193 667.172 180.234 665.717 180.499C665.717 179.639 665.717 178.945 665.717 178.118C666.974 178.151 667.206 177.391 667.106 176.333C667.04 175.507 667.106 174.647 667.106 173.688C668.165 173.688 669.157 173.688 670.249 173.688C670.249 174.68 670.315 175.639 670.249 176.598C670.183 177.622 670.448 178.151 671.573 178.019C671.837 177.986 672.135 178.052 672.466 178.085C672.466 178.879 672.466 179.639 672.466 180.366C670.249 180.829 670.249 180.829 670.249 183.143C670.249 184.565 670.249 185.986 670.249 187.408C670.249 189.59 670.249 189.59 672.433 189.788C672.433 190.648 672.433 191.606 672.433 192.697Z" fill="#08266E"/>
<path d="M677.824 171.97C678.849 171.97 679.776 171.97 680.801 171.97C680.834 172.433 680.867 172.862 680.867 173.292C680.867 178.02 680.867 182.78 680.867 187.507C680.867 189.458 680.934 189.524 683.018 189.788C683.018 190.549 683.051 191.342 682.985 192.136C682.952 192.334 682.621 192.698 682.389 192.698C679.445 192.863 677.758 192.036 677.691 189.061C677.592 183.54 677.658 178.053 677.658 172.532C677.691 172.366 677.758 172.201 677.824 171.97Z" fill="#08266E"/>
<path d="M458.451 189.755C458.451 190.516 458.451 191.177 458.451 191.871C458.451 192.102 458.384 192.334 458.384 192.532C454.745 193.16 453.157 191.838 453.157 188.268C453.157 183.243 453.157 178.218 453.157 173.193C453.157 172.796 453.157 172.399 453.157 171.937C454.216 171.937 455.175 171.937 456.3 171.937C456.3 172.432 456.3 172.928 456.3 173.391C456.3 178.052 456.3 182.714 456.3 187.375C456.267 189.425 456.366 189.524 458.451 189.755Z" fill="#08266E"/>
<path d="M454.381 156.895C454.414 156.928 454.447 156.961 454.447 156.994C454.281 157.853 455.108 159.077 453.984 159.573C452.594 160.168 450.212 159.275 449.683 158.118C449.418 157.523 449.22 156.796 449.22 156.134C449.187 150.647 449.187 145.192 449.187 139.704C449.187 139.506 449.22 139.307 449.253 139.043C450.245 139.043 451.205 139.043 452.296 139.043C452.296 139.506 452.296 139.936 452.296 140.398C452.296 145.027 452.296 149.655 452.296 154.25C452.296 156.498 452.296 156.498 454.381 156.895Z" fill="#08266E"/>
<path d="M780.648 145.159C780.714 145.49 780.748 145.82 780.847 146.217C781.045 146.085 781.178 146.052 781.31 145.952C782.832 144.564 784.651 144.299 786.438 145.159C787.496 145.688 787.53 145.985 786.901 146.977C786.272 147.936 785.743 148.465 784.387 147.837C782.534 147.01 780.979 148.233 780.847 150.382C780.714 152.729 780.781 155.077 780.748 157.424C780.748 158.019 780.748 158.614 780.748 159.308C779.656 159.308 778.663 159.308 777.638 159.308C777.638 154.581 777.638 149.919 777.638 145.126C778.597 145.159 779.557 145.159 780.648 145.159Z" fill="#08266E"/>
<path d="M423.216 159.342C422.058 159.342 421.132 159.342 420.106 159.342C420.106 154.581 420.106 149.92 420.106 145.159C421.132 145.159 422.058 145.159 423.084 145.159C423.183 145.49 423.249 145.821 423.382 146.217C425.036 144.73 426.756 144.135 428.774 145.126C429.27 145.391 430.164 145.523 429.767 146.449C429.171 147.837 428.311 148.399 427.385 148.002C425.168 147.077 423.514 147.969 423.349 150.35C423.183 152.697 423.249 155.044 423.216 157.391C423.216 158.019 423.216 158.614 423.216 159.342Z" fill="#08266E"/>
<path d="M488.721 159.374C487.596 159.374 486.67 159.374 485.645 159.374C485.645 154.646 485.645 149.952 485.645 145.158C486.637 145.158 487.596 145.158 488.589 145.158C488.688 145.489 488.754 145.82 488.887 146.249C490.541 144.762 492.261 144.167 494.279 145.125C494.775 145.39 495.669 145.555 495.272 146.448C494.643 147.869 493.816 148.398 492.89 148.002C490.706 147.076 489.052 147.969 488.887 150.382C488.721 152.762 488.787 155.175 488.754 157.556C488.688 158.118 488.721 158.68 488.721 159.374Z" fill="#08266E"/>
<path d="M423.217 192.368C423.217 187.607 423.217 182.847 423.217 178.02C424.242 178.02 425.202 178.02 426.194 178.02C426.26 178.417 426.294 178.748 426.36 179.31C426.757 178.913 427.054 178.582 427.418 178.318C428.543 177.491 431.091 177.458 432.248 178.252C432.877 178.681 433.109 179.177 432.513 179.839C432.083 180.301 431.686 180.83 431.322 181.293C427.915 179.805 426.327 180.83 426.294 184.467C426.26 186.979 426.294 189.492 426.26 192.004C426.26 192.07 426.227 192.17 426.194 192.368C425.235 192.368 424.275 192.368 423.217 192.368Z" fill="#08266E"/>
<path d="M653.079 177.986C654.171 177.986 655.064 177.986 656.057 177.986C656.123 178.416 656.156 178.78 656.255 179.375C657.38 177.953 658.736 177.49 660.291 177.722C660.92 177.821 661.548 177.986 662.111 178.284C662.772 178.647 663.004 179.209 662.409 179.871C661.978 180.333 661.581 180.862 661.151 181.391C660.821 181.226 660.589 181.061 660.357 180.961C658.075 180.003 656.354 181.061 656.222 183.672C656.09 186.152 656.189 188.598 656.156 191.078C656.156 191.507 656.156 191.937 656.156 192.433C655.064 192.433 654.105 192.433 653.079 192.433C653.079 187.606 653.079 182.846 653.079 177.986Z" fill="#08266E"/>
<path d="M674.318 145.126C675.344 145.126 676.27 145.126 677.263 145.126C677.329 145.489 677.362 145.82 677.461 146.25C679.115 144.828 680.836 144.134 682.854 145.126C683.383 145.39 684.21 145.556 683.879 146.481C683.383 147.771 682.391 148.432 681.497 148.035C679.38 147.142 677.792 147.903 677.527 150.151C677.296 151.936 677.395 153.787 677.362 155.605C677.329 156.829 677.362 158.019 677.362 159.341C676.336 159.341 675.377 159.341 674.318 159.341C674.318 154.647 674.318 149.952 674.318 145.126Z" fill="#08266E"/>
<path d="M601.171 159.375C600.145 159.375 599.219 159.375 598.193 159.375C598.193 154.647 598.193 149.953 598.193 145.159C599.186 145.159 600.112 145.159 601.171 145.159C601.171 149.887 601.171 154.581 601.171 159.375Z" fill="#08266E"/>
<path d="M548.237 145.159C549.263 145.159 550.189 145.159 551.248 145.159C551.248 149.887 551.248 154.581 551.248 159.341C550.222 159.341 549.296 159.341 548.237 159.341C548.237 154.647 548.237 149.92 548.237 145.159Z" fill="#08266E"/>
<path d="M731.817 192.4C730.792 192.4 729.832 192.4 728.84 192.4C728.84 187.607 728.84 182.913 728.84 178.086C729.799 178.086 730.792 178.086 731.817 178.086C731.817 182.846 731.817 187.607 731.817 192.4Z" fill="#08266E"/>
<path d="M835.565 145.192C835.565 149.953 835.565 154.614 835.565 159.375C834.54 159.375 833.613 159.375 832.555 159.375C832.555 154.647 832.555 149.986 832.555 145.192C833.514 145.192 834.474 145.192 835.565 145.192Z" fill="#08266E"/>
<path d="M551.448 139.076C551.315 140.167 551.514 141.357 551.018 142.051C550.72 142.481 548.9 142.481 548.602 142.085C548.073 141.357 548.205 140.167 548.04 139.076C549.231 139.076 550.19 139.076 551.448 139.076Z" fill="#08266E"/>
<path d="M597.929 139.043C599.219 139.043 600.112 139.043 601.303 139.043C601.204 140.101 601.402 141.258 600.939 142.018C600.675 142.415 598.822 142.481 598.524 142.084C597.995 141.357 598.094 140.167 597.929 139.043Z" fill="#08266E"/>
<path d="M728.873 171.97C729.899 171.97 730.825 171.97 731.817 171.97C731.817 172.995 731.817 173.92 731.817 174.978C730.858 174.978 729.899 174.978 728.873 174.978C728.873 173.953 728.873 172.961 728.873 171.97Z" fill="#08266E"/>
<path d="M832.555 142.118C832.555 141.093 832.555 140.134 832.555 139.076C833.547 139.076 834.473 139.076 835.532 139.076C835.532 140.035 835.532 141.027 835.532 142.118C834.573 142.118 833.613 142.118 832.555 142.118Z" fill="#08266E"/>
<path d="M129.191 190.14C124.201 190.09 119.201 190.53 114.221 189.99C112.491 189.8 110.751 189.51 109.101 188.87C106.491 187.85 104.851 185.87 103.771 183.38C102.061 179.45 101.431 175.26 100.901 171.06C100.111 164.8 99.4907 158.53 98.7307 152.27C98.2207 148.04 96.7807 144.32 93.3607 141.43C89.3207 138.01 87.0807 133.39 85.3407 128.48C84.3507 125.7 83.1107 123.03 81.2807 120.66C80.4407 119.57 79.4607 118.63 78.3607 117.88C73.2807 114.44 70.9907 109.42 69.9007 103.61C68.9907 98.7501 68.5607 93.8101 67.2907 89.0101C66.1507 84.7101 64.0107 81.1701 60.2607 78.5701C57.0907 76.3701 55.4607 73.0101 54.3607 69.4001C53.0007 64.9301 51.5707 60.5001 48.7907 56.6501C47.6607 55.0901 46.2307 53.8401 44.7307 52.6501C41.4507 50.0401 38.6607 47.0201 37.0107 43.1001C34.9607 38.2301 35.6707 33.6301 38.7107 29.4001C41.9107 24.9401 46.3407 22.2401 51.6507 21.1501C54.8407 20.5001 58.1107 20.5501 61.0707 22.2401C64.7807 24.3701 66.3007 27.8601 66.8107 31.9101C67.1707 34.7101 67.0907 37.5201 66.5007 40.2501C65.6407 44.2001 66.1107 48.0401 67.0907 51.8501C68.9607 59.0601 71.8207 65.8801 75.5707 72.3201C76.0907 73.2101 76.7307 74.0301 77.3707 74.8401C77.5307 75.0401 77.7607 75.4501 78.1407 75.2501C78.4207 75.1001 78.3507 74.7501 78.3307 74.4801C78.2607 73.1101 77.8507 71.8101 77.3807 70.5401C76.5407 68.2601 75.7807 65.9401 74.7907 63.7201C72.4107 58.4101 72.3407 52.8601 73.0907 47.2701C73.9507 40.8401 76.5107 35.1801 81.4707 30.8201C85.8907 26.9401 90.9607 25.2001 96.9307 25.7001C105.821 26.4401 108.471 35.9001 105.201 42.1201C103.221 45.8901 100.001 48.1101 96.1207 49.5401C95.2607 49.8601 94.3907 50.1301 93.5707 50.5201C92.1607 51.2001 91.0807 52.2301 90.6607 53.8001C89.0407 59.7801 88.6007 65.8201 89.8507 71.9301C90.1207 73.2601 90.5507 74.5401 91.1907 75.7601C91.8707 77.0501 92.9707 77.5901 94.3407 77.5101C97.8907 77.3101 100.351 75.6301 100.701 71.7401C100.951 69.0001 100.961 66.2301 101.551 63.5301C101.721 62.7501 101.871 61.9501 102.181 61.2301C103.701 57.6901 105.801 57.0901 109.131 58.0701C114.301 59.5901 117.831 63.0601 119.381 68.2901C120.311 71.4401 119.741 74.5401 118.631 77.5601C117.111 81.7101 114.661 85.3501 112.171 88.9501C109.391 92.9701 106.251 96.7601 104.121 101.2C103.211 103.1 102.641 105.05 103.221 107.21C103.481 108.16 103.971 108.42 104.841 108.34C105.641 108.27 106.401 108.07 107.161 107.81C109.431 107.03 110.941 107.72 111.881 109.91C112.661 111.72 113.381 111.83 114.691 110.37C116.101 108.8 117.061 106.97 117.811 105.03C119.011 101.93 120.701 99.1701 123.211 96.9801C129.271 91.7101 136.291 93.6701 140.111 99.9701C144.681 107.51 143.431 114.96 138.681 121.99C135.361 126.9 130.781 130.25 125.301 132.47C122.851 133.46 120.491 134.7 118.501 136.53C115.021 139.73 113.841 143.67 114.771 148.24C115.261 150.63 116.871 151.31 119.061 150.23C120.831 149.35 121.951 147.78 123.321 146.46C124.671 145.16 126.191 144.12 127.971 143.46C130.921 142.36 133.521 144.26 134.751 146.47C136.731 150.03 137.081 153.89 136.711 157.85C136.191 163.44 134.031 168.3 130.011 172.28C129.501 172.78 129.051 173.34 128.591 173.89C128.341 174.19 127.981 174.54 128.221 174.95C128.481 175.39 128.931 175.09 129.311 175.05C131.131 174.84 132.851 174.04 134.721 174.18C137.241 174.37 139.271 175.34 140.331 177.76C141.241 179.85 141.721 182 141.011 184.28C140.691 185.31 140.871 186.23 141.621 187.05C142.191 187.66 142.711 188.32 143.221 188.97C143.461 189.28 143.801 189.65 143.581 190.04C143.381 190.39 142.921 190.2 142.581 190.2C138.501 190.18 134.431 190.15 130.351 190.12C129.991 190.14 129.591 190.14 129.191 190.14Z" fill="#EE3E52"/>
<path d="M222.41 139.68C221.31 136.78 220.23 134.27 219.49 131.63C219.21 130.63 218.96 129.62 218.81 128.6C218.5 126.53 219.43 125.52 221.53 125.54C221.8 125.54 222.07 125.54 222.48 125.54C221.41 123.56 220.33 121.72 219.56 119.72C218.9 118 218.34 116.26 218.17 114.41C217.93 111.67 219.09 110.15 221.8 109.69C222.55 109.56 222.36 109.24 222.15 108.81C221 106.52 220.06 104.16 219.47 101.67C219.13 100.23 218.9 98.77 218.99 97.28C219.09 95.66 219.65 94.33 221.37 93.82C222.02 93.63 221.82 93.26 221.64 92.82C220.52 90.13 219.43 87.43 219 84.53C218.54 81.47 219.67 79.13 222.2 77.89C219.53 75.56 217.76 72.8 218.06 69.09C218.08 68.88 218.1 68.66 217.9 68.56C217.54 68.39 217.33 68.66 217.08 68.87C215.1 70.59 213.31 72.5 211.65 74.53C204.83 82.87 199.91 92.28 195.94 102.23C195.34 103.74 194.46 104.37 193.2 104.2C191.9 104.02 191.19 103.23 191.03 101.61C190.47 96.13 191.22 90.78 192.7 85.51C195 77.29 198.98 69.89 203.74 62.86C203.94 62.56 204.45 62.25 204.13 61.86C203.86 61.54 203.37 61.75 203 61.89C199 63.39 194.96 64.8 191.02 66.45C186.46 68.35 181.87 70.21 177.47 72.47C176.43 73 175.42 73.16 174.47 72.38C173.46 71.55 173.3 70.41 173.64 69.23C174.21 67.28 174.91 65.37 175.76 63.52C178.68 57.14 182.93 51.93 189.18 48.57C191.88 47.12 194.79 46.17 197.84 45.71C198.12 45.67 198.39 45.61 198.66 45.54C198.9 45.48 199.12 45.36 199.11 45.08C199.11 44.83 198.87 44.79 198.69 44.72C196.96 44.03 195.25 43.3 193.51 42.65C189.73 41.24 185.94 39.84 182.13 38.49C180.45 37.89 178.75 37.35 177.02 36.9C175.73 36.56 175.06 35.75 174.81 34.53C174.57 33.35 175.12 32.25 176.2 31.61C181.15 28.66 186.62 27.64 192.27 27.31C196.11 27.08 199.93 27.48 203.75 27.82C204.05 27.85 204.42 28.02 204.61 27.64C204.76 27.35 204.48 27.12 204.34 26.89C201.98 23.11 199.54 19.39 196.41 16.19C195.5 15.26 195.22 14.16 195.64 12.89C196.03 11.68 196.96 11.26 198.1 11.16C205.27 10.5 211.33 12.63 215.98 18.3C216.34 18.74 216.6 19.59 217.2 19.47C217.83 19.34 217.68 18.47 217.81 17.91C219.08 12.77 220.3 7.60996 222.71 2.82996C223.56 1.13996 224.89 0.099962 226.71 0.069962C228.59 0.039962 229.97 1.08996 230.83 2.82996C233.24 7.64996 234.51 12.84 235.74 18.04C235.86 18.56 235.72 19.37 236.31 19.5C236.89 19.63 237.12 18.84 237.46 18.43C241.93 12.87 247.83 10.69 254.81 11.08C256.09 11.15 257.39 11.36 257.88 12.87C258.36 14.33 257.87 15.46 256.83 16.53C253.8 19.66 251.44 23.29 249.16 26.97C249.03 27.19 248.74 27.43 248.97 27.72C249.17 27.96 249.48 27.85 249.76 27.83C253.38 27.53 257 27.16 260.64 27.29C265.7 27.47 270.59 28.42 275.24 30.44C276.07 30.8 276.86 31.27 277.61 31.79C278.59 32.46 278.94 33.46 278.71 34.62C278.48 35.75 277.85 36.56 276.68 36.87C273.23 37.78 269.9 39.07 266.55 40.27C262.9 41.58 259.29 42.98 255.66 44.34C255.59 44.37 255.49 44.37 255.44 44.42C255.14 44.71 254.42 44.61 254.47 45.14C254.52 45.64 255.14 45.63 255.56 45.69C258.42 46.09 261.12 47 263.69 48.26C269.54 51.12 273.69 55.69 276.73 61.35C277.98 63.68 278.96 66.11 279.74 68.63C279.9 69.16 280.07 69.72 280.07 70.26C280.1 72.35 278.15 73.49 276.23 72.54C272.12 70.51 267.9 68.72 263.65 66.98C259.36 65.22 255.04 63.58 250.7 61.96C250.29 61.81 249.77 61.52 249.47 61.86C249.1 62.28 249.67 62.63 249.89 62.96C254.71 70.1 258.71 77.63 260.99 85.99C262.37 91.04 262.99 96.16 262.56 101.39C262.37 103.64 260.91 104.73 259.06 104C258.38 103.73 258 103.23 257.74 102.57C254.92 95.45 251.61 88.57 247.43 82.14C244.35 77.4 240.91 72.95 236.74 69.1C236.46 68.84 236.16 68.3 235.64 68.59C235.26 68.8 235.5 69.25 235.51 69.58C235.63 73.1 233.87 75.69 231.36 77.91C233.7 79.08 234.88 81.28 234.62 83.86C234.3 87 233.14 89.89 231.93 92.75C231.66 93.39 231.63 93.67 232.4 93.93C233.91 94.43 234.46 95.69 234.54 97.18C234.7 100.33 233.78 103.25 232.63 106.12C232.26 107.04 231.85 107.95 231.39 108.83C231.09 109.41 231.1 109.64 231.83 109.72C234.28 109.99 235.68 111.87 235.39 114.41C235.1 116.93 234.26 119.29 233.17 121.57C232.54 122.89 231.87 124.18 230.97 125.56C231.67 125.56 232.17 125.54 232.66 125.56C233.92 125.63 234.78 126.54 234.76 127.84C234.72 130.11 233.89 132.2 233.17 134.31C232.59 135.99 231.91 137.65 231.22 139.47C231.93 139.22 232.49 138.98 233.08 138.84C233.93 138.64 234.52 138.99 234.61 139.88C235.02 143.9 232.84 149.37 229.73 151.22C227.33 152.65 224.05 152.13 222.26 149.95C220.06 147.27 218.92 144.19 218.9 140.71C218.89 138.91 219.74 138.33 221.39 139.08C221.61 139.19 221.84 139.35 222.41 139.68Z" fill="#08266E"/>
<path d="M67.671 190.23C58.561 190.23 49.441 190.23 40.331 190.23C38.821 190.23 37.731 189.5 37.731 188.04C37.721 184.56 35.961 181.92 33.971 179.33C30.841 175.26 27.501 171.36 24.111 167.5C21.031 164.01 18.411 160.21 17.331 155.58C16.491 151.99 17.3311 148.89 20.0911 146.34C22.5011 144.11 25.731 144.2 28.511 146.53C32.701 150.03 35.381 154.63 38.071 159.24C39.511 161.7 40.551 164.42 42.771 166.39C44.1711 167.63 45.071 167.53 45.691 165.76C46.711 162.85 46.9211 159.81 46.5911 156.77C45.9611 150.96 43.871 145.73 39.851 141.38C37.091 138.4 33.851 136.46 29.581 136.77C27.791 136.9 26.041 136.77 24.371 135.87C20.551 133.81 20.881 129.51 22.731 127.03C25.971 122.69 31.121 122.27 35.191 125.88C38.561 128.86 41.111 132.52 43.971 135.93C45.271 137.48 46.511 139.1 48.371 140.06C50.511 141.16 52.811 139.71 52.741 137.31C52.691 135.65 51.921 134.24 51.101 132.87C49.431 130.09 47.371 127.59 45.101 125.31C42.231 122.43 40.551 119.05 39.951 115.04C39.501 112.02 38.691 109.1 36.321 106.9C33.071 103.89 29.2611 102.91 24.9611 103.8C23.5711 104.09 22.1611 104.44 20.8411 104.96C17.7511 106.18 15.3811 104.85 13.2711 102.85C7.28105 97.1904 5.59102 89.5304 8.55102 81.8204C9.05102 80.5104 9.71102 79.2804 10.611 78.2004C13.461 74.7504 16.491 74.6504 20.121 76.7704C22.751 78.3004 25.451 78.8204 28.311 77.5904C30.351 76.7204 30.841 74.4904 29.511 72.7404C27.671 70.3204 25.051 69.2504 22.261 68.5004C19.091 67.6504 15.7811 67.6704 12.5911 67.0104C3.18106 65.0804 -1.73894 58.3604 1.09106 48.5204C1.83106 45.9504 4.11105 44.8504 6.33105 43.8104C9.89105 42.1404 13.6111 41.9604 17.2711 43.1404C21.6711 44.5604 25.351 47.0604 27.421 51.4204C29.741 56.3004 31.401 61.4304 32.871 66.6004C34.111 70.9404 36.171 74.5804 39.951 77.1504C42.251 78.7104 43.0611 80.9804 43.021 83.6504C43.001 85.2104 42.991 86.7604 42.991 88.3204C42.991 92.6804 44.201 94.1904 48.481 95.0404C49.971 95.3304 51.001 96.1204 51.731 97.4004C55.271 103.62 56.471 110.37 56.311 117.44C56.241 120.59 55.961 123.74 56.441 126.88C56.851 129.53 57.951 131.84 59.881 133.69C61.681 135.43 63.671 136.9 66.071 137.81C67.551 138.37 68.421 139.67 69.011 141.12C70.051 143.65 70.261 146.32 70.071 149C69.651 154.88 71.7111 158.67 77.021 161.43C78.3511 162.12 79.7311 162.73 81.0911 163.38C84.9811 165.23 87.931 168.24 90.751 171.38C94.071 175.09 96.5111 179.3 97.4011 184.28C97.5911 185.34 97.681 186.42 97.701 187.49C97.741 189.26 96.751 190.21 94.991 190.21C85.901 190.23 76.781 190.23 67.671 190.23Z" fill="#FAAC38"/>
<path d="M296.61 178.87C294.2 176.75 292.08 174.78 290.24 172.54C288.02 169.86 286.07 167.01 285.1 163.6C283.86 159.25 285.08 155.64 288.45 152.75C291.22 150.37 294.47 148.81 298.1 148.46C301.94 148.09 305.21 149.62 307.72 152.51C311.64 157.02 313.13 162.34 312.16 168.19C311.34 173.11 313.35 176.59 317.06 179.44C318.65 180.66 320.57 181.23 322.35 182.09C324.21 182.99 326.03 183.96 327.33 185.66C328.06 186.61 328.3 187.61 327.75 188.67C327.23 189.68 326.41 190.23 325.17 190.23C307.95 190.21 290.72 190.34 273.5 190.13C269.34 190.08 265.44 188.34 262.4 185.27C260.5 183.34 259.73 180.9 260.14 178.23C260.82 173.75 262.83 169.93 266.34 167C268.72 165.01 271.44 164.98 274.2 166.06C278.22 167.62 281.45 170.4 284.8 173C287.33 174.96 289.81 177.04 292.83 178.24C293.91 178.67 295.05 179.04 296.61 178.87Z" fill="#1FC1E3"/>
<path d="M274.68 109.62C274.71 107.78 274.91 105.96 275.23 104.15C275.98 99.9497 275.35 95.9097 273.84 91.9497C272.66 88.8597 271.34 85.8297 269.66 82.9797C269.24 82.2697 269.03 81.5797 269.55 80.8697C270.07 80.1597 270.86 79.9897 271.68 80.0797C277.43 80.7097 283.05 81.9397 288.33 84.3497C296 87.8597 302.05 93.1597 305.84 100.81C307.21 103.58 307.45 106.62 307.87 109.62C308.64 115.11 309.42 120.6 311.43 125.81C311.67 126.44 311.98 127.05 312.3 127.64C312.61 128.2 312.81 128.73 312.4 129.31C311.96 129.93 311.31 129.96 310.67 129.78C307.96 129.02 305.59 127.63 303.39 125.89C299.92 123.15 298.51 119.09 296.53 115.39C295.16 112.83 293.86 110.23 292.09 107.9C291.43 107.03 290.69 106.28 289.69 105.82C289.23 105.61 288.73 105.52 288.34 105.87C287.95 106.22 288.33 106.61 288.44 106.96C289.23 109.36 289.87 111.77 289.69 114.33C289.39 118.52 287.13 119.9 283.63 120.2C278.51 120.65 275.28 117.7 274.78 112.25C274.72 111.38 274.72 110.5 274.68 109.62Z" fill="#20C1E3"/>
<path d="M241.081 177.66C242.821 178.94 244.141 180.43 245.961 181.3C247.491 182.03 248.431 181.74 249.191 180.25C249.401 179.83 249.611 179.39 249.771 178.94C250.441 177.07 252.221 176.98 253.661 177.99C257.041 180.34 257.271 183.66 254.351 186.54C252.771 188.1 250.941 189.24 248.881 190C247.051 190.67 245.351 190.06 243.691 189.32C241.421 188.31 239.551 186.71 237.661 185.15C237.391 184.93 237.131 184.7 236.781 184.41C236.401 186.38 235.621 187.97 233.721 188.56C230.911 189.44 228.361 187.62 227.991 184.66C227.731 182.59 228.711 181.02 229.961 179.6C230.661 178.81 230.401 178.47 229.761 177.86C221.801 170.31 213.841 162.76 205.621 155.5C200.281 150.79 194.841 146.2 188.861 142.3C183.371 138.72 177.521 135.9 171.371 133.62C167.251 132.09 163.111 130.62 158.941 129.24C158.311 129.03 157.601 128.76 157.691 127.88C157.781 127.01 158.491 126.9 159.151 126.74C163.961 125.59 168.711 126.09 173.471 127.17C178.701 128.36 183.511 130.57 188.121 133.2C192.561 135.73 196.551 138.92 200.511 142.14C209.321 149.31 217.911 156.75 226.461 164.22C229.291 166.69 231.981 169.33 234.701 171.94C235.301 172.52 235.531 172.38 235.941 171.77C236.581 170.82 237.271 169.88 238.061 169.04C239.181 167.86 240.701 167.66 242.161 168.04C243.831 168.47 244.791 169.79 245.211 171.41C245.961 174.29 244.241 176.98 241.081 177.66Z" fill="#08266E"/>
<path d="M153.63 44.0898C159.16 44.2698 164.29 44.8198 169.27 46.3998C170.32 46.7298 170.8 47.3698 170.86 48.3598C170.93 49.3598 170.47 50.0998 169.53 50.5398C167.13 51.6598 164.77 52.8498 162.55 54.3198C158.41 57.0598 155.9 60.8298 154.87 65.6398C154.55 67.1198 154.22 68.6098 153.69 70.0198C151.8 75.0998 147.72 77.6198 142.77 79.0398C139.17 80.0798 135.85 79.3698 133.07 76.9298C130.27 74.4598 128.86 71.1698 128.45 67.4898C127.8 61.6198 129.93 56.6098 133.53 52.1598C136.97 47.8998 141.6 45.6998 146.93 44.6998C149.29 44.2598 151.63 44.3198 153.63 44.0898Z" fill="#EE3F53"/>
<path d="M164.16 111.33C164.16 109.23 164.67 107.22 165.42 105.27C165.71 104.51 165.45 104.39 164.78 104.39C163.99 104.39 163.44 104.8 162.93 105.33C160.87 107.49 159.62 110.18 158.19 112.75C156.79 115.28 155.82 118.06 153.97 120.35C151.65 123.23 148.62 125.01 145.15 126.13C144.63 126.3 144.22 126.19 143.86 125.78C143.54 125.42 143.38 124.99 143.6 124.57C146.56 118.75 147.22 112.37 148 106.06C148.57 101.44 150.47 97.5401 153.44 94.0701C156.87 90.0601 161 87.0501 165.86 84.9201C170.28 82.9801 174.94 82.1001 179.63 81.2401C179.98 81.1801 180.35 81.1901 180.71 81.1901C182.37 81.2101 183.09 82.4001 182.27 83.8201C180.52 86.8701 179.12 90.0801 178 93.4101C176.92 96.6201 176.69 99.8701 177.29 103.2C177.79 106 177.99 108.83 177.4 111.64C176.4 116.35 173.43 117.82 169.07 117.29C165.55 116.88 164.14 115.02 164.16 111.33Z" fill="#EE3F53"/>
<path d="M176.87 178.06C177.72 180.43 179.52 182.19 180.89 184.22C181.12 184.56 181.7 184.84 181.45 185.3C181.21 185.74 180.64 185.49 180.24 185.45C173.79 184.91 167.97 182.78 162.87 178.72C160.99 177.22 159.17 175.71 158.02 173.55C157.12 171.87 156.74 170.11 157.28 168.25C157.44 167.68 157.34 167.33 156.89 166.9C156.17 166.21 155.68 165.34 155.52 164.3C155.42 163.7 155.44 163.01 154.75 162.64C154.6 162.56 154.54 162.23 154.51 162C154.29 159.94 154.79 158.04 155.9 156.31C156.48 155.4 157.36 155.62 158.16 155.87C162.43 157.24 164.59 160.36 164.45 164.87C164.44 165.14 164.45 165.4 164.45 165.85C164.99 165.11 164.97 164.42 164.96 163.77C164.95 163.11 164.85 162.46 164.77 161.64C165.73 162.24 166.21 162.99 166.23 163.94C166.28 165.93 167.29 167.33 168.9 168.33C169.64 168.79 169.77 169.19 169.34 169.95C168.71 171.06 168.53 172.27 168.87 173.79C169.2 172.78 169.4 171.96 169.74 171.19C171.18 167.98 173.8 166.09 176.96 164.84C183 162.45 189.3 162.29 195.67 162.61C196.79 162.67 197.91 162.66 199.02 162.68C199.33 162.69 199.7 162.63 199.8 163.04C199.9 163.46 199.54 163.54 199.27 163.71C195.63 165.97 191.64 167.34 187.53 168.45C184.46 169.28 181.27 169.1 178.17 169.61C177.17 169.77 176.32 170.17 175.7 171.08C176.39 170.85 177.07 170.59 177.77 170.4C179.98 169.78 180.61 170.11 181.65 172.13C182.84 174.45 183.69 176.89 184.38 179.39C184.85 181.09 185.47 182.72 186.76 184.01C187.09 184.34 187.28 184.74 187.05 185.2C186.8 185.7 186.31 185.62 185.89 185.58C183.77 185.34 182.35 183.91 180.91 182.55C179.43 181.15 178.35 179.42 177.07 177.85C176.98 177.83 176.89 177.82 176.8 177.8C176.8 177.88 176.84 177.97 176.87 178.06ZM175.27 171.06C175.19 171.16 175.06 171.26 175.03 171.39C175.01 171.49 175.14 171.59 175.27 171.51C175.36 171.46 175.46 171.38 175.51 171.28C175.59 171.11 175.43 171.12 175.27 171.06Z" fill="#EE4054"/>
<path d="M287.07 126.061C288.79 126.141 290.78 126.201 292.71 126.771C293.32 126.951 293.97 127.151 294 127.971C294.03 128.831 293.42 129.001 292.76 129.121C290.72 129.491 288.68 129.771 286.67 130.301C283.41 131.171 280.2 132.121 277.1 133.481C274.12 134.791 271.25 136.281 268.51 138.001C262.86 141.531 257.64 145.631 252.57 149.931C246.92 154.711 241.38 159.631 236 164.711C234.68 165.951 233.93 165.901 232.77 164.501C232.11 163.711 231.37 162.991 230.69 162.211C229.77 161.171 229.75 160.351 230.78 159.431C233.47 157.041 236.19 154.681 238.94 152.351C244.85 147.331 250.74 142.291 256.93 137.621C261.59 134.101 266.62 131.231 272.06 129.081C276.78 127.201 281.69 126.131 287.07 126.061Z" fill="#08266E"/>
<path d="M215.461 184.39C213.471 186.03 211.691 187.67 209.541 188.8C208.241 189.48 206.941 190.18 205.421 190.24C202.711 190.34 200.681 188.84 198.711 187.3C197.751 186.55 196.911 185.64 196.351 184.5C195.031 181.84 196.881 178.07 199.801 177.45C201.011 177.19 201.821 177.61 202.341 178.67C202.641 179.28 202.851 179.93 203.181 180.51C203.851 181.71 204.861 182 206.111 181.39C208.011 180.47 209.551 179.06 211.311 177.68C209.291 177.31 207.841 176.36 207.211 174.53C206.591 172.74 206.741 171.02 208.011 169.46C209.531 167.59 212.241 167.21 213.851 168.97C217.461 172.92 221.091 176.86 224.441 181.04C225.701 182.61 225.311 185.14 223.081 187.44C221.571 189 219.221 189.24 217.521 188.05C216.281 187.22 215.741 185.96 215.461 184.39Z" fill="#08266E"/>
<path d="M246.34 107.82C246.34 107.74 246.34 107.66 246.34 107.58C246.3 105.33 246.42 105.26 248.49 106.25C253.4 108.59 254.77 112.97 252.28 118.41C251.94 119.16 251.17 119.91 251.24 120.6C251.28 121.05 252.49 121.37 253.15 121.79C254.69 122.77 255.41 124.2 255.37 126.02C255.27 130.21 252.69 132.97 249.04 134.19C247.63 134.66 246.16 134.78 244.71 135C244.05 135.1 243.65 134.9 243.95 134.14C245.83 129.41 244.5 125.23 241.7 121.34C241.15 120.58 241.28 120.18 241.8 119.52C244.52 116.1 246.27 112.28 246.34 107.82Z" fill="#20C1E3"/>
<path d="M204.791 107.42C204.781 111.92 206.421 115.83 209.181 119.28C209.921 120.21 209.871 120.7 209.201 121.65C206.571 125.43 205.371 129.52 207.161 134.05C207.441 134.75 207.251 135.07 206.511 134.99C204.051 134.72 201.631 134.37 199.501 132.93C196.861 131.14 195.701 128.6 195.771 125.5C195.831 123.29 197.251 121.92 199.131 121.12C200.121 120.7 199.931 120.4 199.521 119.69C198.271 117.52 197.411 115.21 197.671 112.64C198.001 109.34 200.101 107.43 202.941 106.13C203.081 106.06 203.241 106.03 203.391 105.97C204.751 105.38 204.871 105.47 204.771 106.94C204.781 107.1 204.791 107.26 204.791 107.42Z" fill="#EE4054"/>
<path d="M300.97 58.5497C300.98 62.6597 298.56 65.7496 294.63 66.8796C292.61 67.4596 288.64 65.9296 287.03 63.2596C284.61 59.2296 285.71 53.5197 289.72 51.1297C294.13 48.4997 299.23 51.1197 300.65 56.0597C300.89 56.8797 300.99 57.7097 300.97 58.5497Z" fill="#20C1E3"/>
<path d="M154.73 171.74C152.48 169.07 150.79 166.44 149.4 163.62C147.05 158.83 145.37 153.79 144.69 148.5C143.96 142.86 146.67 138.73 151.42 136.15C151.63 136.03 151.79 135.85 152.03 136.1C152.26 136.34 152.24 136.6 152.17 136.88C151.83 138.11 151.62 139.37 151.47 140.64C150.96 144.93 151.69 149.07 153.04 153.12C153.42 154.27 153.44 155.2 152.89 156.38C151.14 160.18 151.8 163.76 154.49 166.94C154.89 167.42 155.04 167.79 154.85 168.4C154.54 169.37 154.6 170.38 154.73 171.74Z" fill="#EE4054"/>
<path d="M166.831 158.87C170.061 159.31 173.061 160.3 175.591 162.46C176.181 162.96 175.921 163.29 175.451 163.53C173.871 164.34 172.541 165.42 171.461 166.83C171.171 167.21 170.791 167.28 170.431 166.96C169.231 165.92 168.001 164.9 167.871 163.12C167.761 161.63 166.971 160.53 165.761 159.7C165.551 159.56 165.111 159.56 165.201 159.19C165.291 158.79 165.711 158.91 166.011 158.88C166.271 158.85 166.551 158.87 166.831 158.87Z" fill="#EE4054"/>
</svg>
