<svg width="852" height="200" viewBox="0 0 852 200" fill="none" xmlns="http://www.w3.org/2000/svg">
<g clip-path="url(#clip0_1_4314)">
<path d="M461.81 84.0302C460.4 86.5002 458.47 88.3602 455.85 89.4602C453.58 90.4102 451.2 90.8202 448.77 91.0002C443.34 91.3802 437.89 91.6602 432.51 90.7202C428.29 89.9802 424.81 87.8402 422.58 83.8402C421.21 86.1602 419.5 87.9802 417.12 89.1402C413.84 90.7402 410.31 91.1002 406.78 91.1802C401.31 91.3002 395.83 91.1702 390.36 91.1602C382.85 91.1502 375.33 91.2102 367.82 91.1402C363.19 91.0902 358.74 90.1502 354.71 87.7302C353.28 86.8702 351.97 85.8402 350.97 84.4802C350.57 83.9402 350.29 83.7802 349.73 84.3502C346.32 87.8202 342.1 89.7402 337.42 90.8402C331.08 92.3302 324.68 92.4802 318.27 91.6802C313.92 91.1402 309.69 90.0302 305.89 87.6902C304.44 86.8002 303.02 85.8502 301.87 84.5802C301.47 84.1402 301.23 84.1302 300.85 84.6202C298.41 87.7902 295 89.3702 291.24 90.3302C288.12 91.1202 284.93 91.2502 281.73 91.2502C244.51 91.2502 207.3 91.2502 170.08 91.2502C166.88 91.2502 163.69 90.9602 160.58 90.2302C157.31 89.4702 154.61 87.7102 152.78 84.8002C152.51 84.3702 152.39 83.9802 151.95 84.7102C149.66 88.4802 146 90.1202 141.88 90.7202C137.01 91.4302 132.09 91.4502 127.17 91.0302C123.99 90.7602 120.87 90.2502 118 88.6902C116.21 87.7102 114.81 86.3402 113.71 84.6702C113.33 84.0902 113.19 84.0002 112.78 84.6602C110.86 87.7802 107.92 89.5402 104.46 90.3102C97.6705 91.8202 90.8005 91.5702 83.9705 90.7202C81.2605 90.3802 78.7405 89.1602 76.7205 87.1702C76.5605 87.0102 76.3705 86.8802 76.0405 86.6102C75.9705 89.0802 75.9605 91.3702 75.6305 93.6402C74.2505 103.3 69.4605 110.56 60.6805 115.09C56.0605 117.47 51.1705 118.74 46.0405 119.37C41.2505 119.95 36.4805 119.96 31.6905 119.55C26.5805 119.11 21.6405 117.95 17.0005 115.74C7.87047 111.4 2.17047 104.35 0.530472 94.2902C-0.819528 85.9802 0.590472 78.0102 3.76047 70.2902C5.19047 66.8202 6.91047 63.5202 9.06047 60.4302C9.70047 59.5202 10.4005 59.5002 11.3205 59.8302C14.9705 61.1402 18.6305 62.4302 22.2805 63.7302C22.9905 63.9802 23.7205 64.1902 24.3905 64.5402C25.2405 64.9802 25.0905 65.6902 24.6705 66.3702C23.2005 68.7402 21.9205 71.2102 20.7305 73.7302C18.2705 78.9102 17.3205 84.3302 17.9905 90.0302C18.8105 97.0602 23.7705 102.64 30.6505 104.55C35.7705 105.97 40.9105 106.21 46.0105 104.85C53.9305 102.74 57.9205 98.2502 58.5105 89.6602C58.5505 89.0602 58.5505 88.4602 58.5505 87.8602C58.5505 74.1202 58.5505 60.3802 58.5505 46.6402C58.5505 44.7102 58.8405 44.4202 60.7705 44.4202C65.1305 44.4202 69.4805 44.4102 73.8405 44.4202C75.6905 44.4202 75.9905 44.7302 75.9905 46.5902C76.0005 54.1402 75.9505 61.6902 76.0505 69.2302C76.1005 73.3502 77.8805 75.2502 81.7805 76.5102C84.9805 77.5402 88.2205 77.5202 91.3705 77.0102C94.7805 76.4602 97.0005 75.4502 97.5905 70.7702C97.7605 69.4302 97.8205 68.0602 97.8305 66.7102C97.8505 59.9602 97.8405 53.2102 97.8405 46.4602C97.8405 44.7602 98.1705 44.4202 99.8605 44.4202C104.3 44.4102 108.73 44.4102 113.17 44.4202C114.9 44.4202 115.22 44.7502 115.22 46.4202C115.22 53.8102 115.21 61.2002 115.22 68.5902C115.23 72.5202 116.89 75.0602 120.22 76.3302C122.5 77.1902 124.89 77.3202 127.28 77.2802C129.15 77.2502 131.03 77.1702 132.77 76.3202C135.52 74.9702 136.54 72.5702 136.74 69.7102C136.87 67.8002 136.93 65.8802 136.94 63.9702C136.96 54.5402 136.95 45.1202 136.95 35.6902C136.95 33.9002 137.1 33.7502 138.84 33.7502C143.36 33.7502 147.87 33.7502 152.39 33.7502C154.2 33.7502 154.33 33.8802 154.33 35.7602C154.33 46.5002 154.33 57.2502 154.33 67.9902C154.33 72.5702 156.64 75.2602 161.1 76.5102C163.58 77.2002 166.06 77.3102 168.55 77.3202C206.77 77.3502 244.98 77.3302 283.2 77.3502C286.52 77.3502 289.4 76.4102 291.52 73.7702C293.23 71.6602 293.66 69.0702 293.79 66.4602C293.92 63.7902 293.73 61.1102 293.85 58.4402C294.13 52.6502 295.48 47.1602 298.87 42.3402C301.73 38.2702 305.55 35.4502 310.23 33.7202C317.12 31.1702 324.19 30.7302 331.42 31.5102C334.21 31.8102 336.97 32.2402 339.6 33.1202C347.45 35.7302 352.98 40.8002 355.74 48.7202C357.73 54.4202 357.83 60.3002 357.64 66.2302C357.54 69.2402 357.96 72.1302 360.19 74.4302C362.19 76.4902 364.7 77.3202 367.5 77.3202C378.21 77.3302 388.93 77.3502 399.64 77.3002C401.25 77.2902 402.92 77.3202 404.4 76.4202C405.17 75.9502 405.79 75.4002 406.13 74.5402C407.01 72.3002 407.12 69.9502 407.13 67.5902C407.15 60.6402 407.13 53.6902 407.14 46.7402C407.14 44.6802 407.41 44.4102 409.51 44.4102C413.83 44.4102 418.14 44.4102 422.46 44.4102C424.26 44.4102 424.57 44.7202 424.57 46.4802C424.57 53.7102 424.57 60.9402 424.57 68.1702C424.57 70.3302 424.87 72.3902 426.34 74.1102C427.99 76.0502 430.27 76.7602 432.65 77.0902C435.23 77.4602 437.85 77.3802 440.42 77.0702C444.15 76.6202 445.67 75.2202 446.15 71.8002C446.35 70.3302 446.42 68.8602 446.42 67.3802C446.41 60.4702 446.42 53.5602 446.42 46.6502C446.42 44.7002 446.71 44.4002 448.61 44.4002C452.97 44.4002 457.32 44.4002 461.68 44.4002C463.55 44.4002 463.86 44.7102 463.86 46.5402C463.86 53.8102 463.85 61.0802 463.86 68.3502C463.87 72.7902 465.61 75.0602 469.74 76.5302C472.08 77.3602 474.44 77.3002 476.83 77.1902C478.25 77.1302 479.67 77.1302 481.09 76.7002C483.47 75.9802 484.57 74.3302 485.02 72.0802C485.48 69.7602 485.53 67.4002 485.53 65.0402C485.54 55.3302 485.53 45.6302 485.53 35.9202C485.53 33.8502 485.66 33.7202 487.66 33.7202C492.22 33.7202 496.77 33.7202 501.33 33.7202C502.66 33.7202 502.96 34.0102 502.96 35.3302C502.97 48.4302 502.99 61.5302 502.94 74.6302C502.93 78.0002 502.42 81.3102 500.78 84.3402C499.36 86.9502 497.15 88.5502 494.42 89.5802C490.81 90.9302 487.03 91.2002 483.24 91.2102C479.69 91.2202 476.14 91.4402 472.6 90.8102C468.22 90.0402 464.58 88.1802 462.12 84.3502C462.05 84.2702 461.95 84.1902 461.81 84.0302ZM325.93 78.2202C327.45 78.0602 329.19 78.1202 330.93 77.6602C334.22 76.8002 336.92 75.1002 338.29 71.9902C341.07 65.6802 341.04 59.1802 338.76 52.7402C337.49 49.1502 334.77 46.8702 331.15 45.7702C328.57 44.9802 325.91 44.9702 323.21 45.2102C317.43 45.7202 313.71 49.0602 312.21 54.0902C310.79 58.8702 310.83 63.7102 311.87 68.5402C312.64 72.1102 314.4 74.9902 317.82 76.7102C320.33 77.9602 322.99 78.1702 325.93 78.2202Z" fill="#08266E"/>
<path d="M652.191 190.14C647.201 190.09 642.201 190.53 637.221 189.99C635.491 189.8 633.751 189.51 632.101 188.87C629.491 187.85 627.851 185.87 626.771 183.38C625.061 179.45 624.431 175.26 623.901 171.06C623.111 164.8 622.491 158.53 621.731 152.27C621.221 148.04 619.781 144.32 616.361 141.43C612.321 138.01 610.081 133.39 608.341 128.48C607.351 125.7 606.111 123.03 604.281 120.66C603.441 119.57 602.461 118.63 601.361 117.88C596.281 114.44 593.991 109.42 592.901 103.61C591.991 98.7501 591.561 93.8101 590.291 89.0101C589.151 84.7101 587.011 81.1701 583.261 78.5701C580.091 76.3701 578.461 73.0101 577.361 69.4001C576.001 64.9301 574.571 60.5001 571.791 56.6501C570.661 55.0901 569.231 53.8401 567.731 52.6501C564.451 50.0401 561.661 47.0201 560.011 43.1001C557.961 38.2301 558.671 33.6301 561.711 29.4001C564.911 24.9401 569.341 22.2401 574.651 21.1501C577.841 20.5001 581.111 20.5501 584.071 22.2401C587.781 24.3701 589.301 27.8601 589.811 31.9101C590.171 34.7101 590.091 37.5201 589.501 40.2501C588.641 44.2001 589.111 48.0401 590.091 51.8501C591.961 59.0601 594.821 65.8801 598.571 72.3201C599.091 73.2101 599.731 74.0301 600.371 74.8401C600.531 75.0401 600.761 75.4501 601.141 75.2501C601.421 75.1001 601.351 74.7501 601.331 74.4801C601.261 73.1101 600.851 71.8101 600.381 70.5401C599.541 68.2601 598.781 65.9401 597.791 63.7201C595.411 58.4101 595.341 52.8601 596.091 47.2701C596.951 40.8401 599.511 35.1801 604.471 30.8201C608.891 26.9401 613.961 25.2001 619.931 25.7001C628.821 26.4401 631.471 35.9001 628.201 42.1201C626.221 45.8901 623.001 48.1101 619.121 49.5401C618.261 49.8601 617.391 50.1301 616.571 50.5201C615.161 51.2001 614.081 52.2301 613.661 53.8001C612.041 59.7801 611.601 65.8201 612.851 71.9301C613.121 73.2601 613.551 74.5401 614.191 75.7601C614.871 77.0501 615.971 77.5901 617.341 77.5101C620.891 77.3101 623.351 75.6301 623.701 71.7401C623.951 69.0001 623.961 66.2301 624.551 63.5301C624.721 62.7501 624.871 61.9501 625.181 61.2301C626.701 57.6901 628.801 57.0901 632.131 58.0701C637.301 59.5901 640.831 63.0601 642.381 68.2901C643.311 71.4401 642.741 74.5401 641.631 77.5601C640.111 81.7101 637.661 85.3501 635.171 88.9501C632.391 92.9701 629.251 96.7601 627.121 101.2C626.211 103.1 625.641 105.05 626.221 107.21C626.481 108.16 626.971 108.42 627.841 108.34C628.641 108.27 629.401 108.07 630.161 107.81C632.431 107.03 633.941 107.72 634.881 109.91C635.661 111.72 636.381 111.83 637.691 110.37C639.101 108.8 640.061 106.97 640.811 105.03C642.011 101.93 643.701 99.1701 646.211 96.9801C652.271 91.7101 659.291 93.6701 663.111 99.9701C667.681 107.51 666.431 114.96 661.681 121.99C658.361 126.9 653.781 130.25 648.301 132.47C645.851 133.46 643.491 134.7 641.501 136.53C638.021 139.73 636.841 143.67 637.771 148.24C638.261 150.63 639.871 151.31 642.061 150.23C643.831 149.35 644.951 147.78 646.321 146.46C647.671 145.16 649.191 144.12 650.971 143.46C653.921 142.36 656.521 144.26 657.751 146.47C659.731 150.03 660.081 153.89 659.711 157.85C659.191 163.44 657.031 168.3 653.011 172.28C652.501 172.78 652.051 173.34 651.591 173.89C651.341 174.19 650.981 174.54 651.221 174.95C651.481 175.39 651.931 175.09 652.311 175.05C654.131 174.84 655.851 174.04 657.721 174.18C660.241 174.37 662.271 175.34 663.331 177.76C664.241 179.85 664.721 182 664.011 184.28C663.691 185.31 663.871 186.23 664.621 187.05C665.191 187.66 665.711 188.32 666.221 188.97C666.461 189.28 666.801 189.65 666.581 190.04C666.381 190.39 665.921 190.2 665.581 190.2C661.501 190.18 657.431 190.15 653.351 190.12C652.991 190.14 652.591 190.14 652.191 190.14Z" fill="#EE3E52"/>
<path d="M745.41 139.68C744.31 136.78 743.23 134.27 742.49 131.63C742.21 130.63 741.96 129.62 741.81 128.6C741.5 126.53 742.43 125.52 744.53 125.54C744.8 125.54 745.07 125.54 745.48 125.54C744.41 123.56 743.33 121.72 742.56 119.72C741.9 118 741.34 116.26 741.17 114.41C740.93 111.67 742.09 110.15 744.8 109.69C745.55 109.56 745.36 109.24 745.15 108.81C744 106.52 743.06 104.16 742.47 101.67C742.13 100.23 741.9 98.77 741.99 97.28C742.09 95.66 742.65 94.33 744.37 93.82C745.02 93.63 744.82 93.26 744.64 92.82C743.52 90.13 742.43 87.43 742 84.53C741.54 81.47 742.67 79.13 745.2 77.89C742.53 75.56 740.76 72.8 741.06 69.09C741.08 68.88 741.1 68.66 740.9 68.56C740.54 68.39 740.33 68.66 740.08 68.87C738.1 70.59 736.31 72.5 734.65 74.53C727.83 82.87 722.91 92.28 718.94 102.23C718.34 103.74 717.46 104.37 716.2 104.2C714.9 104.02 714.19 103.23 714.03 101.61C713.47 96.13 714.22 90.78 715.7 85.51C718 77.29 721.98 69.89 726.74 62.86C726.94 62.56 727.45 62.25 727.13 61.86C726.86 61.54 726.37 61.75 726 61.89C722 63.39 717.96 64.8 714.02 66.45C709.46 68.35 704.87 70.21 700.47 72.47C699.43 73 698.42 73.16 697.47 72.38C696.46 71.55 696.3 70.41 696.64 69.23C697.21 67.28 697.91 65.37 698.76 63.52C701.68 57.14 705.93 51.93 712.18 48.57C714.88 47.12 717.79 46.17 720.84 45.71C721.12 45.67 721.39 45.61 721.66 45.54C721.9 45.48 722.12 45.36 722.11 45.08C722.11 44.83 721.87 44.79 721.69 44.72C719.96 44.03 718.25 43.3 716.51 42.65C712.73 41.24 708.94 39.84 705.13 38.49C703.45 37.89 701.75 37.35 700.02 36.9C698.73 36.56 698.06 35.75 697.81 34.53C697.57 33.35 698.12 32.25 699.2 31.61C704.15 28.66 709.62 27.64 715.27 27.31C719.11 27.08 722.93 27.48 726.75 27.82C727.05 27.85 727.42 28.02 727.61 27.64C727.76 27.35 727.48 27.12 727.34 26.89C724.98 23.11 722.54 19.39 719.41 16.19C718.5 15.26 718.22 14.16 718.64 12.89C719.03 11.68 719.96 11.26 721.1 11.16C728.27 10.5 734.33 12.63 738.98 18.3C739.34 18.74 739.6 19.59 740.2 19.47C740.83 19.34 740.68 18.47 740.81 17.91C742.08 12.77 743.3 7.60996 745.71 2.82996C746.56 1.13996 747.89 0.099962 749.71 0.069962C751.59 0.039962 752.97 1.08996 753.83 2.82996C756.24 7.64996 757.51 12.84 758.74 18.04C758.86 18.56 758.72 19.37 759.31 19.5C759.89 19.63 760.12 18.84 760.46 18.43C764.93 12.87 770.83 10.69 777.81 11.08C779.09 11.15 780.39 11.36 780.88 12.87C781.36 14.33 780.87 15.46 779.83 16.53C776.8 19.66 774.44 23.29 772.16 26.97C772.03 27.19 771.74 27.43 771.97 27.72C772.17 27.96 772.48 27.85 772.76 27.83C776.38 27.53 780 27.16 783.64 27.29C788.7 27.47 793.59 28.42 798.24 30.44C799.07 30.8 799.86 31.27 800.61 31.79C801.59 32.46 801.94 33.46 801.71 34.62C801.48 35.75 800.85 36.56 799.68 36.87C796.23 37.78 792.9 39.07 789.55 40.27C785.9 41.58 782.29 42.98 778.66 44.34C778.59 44.37 778.49 44.37 778.44 44.42C778.14 44.71 777.42 44.61 777.47 45.14C777.52 45.64 778.14 45.63 778.56 45.69C781.42 46.09 784.12 47 786.69 48.26C792.54 51.12 796.69 55.69 799.73 61.35C800.98 63.68 801.96 66.11 802.74 68.63C802.9 69.16 803.07 69.72 803.07 70.26C803.1 72.35 801.15 73.49 799.23 72.54C795.12 70.51 790.9 68.72 786.65 66.98C782.36 65.22 778.04 63.58 773.7 61.96C773.29 61.81 772.77 61.52 772.47 61.86C772.1 62.28 772.67 62.63 772.89 62.96C777.71 70.1 781.71 77.63 783.99 85.99C785.37 91.04 785.99 96.16 785.56 101.39C785.37 103.64 783.91 104.73 782.06 104C781.38 103.73 781 103.23 780.74 102.57C777.92 95.45 774.61 88.57 770.43 82.14C767.35 77.4 763.91 72.95 759.74 69.1C759.46 68.84 759.16 68.3 758.64 68.59C758.26 68.8 758.5 69.25 758.51 69.58C758.63 73.1 756.87 75.69 754.36 77.91C756.7 79.08 757.88 81.28 757.62 83.86C757.3 87 756.14 89.89 754.93 92.75C754.66 93.39 754.63 93.67 755.4 93.93C756.91 94.43 757.46 95.69 757.54 97.18C757.7 100.33 756.78 103.25 755.63 106.12C755.26 107.04 754.85 107.95 754.39 108.83C754.09 109.41 754.1 109.64 754.83 109.72C757.28 109.99 758.68 111.87 758.39 114.41C758.1 116.93 757.26 119.29 756.17 121.57C755.54 122.89 754.87 124.18 753.97 125.56C754.67 125.56 755.17 125.54 755.66 125.56C756.92 125.63 757.78 126.54 757.76 127.84C757.72 130.11 756.89 132.2 756.17 134.31C755.59 135.99 754.91 137.65 754.22 139.47C754.93 139.22 755.49 138.98 756.08 138.84C756.93 138.64 757.52 138.99 757.61 139.88C758.02 143.9 755.84 149.37 752.73 151.22C750.33 152.65 747.05 152.13 745.26 149.95C743.06 147.27 741.92 144.19 741.9 140.71C741.89 138.91 742.74 138.33 744.39 139.08C744.61 139.19 744.84 139.35 745.41 139.68Z" fill="#08266E"/>
<path d="M590.67 190.23C581.56 190.23 572.44 190.23 563.33 190.23C561.82 190.23 560.73 189.5 560.73 188.04C560.72 184.56 558.96 181.92 556.97 179.33C553.84 175.26 550.5 171.36 547.11 167.5C544.03 164.01 541.41 160.21 540.33 155.58C539.49 151.99 540.33 148.89 543.09 146.34C545.5 144.11 548.73 144.2 551.51 146.53C555.7 150.03 558.38 154.63 561.07 159.24C562.51 161.7 563.55 164.42 565.77 166.39C567.17 167.63 568.07 167.53 568.69 165.76C569.71 162.85 569.92 159.81 569.59 156.77C568.96 150.96 566.87 145.73 562.85 141.38C560.09 138.4 556.85 136.46 552.58 136.77C550.79 136.9 549.04 136.77 547.37 135.87C543.55 133.81 543.88 129.51 545.73 127.03C548.97 122.69 554.12 122.27 558.19 125.88C561.56 128.86 564.11 132.52 566.97 135.93C568.27 137.48 569.51 139.1 571.37 140.06C573.51 141.16 575.81 139.71 575.74 137.31C575.69 135.65 574.92 134.24 574.1 132.87C572.43 130.09 570.37 127.59 568.1 125.31C565.23 122.43 563.55 119.05 562.95 115.04C562.5 112.02 561.69 109.1 559.32 106.9C556.07 103.89 552.26 102.91 547.96 103.8C546.57 104.09 545.16 104.44 543.84 104.96C540.75 106.18 538.38 104.85 536.27 102.85C530.28 97.1904 528.59 89.5304 531.55 81.8204C532.05 80.5104 532.71 79.2804 533.61 78.2004C536.46 74.7504 539.49 74.6504 543.12 76.7704C545.75 78.3004 548.45 78.8204 551.31 77.5904C553.35 76.7204 553.84 74.4904 552.51 72.7404C550.67 70.3204 548.05 69.2504 545.26 68.5004C542.09 67.6504 538.78 67.6704 535.59 67.0104C526.18 65.0804 521.26 58.3604 524.09 48.5204C524.83 45.9504 527.11 44.8504 529.33 43.8104C532.89 42.1404 536.61 41.9604 540.27 43.1404C544.67 44.5604 548.35 47.0604 550.42 51.4204C552.74 56.3004 554.4 61.4304 555.87 66.6004C557.11 70.9404 559.17 74.5804 562.95 77.1504C565.25 78.7104 566.06 80.9804 566.02 83.6504C566 85.2104 565.99 86.7604 565.99 88.3204C565.99 92.6804 567.2 94.1904 571.48 95.0404C572.97 95.3304 574 96.1204 574.73 97.4004C578.27 103.62 579.47 110.37 579.31 117.44C579.24 120.59 578.96 123.74 579.44 126.88C579.85 129.53 580.95 131.84 582.88 133.69C584.68 135.43 586.67 136.9 589.07 137.81C590.55 138.37 591.42 139.67 592.01 141.12C593.05 143.65 593.26 146.32 593.07 149C592.65 154.88 594.71 158.67 600.02 161.43C601.35 162.12 602.73 162.73 604.09 163.38C607.98 165.23 610.93 168.24 613.75 171.38C617.07 175.09 619.51 179.3 620.4 184.28C620.59 185.34 620.68 186.42 620.7 187.49C620.74 189.26 619.75 190.21 617.99 190.21C608.9 190.23 599.78 190.23 590.67 190.23Z" fill="#FAAC38"/>
<path d="M819.61 178.87C817.2 176.75 815.08 174.78 813.24 172.54C811.02 169.86 809.07 167.01 808.1 163.6C806.86 159.25 808.08 155.64 811.45 152.75C814.22 150.37 817.47 148.81 821.1 148.46C824.94 148.09 828.21 149.62 830.72 152.51C834.64 157.02 836.13 162.34 835.16 168.19C834.34 173.11 836.35 176.59 840.06 179.44C841.65 180.66 843.57 181.23 845.35 182.09C847.21 182.99 849.03 183.96 850.33 185.66C851.06 186.61 851.3 187.61 850.75 188.67C850.23 189.68 849.41 190.23 848.17 190.23C830.95 190.21 813.72 190.34 796.5 190.13C792.34 190.08 788.44 188.34 785.4 185.27C783.5 183.34 782.73 180.9 783.14 178.23C783.82 173.75 785.83 169.93 789.34 167C791.72 165.01 794.44 164.98 797.2 166.06C801.22 167.62 804.45 170.4 807.8 173C810.33 174.96 812.81 177.04 815.83 178.24C816.91 178.67 818.05 179.04 819.61 178.87Z" fill="#1FC1E3"/>
<path d="M797.681 109.62C797.711 107.78 797.911 105.96 798.231 104.15C798.981 99.9497 798.351 95.9097 796.841 91.9497C795.661 88.8597 794.341 85.8297 792.661 82.9797C792.241 82.2697 792.031 81.5797 792.551 80.8697C793.071 80.1597 793.861 79.9897 794.681 80.0797C800.431 80.7097 806.051 81.9397 811.331 84.3497C819.001 87.8597 825.051 93.1597 828.841 100.81C830.211 103.58 830.451 106.62 830.871 109.62C831.641 115.11 832.421 120.6 834.431 125.81C834.671 126.44 834.981 127.05 835.301 127.64C835.611 128.2 835.811 128.73 835.401 129.31C834.961 129.93 834.311 129.96 833.671 129.78C830.961 129.02 828.591 127.63 826.391 125.89C822.921 123.15 821.511 119.09 819.531 115.39C818.161 112.83 816.861 110.23 815.091 107.9C814.431 107.03 813.691 106.28 812.691 105.82C812.231 105.61 811.731 105.52 811.341 105.87C810.951 106.22 811.331 106.61 811.441 106.96C812.231 109.36 812.871 111.77 812.691 114.33C812.391 118.52 810.131 119.9 806.631 120.2C801.511 120.65 798.281 117.7 797.781 112.25C797.721 111.38 797.721 110.5 797.681 109.62Z" fill="#20C1E3"/>
<path d="M764.08 177.66C765.82 178.94 767.14 180.43 768.96 181.3C770.49 182.03 771.43 181.74 772.19 180.25C772.4 179.83 772.61 179.39 772.77 178.94C773.44 177.07 775.22 176.98 776.66 177.99C780.04 180.34 780.27 183.66 777.35 186.54C775.77 188.1 773.94 189.24 771.88 190C770.05 190.67 768.35 190.06 766.69 189.32C764.42 188.31 762.55 186.71 760.66 185.15C760.39 184.93 760.13 184.7 759.78 184.41C759.4 186.38 758.62 187.97 756.72 188.56C753.91 189.44 751.36 187.62 750.99 184.66C750.73 182.59 751.71 181.02 752.96 179.6C753.66 178.81 753.4 178.47 752.76 177.86C744.8 170.31 736.84 162.76 728.62 155.5C723.28 150.79 717.84 146.2 711.86 142.3C706.37 138.72 700.52 135.9 694.37 133.62C690.25 132.09 686.11 130.62 681.94 129.24C681.31 129.03 680.6 128.76 680.69 127.88C680.78 127.01 681.49 126.9 682.15 126.74C686.96 125.59 691.71 126.09 696.47 127.17C701.7 128.36 706.51 130.57 711.12 133.2C715.56 135.73 719.55 138.92 723.51 142.14C732.32 149.31 740.91 156.75 749.46 164.22C752.29 166.69 754.98 169.33 757.7 171.94C758.3 172.52 758.53 172.38 758.94 171.77C759.58 170.82 760.27 169.88 761.06 169.04C762.18 167.86 763.7 167.66 765.16 168.04C766.83 168.47 767.79 169.79 768.21 171.41C768.96 174.29 767.24 176.98 764.08 177.66Z" fill="#08266E"/>
<path d="M676.63 44.0898C682.16 44.2698 687.29 44.8198 692.27 46.3998C693.32 46.7298 693.8 47.3698 693.86 48.3598C693.93 49.3598 693.47 50.0998 692.53 50.5398C690.13 51.6598 687.77 52.8498 685.55 54.3198C681.41 57.0598 678.9 60.8298 677.87 65.6398C677.55 67.1198 677.22 68.6098 676.69 70.0198C674.8 75.0998 670.72 77.6198 665.77 79.0398C662.17 80.0798 658.85 79.3698 656.07 76.9298C653.27 74.4598 651.86 71.1698 651.45 67.4898C650.8 61.6198 652.93 56.6098 656.53 52.1598C659.97 47.8998 664.6 45.6998 669.93 44.6998C672.29 44.2598 674.63 44.3198 676.63 44.0898Z" fill="#EE3F53"/>
<path d="M687.161 111.33C687.161 109.23 687.671 107.22 688.421 105.27C688.711 104.51 688.451 104.39 687.781 104.39C686.991 104.39 686.441 104.8 685.931 105.33C683.871 107.49 682.621 110.18 681.191 112.75C679.791 115.28 678.821 118.06 676.971 120.35C674.651 123.23 671.621 125.01 668.151 126.13C667.631 126.3 667.221 126.19 666.861 125.78C666.541 125.42 666.381 124.99 666.601 124.57C669.561 118.75 670.221 112.37 671.001 106.06C671.571 101.44 673.471 97.5401 676.441 94.0701C679.871 90.0601 684.001 87.0501 688.861 84.9201C693.281 82.9801 697.941 82.1001 702.631 81.2401C702.981 81.1801 703.351 81.1901 703.711 81.1901C705.371 81.2101 706.091 82.4001 705.271 83.8201C703.521 86.8701 702.121 90.0801 701.001 93.4101C699.921 96.6201 699.691 99.8701 700.291 103.2C700.791 106 700.991 108.83 700.401 111.64C699.401 116.35 696.431 117.82 692.071 117.29C688.551 116.88 687.141 115.02 687.161 111.33Z" fill="#EE3F53"/>
<path d="M699.871 178.06C700.721 180.43 702.521 182.19 703.891 184.22C704.121 184.56 704.701 184.84 704.451 185.3C704.211 185.74 703.641 185.49 703.241 185.45C696.791 184.91 690.971 182.78 685.871 178.72C683.991 177.22 682.171 175.71 681.021 173.55C680.121 171.87 679.741 170.11 680.281 168.25C680.441 167.68 680.341 167.33 679.891 166.9C679.171 166.21 678.681 165.34 678.521 164.3C678.421 163.7 678.441 163.01 677.751 162.64C677.601 162.56 677.541 162.23 677.511 162C677.291 159.94 677.791 158.04 678.901 156.31C679.481 155.4 680.361 155.62 681.161 155.87C685.431 157.24 687.591 160.36 687.451 164.87C687.441 165.14 687.451 165.4 687.451 165.85C687.991 165.11 687.971 164.42 687.961 163.77C687.951 163.11 687.851 162.46 687.771 161.64C688.731 162.24 689.211 162.99 689.231 163.94C689.281 165.93 690.291 167.33 691.901 168.33C692.641 168.79 692.771 169.19 692.341 169.95C691.711 171.06 691.531 172.27 691.871 173.79C692.201 172.78 692.401 171.96 692.741 171.19C694.181 167.98 696.801 166.09 699.961 164.84C706.001 162.45 712.301 162.29 718.671 162.61C719.791 162.67 720.911 162.66 722.021 162.68C722.331 162.69 722.701 162.63 722.801 163.04C722.901 163.46 722.541 163.54 722.271 163.71C718.631 165.97 714.641 167.34 710.531 168.45C707.461 169.28 704.271 169.1 701.171 169.61C700.171 169.77 699.321 170.17 698.701 171.08C699.391 170.85 700.071 170.59 700.771 170.4C702.981 169.78 703.611 170.11 704.651 172.13C705.841 174.45 706.691 176.89 707.381 179.39C707.851 181.09 708.471 182.72 709.761 184.01C710.091 184.34 710.281 184.74 710.051 185.2C709.801 185.7 709.311 185.62 708.891 185.58C706.771 185.34 705.351 183.91 703.911 182.55C702.431 181.15 701.351 179.42 700.071 177.85C699.981 177.83 699.891 177.82 699.801 177.8C699.801 177.88 699.841 177.97 699.871 178.06ZM698.271 171.06C698.191 171.16 698.061 171.26 698.031 171.39C698.011 171.49 698.141 171.59 698.271 171.51C698.361 171.46 698.461 171.38 698.511 171.28C698.591 171.11 698.431 171.12 698.271 171.06Z" fill="#EE4054"/>
<path d="M80.7809 158.8C79.3509 160.61 75.6909 160.62 74.3009 158.9C72.6009 160.6 69.1609 160.59 67.6509 158.82C67.0509 159.93 66.0609 160.1 64.9209 160.08C62.4009 160.04 59.8809 160.07 57.3709 160.07C56.5709 160.07 55.7809 160.07 55.0509 159.63C54.7009 159.42 54.2909 159.37 53.9109 159.58C52.7609 160.21 51.5009 160.09 50.2809 160.09C40.9309 160.1 31.5709 160.07 22.2209 160.07C21.3509 160.07 20.5309 159.98 20.0209 159.17C19.7909 158.8 19.6709 158.84 19.4509 159.17C18.9509 159.9 18.2109 160.07 17.3709 160.07C12.8109 160.06 8.26087 160.07 3.70087 160.06C2.31087 160.06 1.49087 159.49 1.24087 158.12C0.810867 155.71 1.13087 153.26 1.05087 150.83C1.04087 150.47 1.26087 150.34 1.58087 150.33C1.74087 150.32 1.90087 150.32 2.06087 150.32C4.45087 150.34 3.97087 150.15 4.00087 152.18C4.02087 153.42 4.02087 154.66 4.00087 155.89C3.99087 156.88 4.47087 157.37 5.45087 157.37C8.85087 157.37 12.2509 157.37 15.6409 157.37C16.6409 157.37 17.0909 156.86 17.1009 155.89C17.1209 153.89 17.2309 151.89 17.1409 149.9C17.0809 148.69 17.5009 148.48 18.6109 148.47C19.8109 148.46 20.2309 148.74 20.1409 149.99C20.0209 151.58 20.1109 153.18 20.1109 154.78C20.1109 156.81 20.6109 157.35 22.6509 157.35C28.2509 157.37 33.8409 157.36 39.4409 157.36C43.1209 157.36 46.7909 157.37 50.4709 157.32C52.4809 157.29 52.6709 156.89 51.6209 155.2C51.0709 154.31 50.3709 153.59 49.5109 152.97C48.0609 151.93 48.3809 149.73 49.9809 148.96C52.2909 147.85 54.7409 147.72 57.1009 148.35C59.6409 149.03 60.9109 151.29 59.7809 154.36C59.3709 155.47 58.5309 156.27 57.5509 157.36C59.0509 157.36 60.3409 157.36 61.6209 157.36C65.0509 157.35 65.0909 157.76 65.0609 153.89C65.0609 153.37 65.0609 152.85 65.0609 152.33C65.0609 150.66 65.0609 150.72 66.7309 150.64C67.7609 150.59 68.1709 150.85 68.0909 151.95C67.9909 153.18 68.0409 154.43 68.0809 155.66C68.1209 156.82 68.6609 157.29 69.8309 157.32C71.0409 157.35 71.4909 156.98 71.5609 155.73C71.6309 154.38 71.6509 153.02 71.6209 151.66C71.6009 150.89 71.8209 150.62 72.6309 150.64C75.0009 150.71 74.5509 150.42 74.5909 152.62C74.6109 153.58 74.5709 154.54 74.6009 155.5C74.6309 156.75 75.2309 157.31 76.4709 157.32C77.5809 157.32 78.0809 156.88 78.1209 155.6C78.1809 153.61 78.1909 151.61 78.1309 149.61C78.1009 148.69 78.4109 148.38 79.2909 148.5C79.6009 148.54 79.9309 148.54 80.2509 148.5C80.9609 148.42 81.1209 148.74 81.1109 149.4C81.0709 151.32 81.0809 153.23 81.1009 155.15C81.1109 156.59 81.6509 157.17 83.0909 157.32C83.4509 157.36 83.8109 157.36 84.1709 157.35C85.6809 157.33 86.0109 157.04 86.0209 155.53C86.0409 151.94 86.0309 148.34 86.0309 144.75C86.0309 144.07 86.1109 143.38 86.0109 142.72C85.8409 141.53 86.3109 141.22 87.4609 141.3C88.9909 141.4 89.0009 141.33 89.0009 142.87C89.0009 147.26 89.0009 151.66 89.0009 156.05C89.0009 156.77 89.0109 157.49 88.8009 158.19C88.4109 159.5 87.7409 160.03 86.3909 160.04C85.3109 160.05 84.2309 160.01 83.1509 160.05C82.1509 160.11 81.3609 159.8 80.7809 158.8ZM51.7709 151.51C52.8909 152.49 53.7709 153.54 54.3509 154.84C54.5609 155.3 54.4409 156.16 55.0809 156.15C55.6109 156.14 56.0109 155.49 56.3709 155.01C56.8409 154.39 57.1109 153.7 57.1309 152.92C57.1609 151.93 56.5909 151.22 55.7609 151.06C54.5009 150.81 53.1509 150.67 51.7709 151.51Z" fill="#08266E"/>
<path d="M810.07 126.061C811.79 126.141 813.78 126.201 815.71 126.771C816.32 126.951 816.97 127.151 817 127.971C817.03 128.831 816.42 129.001 815.76 129.121C813.72 129.491 811.68 129.771 809.67 130.301C806.41 131.171 803.2 132.121 800.1 133.481C797.12 134.791 794.25 136.281 791.51 138.001C785.86 141.531 780.64 145.631 775.57 149.931C769.92 154.711 764.38 159.631 759 164.711C757.68 165.951 756.93 165.901 755.77 164.501C755.11 163.711 754.37 162.991 753.69 162.211C752.77 161.171 752.75 160.351 753.78 159.431C756.47 157.041 759.19 154.681 761.94 152.351C767.85 147.331 773.74 142.291 779.93 137.621C784.59 134.101 789.62 131.231 795.06 129.081C799.78 127.201 804.69 126.131 810.07 126.061Z" fill="#08266E"/>
<path d="M447.001 158.86C445.531 160.61 439.801 160.65 438.201 158.92C436.771 160.61 433.151 160.6 431.711 158.82C430.971 160.19 429.691 160.1 428.411 160.07C427.191 160.04 425.851 160.32 425.211 158.67C424.551 159.85 423.631 160.08 422.511 160.08C411.201 160.06 399.891 160.06 388.581 160.08C387.381 160.08 386.441 159.78 386.041 158.58C385.791 157.84 385.381 158.32 385.141 158.45C383.931 159.15 382.611 158.99 381.401 158.75C380.091 158.49 379.091 157.61 378.551 156.28C377.431 153.48 378.231 150.18 380.491 148.7C381.651 147.94 383.011 148.09 384.321 148.07C385.031 148.06 385.951 148.34 385.761 147.04C385.721 146.76 385.991 146.69 386.251 146.63C388.201 146.21 388.671 146.59 388.671 148.59C388.671 150.87 388.661 153.14 388.671 155.42C388.681 157.1 388.971 157.39 390.611 157.39C400.641 157.39 410.671 157.4 420.711 157.39C422.181 157.39 422.481 157.13 422.541 155.67C422.601 154.35 422.601 153.03 422.551 151.72C422.521 150.94 422.751 150.66 423.551 150.69C425.931 150.76 425.471 150.47 425.521 152.66C425.541 153.66 425.491 154.66 425.531 155.65C425.581 156.83 426.161 157.35 427.371 157.35C428.581 157.35 429.001 156.98 429.061 155.7C429.121 154.34 429.131 152.98 429.091 151.63C429.071 150.88 429.331 150.67 430.061 150.69C432.481 150.75 432.011 150.46 432.051 152.63C432.071 153.63 432.021 154.63 432.061 155.62C432.111 156.78 432.731 157.34 433.901 157.36C435.051 157.38 435.541 156.94 435.571 155.68C435.621 153.68 435.631 151.69 435.581 149.69C435.551 148.81 435.781 148.4 436.701 148.55C436.861 148.58 437.021 148.57 437.181 148.55C438.231 148.38 438.661 148.72 438.591 149.88C438.481 151.63 438.551 153.39 438.571 155.15C438.591 156.67 439.121 157.32 440.631 157.36C444.441 157.47 444.441 157.77 444.421 153.91C444.421 153.19 444.471 152.47 444.411 151.76C444.331 150.88 444.701 150.61 445.511 150.72C445.751 150.75 445.991 150.76 446.231 150.72C447.231 150.55 447.451 151.04 447.401 151.94C447.331 153.09 447.371 154.26 447.391 155.41C447.421 156.82 448.011 157.4 449.361 157.38C450.571 157.36 450.921 156.98 450.951 155.52C450.981 154.24 450.991 152.96 450.951 151.69C450.921 150.98 451.121 150.69 451.891 150.72C454.381 150.79 453.871 150.44 453.921 152.73C453.941 153.69 453.891 154.65 453.931 155.6C453.991 156.83 454.631 157.4 455.861 157.38C457.011 157.37 457.411 156.96 457.431 155.61C457.471 153.61 457.481 151.62 457.431 149.62C457.401 148.76 457.701 148.46 458.521 148.56C458.801 148.6 459.081 148.6 459.361 148.56C460.201 148.44 460.461 148.78 460.441 149.62C460.391 151.97 460.441 154.33 460.421 156.69C460.391 159.36 459.631 160.11 457.001 160.09C455.841 160.08 454.561 160.4 453.791 159.09C453.601 158.78 453.471 158.99 453.271 159.18C451.771 160.64 448.411 160.47 447.001 158.86ZM384.051 150.92C381.741 150.93 380.891 151.81 381.051 153.98C381.161 155.36 381.921 156.12 383.251 156.16C384.511 156.2 385.491 155.43 385.651 154.16C385.761 153.33 385.681 152.49 385.741 151.66C385.781 151.08 385.571 150.86 385.001 150.92C384.691 150.95 384.371 150.92 384.051 150.92Z" fill="#08266E"/>
<path d="M267.521 158.771C266.931 159.731 266.211 160.111 265.251 160.081C264.131 160.041 263.011 160.051 261.901 160.081C260.931 160.101 260.091 159.891 259.471 159.091C259.161 158.691 258.931 158.821 258.601 159.111C256.741 160.681 253.221 160.741 251.431 159.201C251.041 158.861 250.921 158.821 250.511 159.221C249.121 160.591 245.631 160.471 244.221 159.041C243.891 158.701 243.721 158.761 243.491 159.071C242.951 159.811 242.191 160.071 241.311 160.071C237.591 160.071 233.881 160.101 230.161 160.071C228.301 160.051 227.501 159.281 227.381 157.391C227.301 156.121 227.341 154.841 227.341 153.561C227.341 149.891 227.371 146.211 227.321 142.541C227.311 141.591 227.571 141.211 228.521 141.361C228.751 141.401 229.001 141.391 229.241 141.361C230.081 141.241 230.321 141.571 230.321 142.411C230.281 146.561 230.301 150.721 230.301 154.871C230.301 157.311 230.391 157.401 232.891 157.401C234.891 157.401 236.891 157.421 238.891 157.391C241.071 157.361 241.451 156.941 241.401 154.741C241.391 154.261 241.371 153.781 241.271 153.311C240.801 151.181 238.641 150.111 236.561 151.501C235.941 151.911 235.401 152.651 234.581 151.651C233.641 150.491 233.651 150.441 234.771 149.401C237.541 146.821 243.621 147.821 244.301 152.741C244.411 153.571 244.481 154.401 244.501 155.241C244.531 156.571 245.061 157.191 246.411 157.361C248.351 157.611 249.181 157.201 249.561 155.851C249.811 154.941 249.601 154.021 249.701 153.111C249.901 151.291 250.441 149.651 252.171 148.731C254.671 147.391 258.921 147.881 259.951 151.431C260.291 152.601 260.331 153.781 260.301 154.991C260.281 155.851 260.361 156.731 261.261 157.141C262.281 157.601 263.381 157.581 264.391 157.141C265.101 156.831 264.931 156.041 264.931 155.431C264.951 151.201 264.931 146.961 264.951 142.731C264.951 142.291 264.691 141.591 265.231 141.451C266.021 141.241 266.911 141.231 267.711 141.481C268.081 141.591 267.921 142.121 267.921 142.461C267.931 146.651 267.921 150.851 267.931 155.041C267.931 156.771 268.451 157.301 270.211 157.401C270.491 157.411 270.771 157.411 271.051 157.411C272.661 157.391 272.951 157.121 272.961 155.521C272.971 151.211 273.021 146.891 272.931 142.581C272.901 141.361 273.441 141.301 274.341 141.361C275.131 141.421 275.981 141.071 275.951 142.511C275.861 147.101 275.921 151.691 275.911 156.291C275.911 156.971 275.911 157.651 275.701 158.311C275.341 159.451 274.641 160.131 273.351 160.091C272.191 160.051 271.031 160.051 269.871 160.091C268.861 160.111 268.081 159.761 267.521 158.771ZM257.431 154.231C257.381 153.801 257.381 153.351 257.291 152.931C257.001 151.601 256.241 150.941 255.041 150.921C253.731 150.911 252.981 151.521 252.691 152.921C252.471 153.981 252.471 155.061 252.861 156.091C253.221 157.071 253.941 157.441 254.991 157.431C256.031 157.431 256.741 157.071 257.121 156.091C257.341 155.501 257.421 154.881 257.431 154.231Z" fill="#08266E"/>
<path d="M214.181 157.36C213.541 155.4 213.461 153.54 213.981 151.69C214.651 149.29 216.511 148.02 219.201 148.06C221.771 148.11 223.551 149.37 224.041 151.81C224.561 154.38 224.791 156.98 222.601 159.06C221.971 159.66 221.211 160.02 220.361 160.03C217.201 160.06 214.051 160.05 210.891 160.05C210.531 160.05 210.101 160.06 209.881 159.77C209.021 158.68 208.211 158.77 207.301 159.71C206.891 160.14 206.261 160.05 205.701 160.05C203.141 160.06 200.581 160.06 198.031 160.06C191.991 160.06 185.951 160.04 179.911 160.08C178.651 160.09 177.591 159.9 177.131 158.57C176.921 157.96 176.581 158.32 176.291 158.42C171.921 160.02 169.151 157.57 169.181 153.77C169.201 151.68 169.671 149.81 171.641 148.66C172.761 148 174.011 148.09 175.241 148.06C175.991 148.04 177.021 148.43 176.891 146.98C176.861 146.62 177.261 146.63 177.531 146.63C177.971 146.62 178.411 146.67 178.851 146.62C179.611 146.53 179.801 146.85 179.791 147.57C179.751 150.12 179.771 152.68 179.781 155.24C179.781 157.15 180.031 157.4 181.891 157.4C185.291 157.4 188.681 157.4 192.081 157.4C193.931 157.4 194.261 157.15 194.281 155.27C194.331 151.08 194.301 146.89 194.321 142.69C194.321 142.26 194.031 141.57 194.631 141.44C195.431 141.26 196.311 141.23 197.111 141.48C197.381 141.57 197.261 142.06 197.261 142.37C197.271 144.41 197.271 146.44 197.261 148.48C197.251 149.23 197.171 149.73 198.251 149.19C200.241 148.2 202.381 147.79 204.621 148.22C207.271 148.73 208.831 150.32 209.181 152.99C209.271 153.7 209.311 154.42 209.311 155.14C209.301 156.58 209.801 157.24 211.221 157.35C212.151 157.42 213.111 157.36 214.181 157.36ZM200.991 157.39C200.991 157.38 200.991 157.37 200.991 157.35C201.911 157.35 202.831 157.36 203.751 157.35C205.661 157.33 206.141 156.87 206.221 154.95C206.241 154.59 206.221 154.23 206.181 153.88C205.961 151.85 204.931 151.01 202.881 150.9C201.091 150.8 199.541 151.45 197.951 152.08C197.381 152.31 197.231 152.59 197.241 153.13C197.251 154.29 197.291 155.45 197.211 156.6C197.161 157.28 197.401 157.42 198.001 157.4C198.991 157.37 199.991 157.39 200.991 157.39ZM221.411 153.92C221.401 153.82 221.411 153.41 221.341 153.03C221.101 151.72 220.301 150.96 219.181 150.93C217.831 150.9 216.991 151.56 216.711 152.95C216.531 153.85 216.531 154.77 216.791 155.66C216.961 156.23 217.191 156.73 217.801 157.04C219.801 158.06 221.401 156.82 221.411 153.92ZM176.831 152.64C176.831 150.9 176.831 150.9 175.061 150.91C174.781 150.91 174.501 150.93 174.221 150.92C173.241 150.89 172.601 151.46 172.341 152.29C171.991 153.36 171.841 154.54 172.721 155.45C173.391 156.14 174.281 156.36 175.241 156.01C176.881 155.41 176.821 154.01 176.831 152.64Z" fill="#08266E"/>
<path d="M738.461 184.39C736.471 186.03 734.69 187.67 732.54 188.8C731.24 189.48 729.94 190.18 728.42 190.24C725.71 190.34 723.681 188.84 721.711 187.3C720.751 186.55 719.91 185.64 719.35 184.5C718.03 181.84 719.88 178.07 722.8 177.45C724.01 177.19 724.821 177.61 725.341 178.67C725.641 179.28 725.85 179.93 726.18 180.51C726.85 181.71 727.86 182 729.11 181.39C731.01 180.47 732.55 179.06 734.31 177.68C732.29 177.31 730.841 176.36 730.211 174.53C729.591 172.74 729.741 171.02 731.011 169.46C732.531 167.59 735.24 167.21 736.85 168.97C740.46 172.92 744.09 176.86 747.44 181.04C748.7 182.61 748.311 185.14 746.081 187.44C744.571 189 742.221 189.24 740.521 188.05C739.281 187.22 738.741 185.96 738.461 184.39Z" fill="#08266E"/>
<path d="M106.051 188.421C105.911 189.801 105.911 191.151 105.351 192.421C104.681 193.941 101.951 195.151 100.481 194.541C99.9208 194.301 100.161 193.791 100.121 193.391C100.041 192.401 99.9408 191.471 101.511 191.641C102.411 191.741 102.761 190.881 102.871 190.101C102.981 189.231 103.011 188.351 103.011 187.471C103.031 184.511 103.061 181.561 102.991 178.601C102.971 177.671 103.261 177.471 104.141 177.491C106.001 177.551 106.001 177.501 106.001 179.411C106.001 181.051 106.011 182.691 106.001 184.321C105.991 185.321 106.451 185.901 107.451 186.021C107.961 186.081 108.481 186.151 109.001 186.151C119.031 186.161 129.071 186.161 139.101 186.151C142.071 186.151 142.531 185.611 142.101 182.671C141.691 179.881 139.241 178.791 137.051 180.571C135.921 181.491 135.571 180.641 135.001 180.081C134.261 179.351 134.751 178.871 135.361 178.361C137.121 176.891 139.061 176.401 141.261 177.131C143.651 177.921 144.851 179.641 145.151 182.061C145.241 182.811 145.251 183.571 145.271 184.331C145.301 185.231 145.661 185.861 146.631 185.991C146.671 186.001 146.711 186.011 146.751 186.021C149.821 186.691 150.471 186.181 150.471 183.111C150.471 181.551 150.501 179.991 150.451 178.441C150.431 177.721 150.631 177.481 151.381 177.481C153.471 177.481 153.471 177.441 153.471 179.541C153.471 181.101 153.501 182.661 153.461 184.211C153.441 185.341 153.971 185.911 155.051 186.051C155.211 186.071 155.371 186.091 155.531 186.111C157.981 186.361 158.331 186.051 158.331 183.631C158.331 179.521 158.361 175.401 158.311 171.291C158.301 170.361 158.521 169.951 159.491 170.101C159.801 170.151 160.131 170.141 160.451 170.101C161.051 170.031 161.321 170.241 161.321 170.881C161.291 175.911 161.341 180.941 161.241 185.971C161.201 188.251 160.261 189.021 157.991 188.991C156.651 188.971 155.181 189.371 154.021 188.521C153.251 187.961 152.861 188.271 152.111 188.491C149.681 189.201 147.131 189.761 144.921 187.811C144.551 187.481 144.511 187.721 144.311 187.921C143.501 188.731 142.481 189.001 141.371 189.001C130.381 189.001 119.381 188.991 108.391 189.021C107.551 189.041 106.851 188.701 106.051 188.421Z" fill="#08266E"/>
<path d="M6.73013 188.451C6.59013 189.451 6.52013 190.401 6.32013 191.321C5.72013 194.191 3.83013 194.651 1.30013 194.561C0.890133 194.551 0.740133 194.341 0.740133 193.951C0.750133 193.431 0.760133 192.911 0.730133 192.391C0.700133 191.871 0.930133 191.731 1.43013 191.681C3.09013 191.531 3.51013 191.141 3.55013 189.471C3.62013 187.081 3.60013 184.681 3.61013 182.281C3.62013 180.921 3.63013 179.561 3.60013 178.211C3.59013 177.701 3.75013 177.541 4.27013 177.501C6.60013 177.331 6.60013 177.311 6.60013 179.681C6.60013 181.201 6.62013 182.721 6.59013 184.231C6.57013 185.351 7.10013 185.941 8.18013 186.071C8.69013 186.131 9.21013 186.161 9.73013 186.161C19.8801 186.171 30.0301 186.161 40.1901 186.161C42.3901 186.161 42.9101 185.601 42.8901 183.381C42.8801 182.661 42.8801 181.941 43.0001 181.231C43.4601 178.501 45.3301 176.891 47.9801 176.831C50.6001 176.781 52.9101 178.261 53.3601 181.051C53.5201 182.041 53.5101 183.031 53.5101 184.031C53.5201 185.471 54.0501 186.121 55.3701 186.141C57.8901 186.181 60.4101 186.171 62.9201 186.101C64.4101 186.061 64.7201 185.661 64.7501 184.201C64.7601 183.721 64.7601 183.241 64.7101 182.761C64.4001 179.921 61.8401 178.771 59.6101 180.591C58.5401 181.461 58.2201 180.701 57.6601 180.161C56.9501 179.471 57.2301 178.981 57.8901 178.421C59.6001 176.981 61.4901 176.421 63.6601 177.081C65.9301 177.771 67.2601 179.301 67.6701 181.651C67.9401 183.201 68.0001 184.751 67.6401 186.281C67.2201 188.101 66.2201 188.981 64.3701 189.011C61.2501 189.061 58.1401 189.031 55.0201 189.021C54.3201 189.021 53.5301 188.821 53.1501 188.361C52.3901 187.451 51.9501 187.921 51.2901 188.411C49.9901 189.361 46.0101 189.451 44.7201 188.131C44.3101 187.711 44.0301 187.751 43.6001 188.161C42.9901 188.761 42.1901 189.031 41.3201 189.031C30.4901 189.031 19.6601 189.021 8.83013 189.041C8.10013 189.041 7.46013 188.711 6.73013 188.451ZM50.6601 182.971C50.6101 182.581 50.6001 182.131 50.5001 181.711C50.2001 180.451 49.3201 179.721 48.1601 179.741C47.0301 179.761 46.2101 180.441 45.9301 181.691C45.7101 182.671 45.7101 183.671 45.9901 184.641C46.3901 186.061 47.8201 186.721 49.1801 186.141C50.6101 185.531 50.5301 184.241 50.6601 182.971Z" fill="#08266E"/>
<path d="M342.911 187.84C341.031 189.59 338.241 189.57 336.401 187.8C334.751 189.43 332.091 189.58 330.241 188.12C329.921 187.87 329.751 187.84 329.471 188.13C328.801 188.85 327.921 189.06 326.971 189.02C325.571 188.97 324.171 189.15 322.781 188.92C322.071 188.8 321.511 187.99 320.971 188.03C320.451 188.07 319.891 188.76 319.231 188.92C318.851 189.01 318.441 189.02 318.041 189.02C314.641 189.03 311.251 189 307.851 189.04C306.991 189.05 306.651 188.89 306.691 187.95C306.791 185.78 306.491 186.23 308.461 186.15C309.451 186.11 310.711 186.58 311.351 185.95C311.991 185.32 311.531 184.05 311.551 183.07C311.581 180.4 311.601 177.72 311.541 175.05C311.521 174.14 311.801 173.8 312.691 173.93C312.961 173.97 313.251 173.97 313.531 173.93C314.311 173.82 314.561 174.13 314.551 174.92C314.511 178.27 314.571 181.63 314.511 184.98C314.491 185.92 314.761 186.19 315.701 186.18C318.401 186.14 318.401 186.18 318.401 183.43C318.401 179.4 318.421 175.36 318.381 171.33C318.371 170.44 318.551 169.94 319.561 170.12C319.831 170.17 320.121 170.16 320.401 170.12C321.181 170.01 321.421 170.31 321.411 171.11C321.371 175.34 321.391 179.57 321.391 183.81C321.391 185.61 321.731 186.06 323.501 186.12C327.761 186.28 327.181 186.26 327.231 182.78C327.241 182.26 327.191 181.74 327.241 181.22C327.301 180.65 326.911 179.8 327.511 179.58C328.211 179.32 329.091 179.44 329.881 179.52C330.371 179.56 330.231 180.07 330.231 180.41C330.241 181.77 330.211 183.13 330.241 184.48C330.271 185.7 330.691 186.06 331.961 186.1C333.291 186.14 333.651 185.87 333.721 184.61C333.791 183.22 333.811 181.82 333.781 180.42C333.771 179.72 333.951 179.43 334.721 179.46C337.211 179.54 336.721 179.2 336.771 181.46C336.791 182.5 336.771 183.54 336.781 184.57C336.791 185.72 337.521 186.05 338.511 186.1C339.511 186.15 340.251 185.86 340.261 184.68C340.281 182.64 340.331 180.61 340.291 178.57C340.281 177.78 340.431 177.46 341.321 177.48C343.271 177.53 343.271 177.48 343.271 179.42C343.271 180.98 343.261 182.53 343.271 184.09C343.291 185.43 343.671 185.85 344.991 186.08C345.111 186.1 345.231 186.11 345.351 186.12C348.021 186.4 348.331 186.12 348.331 183.47C348.331 179.4 348.351 175.32 348.311 171.25C348.301 170.38 348.491 169.96 349.421 170.11C349.691 170.15 349.981 170.15 350.261 170.11C351.111 169.99 351.351 170.36 351.341 171.18C351.311 175.81 351.341 180.44 351.321 185.07C351.311 188.25 350.521 189.03 347.351 189.01C346.211 189 345.041 189.18 343.931 188.63C343.501 188.44 343.291 188.04 342.911 187.84Z" fill="#08266E"/>
<path d="M250.981 186.16C248.701 183.22 248.561 180.25 250.481 178.45C252.471 176.59 256.601 176.57 258.641 178.42C260.611 180.2 260.461 183.21 258.151 186.16C258.551 186.16 258.841 186.16 259.131 186.16C272.161 186.16 285.191 186.16 298.221 186.16C301.321 186.16 301.691 185.73 301.321 182.66C300.991 179.97 298.561 178.91 296.331 180.47C295.371 181.14 294.321 180.74 293.891 179.59C293.711 179.12 294.011 178.9 294.251 178.68C295.861 177.17 297.731 176.42 299.931 176.98C302.141 177.54 303.671 178.85 304.201 181.16C304.581 182.82 304.631 184.49 304.321 186.15C303.951 188.09 302.811 188.99 300.791 189.02C299.191 189.04 297.591 189.03 295.991 189.03C283.241 189.03 270.491 189.03 257.741 189.03C256.901 189.03 256.071 188.98 255.271 188.65C254.991 188.53 254.621 188.45 254.351 188.53C251.251 189.44 248.071 188.88 244.931 189.02C243.531 189.08 242.131 189.05 240.731 189.03C239.021 189 238.051 188.25 237.941 186.55C237.791 184.28 237.861 182 237.821 179.73C237.811 179.23 238.031 179.06 238.531 179.02C240.771 178.84 240.771 178.82 240.771 181.08C240.771 182.32 240.791 183.56 240.771 184.79C240.751 185.7 241.201 186.1 242.061 186.14C242.261 186.15 242.461 186.16 242.661 186.16C245.371 186.16 248.081 186.16 250.981 186.16ZM254.481 179.45C254.041 179.42 253.581 179.52 253.141 179.89C252.181 180.67 252.001 181.68 252.171 182.78C252.371 184.04 253.171 184.88 254.241 185.52C254.641 185.76 254.991 185.56 255.221 185.36C255.761 184.91 256.321 184.45 256.651 183.79C257.711 181.76 256.601 179.44 254.481 179.45Z" fill="#08266E"/>
<path d="M388.891 186.94C385.641 189.19 381.621 187.3 381.201 183.43C381.091 182.44 381.151 181.44 381.411 180.46C382.001 178.28 383.761 176.9 386.031 176.85C386.631 176.84 387.231 176.83 387.831 176.85C388.431 176.87 388.971 176.89 388.831 176.02C388.751 175.55 389.051 175.44 389.471 175.4C391.991 175.14 391.981 175.13 391.981 177.63C391.981 179.75 391.981 181.86 391.981 183.98C391.981 186 392.151 186.17 394.151 186.17C405.541 186.17 416.921 186.17 428.311 186.17C429.831 186.17 431.351 186.19 432.861 186.16C434.291 186.14 434.551 185.9 434.591 184.49C434.641 182.5 434.651 180.5 434.611 178.5C434.591 177.72 434.821 177.48 435.611 177.49C437.591 177.51 437.591 177.47 437.591 179.41C437.591 181.01 437.601 182.6 437.591 184.2C437.581 185.28 438.061 185.93 439.161 186.06C439.281 186.07 439.401 186.1 439.511 186.11C442.471 186.49 442.841 186.17 442.841 183.23C442.841 181.63 442.881 180.04 442.821 178.44C442.801 177.71 443.021 177.49 443.761 177.49C445.841 177.49 445.841 177.45 445.841 179.56C445.841 181.56 445.871 183.55 445.831 185.55C445.771 188.2 444.891 189.02 442.251 189.02C441.451 189.02 440.651 189.02 439.851 189.02C439.031 189.01 438.261 188.82 437.671 188.23C437.311 187.86 437.111 187.87 436.731 188.24C436.111 188.85 435.281 189.03 434.421 189.03C420.241 189.03 406.051 189.03 391.871 189.02C390.151 189.02 389.561 188.59 388.891 186.94ZM388.831 181.91C388.831 181.31 388.791 181.07 388.841 180.84C389.021 179.85 388.561 179.57 387.651 179.69C387.341 179.73 387.011 179.69 386.701 179.71C384.901 179.83 384.051 180.76 384.091 182.57C384.121 184.03 384.841 184.82 386.221 184.92C387.641 185.03 388.571 184.3 388.781 182.87C388.841 182.44 388.821 181.99 388.831 181.91Z" fill="#08266E"/>
<path d="M149.97 157.39C148.93 155.79 148.65 154.24 148.93 152.56C149.47 149.38 152.19 147.58 155.55 148.11C156.79 148.31 157.76 148.92 158.71 149.65C159.69 150.41 158.92 150.96 158.48 151.5C158.06 152.01 157.67 152.57 156.86 151.8C155.41 150.41 153.44 150.77 152.69 151.7C151.78 152.84 151.67 154.11 152.22 155.41C152.75 156.66 153.56 157.52 155.11 157.41C156.38 157.32 157.67 157.42 158.94 157.38C159.6 157.36 159.9 157.55 159.82 158.24C159.78 158.55 159.78 158.88 159.82 159.2C159.93 159.98 159.56 160.13 158.86 160.12C154.86 160.08 150.87 160.07 146.87 160.08C145.92 160.08 145.16 159.79 144.63 158.8C143.94 159.92 142.93 160.11 141.77 160.1C135.74 160.07 129.7 160.08 123.67 160.07C123.24 160.07 122.81 160.07 122.36 160.07C122.94 162.72 122.47 164.22 120.73 165.09C119.84 165.53 118.88 165.79 117.86 165.78C115.66 165.76 113.46 165.79 111.27 165.77C107.15 165.73 104.76 163.17 105.01 159.07C105.11 157.41 105.58 155.86 106.38 154.4C106.64 153.93 106.91 153.57 107.44 154.12C107.52 154.2 107.65 154.22 107.76 154.28C109.23 155.03 109.24 155.04 108.62 156.6C108.17 157.73 107.86 158.87 108.08 160.09C108.35 161.55 109.29 162.49 110.77 162.7C113.27 163.06 115.78 162.99 118.29 162.74C119 162.67 119.52 162.39 119.67 161.66C119.82 160.93 119.46 160.42 118.88 160.06C117.73 159.36 116.5 158.79 115.22 158.39C114.48 158.16 114.41 157.86 114.63 157.18C115.26 155.24 115.24 155.21 117.14 156.08C119.12 156.99 121.16 157.43 123.37 157.4C128.88 157.32 134.4 157.38 139.91 157.37C141.79 157.37 142 157.16 142.01 155.32C142.02 151.05 142.04 146.78 141.99 142.5C141.98 141.53 142.27 141.19 143.2 141.33C143.43 141.36 143.68 141.36 143.92 141.33C144.75 141.21 145.02 141.54 145.01 142.39C144.97 146.38 144.99 150.38 144.99 154.37C144.99 157 145.37 157.37 148.07 157.38C148.63 157.39 149.19 157.39 149.97 157.39Z" fill="#08266E"/>
<path d="M496.571 149.67C496.571 152.15 496.641 154.62 496.551 157.1C496.471 159.38 495.741 160.03 493.461 160.09C492.301 160.12 491.141 160.07 489.981 160.07C489.531 160.07 489.051 160.03 488.761 159.69C487.901 158.69 487.221 159.09 486.291 159.69C484.551 160.8 481.511 160.45 479.901 159.13C479.671 158.94 479.471 158.67 479.231 159.02C478.351 160.3 477.021 160.07 475.761 160.08C474.081 160.09 474.081 160.08 473.931 161.67C473.681 164.28 472.091 165.75 469.441 165.79C468.441 165.8 467.441 165.73 466.441 165.81C465.561 165.88 465.361 165.52 465.391 164.71C465.461 162.6 465.211 162.97 467.191 162.93C468.031 162.91 468.871 162.97 469.691 162.75C470.011 162.66 470.301 162.59 470.501 162.3C470.901 161.72 471.201 161.03 470.971 160.39C470.761 159.8 470.051 160.17 469.571 160.12C468.941 160.05 468.291 160.08 467.651 160.07C465.631 160.02 464.171 158.92 463.661 156.96C463.201 155.15 463.191 153.33 463.801 151.53C464.611 149.14 466.481 147.93 469.141 148.07C471.651 148.2 473.221 149.58 473.771 152.08C474.071 153.47 474.011 154.87 473.941 156.26C473.891 157.27 474.261 157.53 475.151 157.4C475.311 157.38 475.471 157.4 475.631 157.4C477.591 157.4 478.291 156.69 478.231 154.71C478.201 153.75 478.221 152.79 478.451 151.86C479.101 149.3 480.821 148.04 483.631 148.07C486.321 148.1 488.031 149.44 488.621 151.96C488.851 152.94 488.871 153.93 488.851 154.93C488.831 155.83 488.881 156.77 489.861 157.16C490.921 157.58 492.061 157.59 493.111 157.11C493.771 156.81 493.641 156.09 493.641 155.5C493.651 151.19 493.711 146.87 493.611 142.56C493.581 141.19 494.281 141.36 495.151 141.33C496.071 141.31 496.721 141.3 496.651 142.59C496.531 144.94 496.621 147.3 496.621 149.66C496.591 149.67 496.581 149.67 496.571 149.67ZM471.131 155.16C471.051 154.37 471.051 153.56 470.881 152.79C470.681 151.87 470.251 151.09 469.151 150.93C467.891 150.74 467.091 151.32 466.581 152.4C466.171 153.26 466.191 154.19 466.281 155.1C466.421 156.5 467.171 157.22 468.581 157.36C471.081 157.62 471.081 157.62 471.131 155.16ZM486.001 154.25C485.941 153.78 485.921 153.34 485.821 152.92C485.481 151.46 484.741 150.89 483.331 150.93C482.211 150.96 481.421 151.73 481.201 153.07C481.061 153.94 481.041 154.82 481.261 155.68C481.541 156.78 482.151 157.49 483.431 157.45C484.841 157.41 485.401 157.07 485.761 155.76C485.891 155.25 485.931 154.73 486.001 154.25Z" fill="#08266E"/>
<path d="M195.18 189.03C195.36 189.93 195.57 190.7 195.4 191.51C195.02 193.28 193.74 194.4 191.33 194.5C188.39 194.62 185.43 194.75 182.48 194.38C179.35 193.99 177.98 191.57 177.8 189.2C177.65 187.28 178.12 185.49 178.9 183.75C179.31 182.82 179.7 182.66 180.7 183.18C181.83 183.77 182.12 184.29 181.48 185.39C180.97 186.26 180.79 187.25 180.81 188.27C180.86 190.33 182.11 191.65 184.17 191.68C186.33 191.72 188.49 191.69 190.64 191.69C191.46 191.69 192.18 191.46 192.42 190.6C192.69 189.65 192.06 189.07 191.34 188.7C190.46 188.25 189.52 187.94 188.59 187.59C187.28 187.1 186.94 185.36 187.98 184.4C188.27 184.13 188.58 184.27 188.86 184.43C191.57 186.06 194.54 186.24 197.61 186.2C203.88 186.12 210.16 186.17 216.43 186.19C217.25 186.19 217.77 186.23 217.41 185.09C217.01 183.83 217.11 182.48 217.35 181.17C217.82 178.62 219.81 176.92 222.33 176.86C224.79 176.79 227.19 178.18 227.69 180.97C227.9 182.17 227.96 183.36 227.81 184.54C227.45 187.52 225.69 189.04 222.66 189.05C213.95 189.06 205.24 189.05 196.52 189.05C196.1 189.03 195.67 189.03 195.18 189.03ZM220.16 182.87C220.16 183.03 220.16 183.19 220.16 183.35C220.21 185.34 220.94 186.16 222.61 186.12C224.21 186.09 224.91 185.26 224.96 183.36C224.98 182.64 224.97 181.93 224.71 181.25C224.19 179.89 222.79 179.38 221.49 180.05C220.31 180.65 220.14 181.72 220.16 182.87Z" fill="#08266E"/>
<path d="M769.341 107.82C769.341 107.74 769.341 107.66 769.341 107.58C769.301 105.33 769.421 105.26 771.491 106.25C776.401 108.59 777.771 112.97 775.281 118.41C774.941 119.16 774.171 119.91 774.241 120.6C774.281 121.05 775.491 121.37 776.151 121.79C777.691 122.77 778.411 124.2 778.371 126.02C778.271 130.21 775.691 132.97 772.041 134.19C770.631 134.66 769.161 134.78 767.711 135C767.051 135.1 766.651 134.9 766.951 134.14C768.831 129.41 767.501 125.23 764.701 121.34C764.151 120.58 764.281 120.18 764.801 119.52C767.521 116.1 769.271 112.28 769.341 107.82Z" fill="#20C1E3"/>
<path d="M727.791 107.42C727.781 111.92 729.421 115.83 732.181 119.28C732.921 120.21 732.871 120.7 732.201 121.65C729.571 125.43 728.371 129.52 730.161 134.05C730.441 134.75 730.251 135.07 729.511 134.99C727.051 134.72 724.631 134.37 722.501 132.93C719.861 131.14 718.701 128.6 718.771 125.5C718.831 123.29 720.251 121.92 722.131 121.12C723.121 120.7 722.931 120.4 722.521 119.69C721.271 117.52 720.411 115.21 720.671 112.64C721.001 109.34 723.101 107.43 725.941 106.13C726.081 106.06 726.241 106.03 726.391 105.97C727.751 105.38 727.871 105.47 727.771 106.94C727.781 107.1 727.791 107.26 727.791 107.42Z" fill="#EE4054"/>
<path d="M309.681 157.39C313.321 157.39 316.951 157.39 320.591 157.39C322.571 157.39 323.251 156.71 323.181 154.71C323.151 153.82 323.201 152.95 323.381 152.09C323.991 149.12 326.441 147.59 329.571 148.13C331.791 148.51 333.151 149.79 333.601 151.95C334.091 154.35 334.161 156.74 332.481 158.78C331.191 160.35 329.371 160.41 327.551 160.24C326.571 160.15 325.561 159.97 324.871 159.12C324.521 158.69 324.331 158.89 324.051 159.22C323.501 159.85 322.771 160.08 321.921 160.08C313.331 160.07 304.731 160.06 296.141 160.08C295.111 160.08 294.311 159.74 293.971 158.76C293.721 158.01 293.351 158.24 292.921 158.48C291.671 159.16 290.331 159.02 289.071 158.71C287.651 158.36 286.711 157.33 286.241 155.89C285.321 153.13 286.181 150.07 288.381 148.66C289.471 147.96 290.751 148.09 291.981 148.06C292.731 148.04 293.771 148.44 293.621 146.98C293.581 146.62 293.991 146.63 294.261 146.63C294.701 146.62 295.141 146.67 295.581 146.62C296.331 146.53 296.531 146.85 296.521 147.57C296.481 150.21 296.501 152.84 296.511 155.48C296.521 157.07 296.831 157.39 298.401 157.39C302.171 157.4 305.931 157.39 309.681 157.39ZM326.091 154.28C326.111 154.56 326.131 154.91 326.181 155.27C326.381 156.7 327.031 157.38 328.241 157.43C329.861 157.49 330.481 157.01 330.821 155.46C331.041 154.47 331.041 153.47 330.691 152.52C330.341 151.58 329.771 150.93 328.601 150.91C327.411 150.88 326.751 151.43 326.351 152.45C326.141 153.01 326.131 153.6 326.091 154.28ZM293.601 152.62C293.601 150.91 293.601 150.91 291.931 150.92C291.611 150.92 291.291 150.94 290.971 150.93C289.991 150.91 289.381 151.49 289.101 152.31C288.731 153.39 288.611 154.56 289.491 155.46C290.161 156.15 291.061 156.36 292.021 156C293.651 155.39 293.601 154 293.601 152.62Z" fill="#08266E"/>
<path d="M352.38 157.38C354.27 157.38 355.9 157.39 357.53 157.38C358.73 157.37 358.93 156.58 358.93 155.6C358.92 151.29 358.92 146.98 358.94 142.66C358.94 142.23 358.65 141.53 359.27 141.42C360.07 141.27 360.94 141.21 361.74 141.49C362.02 141.59 361.92 141.99 361.92 142.26C361.92 147.09 361.93 151.92 361.91 156.75C361.91 157.47 361.81 158.18 361.47 158.84C361.07 159.61 360.49 160.07 359.59 160.07C356.83 160.07 354.05 160.28 351.33 159.98C349.8 159.81 348.38 159.84 346.86 159.99C344.41 160.24 341.91 160.09 339.44 160.06C338.05 160.05 337.32 159.43 337.02 158.07C336.9 157.53 336.86 156.96 336.86 156.41C336.85 151.78 336.88 147.15 336.83 142.52C336.82 141.56 337.11 141.29 338.05 141.33C340.15 141.42 339.84 141.11 339.85 143.1C339.86 147.25 339.85 151.4 339.86 155.56C339.86 157.1 340.14 157.39 341.69 157.38C343.17 157.37 344.64 157.32 346.12 157.27C347.03 157.24 347.18 156.77 346.82 156.01C346.25 154.8 345.44 153.82 344.34 153.03C342.84 151.95 343.16 149.75 344.81 148.96C347.13 147.85 349.57 147.73 351.93 148.38C354.44 149.08 355.65 151.28 354.6 154.31C354.19 155.47 353.3 156.28 352.38 157.38ZM346.51 151.54C347.7 152.46 348.51 153.51 349.07 154.76C349.29 155.24 349.29 156.12 349.76 156.13C350.4 156.14 350.81 155.4 351.21 154.86C351.62 154.3 351.85 153.68 351.89 152.98C351.96 151.94 351.38 151.19 350.49 151.03C349.23 150.82 347.88 150.66 346.51 151.54Z" fill="#08266E"/>
<path d="M496.61 178.581C496.61 180.821 496.63 183.051 496.6 185.291C496.56 188.261 495.77 189.051 492.8 189.021C491.46 189.011 490.08 189.251 488.8 188.571C488.38 188.351 486.7 188.411 486.24 188.571C484.04 189.361 481.89 189.441 479.88 188.031C479.63 187.851 479.54 187.591 479.15 187.961C477.63 189.371 475.8 189.301 474 188.701C473.23 188.451 473.11 188.621 473.09 189.281C473.08 189.721 473.05 190.161 472.99 190.591C472.61 193.521 470.89 194.841 467.96 194.551C467.45 194.501 467.24 194.331 467.26 193.831C467.28 193.351 467.28 192.871 467.26 192.391C467.24 191.891 467.43 191.711 467.95 191.661C469.66 191.501 470.07 191.101 470.1 189.351C470.16 185.801 470.18 182.241 470.13 178.691C470.11 177.651 470.44 177.431 471.4 177.471C473.15 177.551 473.15 177.491 473.15 179.271C473.15 180.951 473.16 182.621 473.15 184.301C473.14 185.301 473.6 185.881 474.59 186.001C475.14 186.071 475.7 186.131 476.26 186.121C477.32 186.111 478.01 185.611 478.11 184.501C478.19 183.591 478.18 182.671 478.25 181.761C478.47 178.911 480.34 176.961 482.97 176.801C485.8 176.641 488.29 178.141 488.71 181.161C488.84 182.081 488.85 182.991 488.85 183.901C488.84 185.491 489.41 186.071 490.98 186.121C491.18 186.131 491.38 186.121 491.58 186.121C493.45 186.111 493.64 185.931 493.64 184.071C493.65 179.801 493.67 175.531 493.62 171.251C493.61 170.291 493.88 169.931 494.82 170.081C495.01 170.111 495.22 170.111 495.42 170.081C496.49 169.881 496.66 170.421 496.64 171.351C496.57 173.791 496.61 176.191 496.61 178.581ZM481.09 183.031C481.13 183.471 481.13 183.911 481.22 184.331C481.48 185.661 482.24 186.331 483.48 186.351C484.73 186.371 485.47 185.761 485.8 184.401C486.06 183.291 486.06 182.181 485.62 181.121C485.23 180.171 484.43 179.731 483.45 179.761C482.51 179.791 481.79 180.241 481.41 181.151C481.17 181.751 481.1 182.381 481.09 183.031Z" fill="#08266E"/>
<path d="M823.971 58.5497C823.981 62.6597 821.561 65.7496 817.631 66.8796C815.611 67.4596 811.641 65.9296 810.031 63.2596C807.611 59.2296 808.711 53.5197 812.721 51.1297C817.131 48.4997 822.231 51.1197 823.651 56.0597C823.891 56.8797 823.991 57.7097 823.971 58.5497Z" fill="#20C1E3"/>
<path d="M677.73 171.74C675.48 169.07 673.79 166.44 672.4 163.62C670.05 158.83 668.37 153.79 667.69 148.5C666.96 142.86 669.67 138.73 674.42 136.15C674.63 136.03 674.79 135.85 675.03 136.1C675.26 136.34 675.24 136.6 675.17 136.88C674.83 138.11 674.62 139.37 674.47 140.64C673.96 144.93 674.69 149.07 676.04 153.12C676.42 154.27 676.44 155.2 675.89 156.38C674.14 160.18 674.8 163.76 677.49 166.94C677.89 167.42 678.04 167.79 677.85 168.4C677.54 169.37 677.6 170.38 677.73 171.74Z" fill="#EE4054"/>
<path d="M464.851 26.9999C463.171 26.9999 461.501 27.0099 459.821 26.9999C458.451 26.9899 458.201 26.7399 458.201 25.3999C458.191 22.4099 458.191 19.4199 458.201 16.4299C458.201 14.9899 458.501 14.6999 459.981 14.6999C463.251 14.6899 466.531 14.6899 469.801 14.6999C471.241 14.7099 471.541 15.0199 471.541 16.4799C471.551 19.4699 471.511 22.4599 471.561 25.4499C471.581 26.6099 471.081 27.0199 470.001 27.0099C468.281 26.9899 466.571 26.9999 464.851 26.9999Z" fill="#08266E"/>
<path d="M448.241 26.9997C446.521 26.9997 444.811 26.9897 443.091 26.9997C442.081 26.9997 441.561 26.6297 441.581 25.5097C441.631 22.4397 441.631 19.3697 441.581 16.2997C441.561 15.1597 442.061 14.6797 443.131 14.6797C446.561 14.6797 449.991 14.6797 453.431 14.6797C454.451 14.6797 454.941 15.1597 454.931 16.2197C454.901 19.3297 454.901 22.4397 454.931 25.5497C454.941 26.5897 454.461 26.9897 453.491 26.9897C451.751 26.9997 449.991 26.9997 448.241 26.9997Z" fill="#08266E"/>
<path d="M456.481 12.3201C454.761 12.3201 453.051 12.3101 451.331 12.3201C450.241 12.3301 449.731 11.8601 449.751 10.7301C449.781 7.70012 449.751 4.67012 449.771 1.64012C449.781 0.400117 450.161 0.0201172 451.451 0.0101172C454.761 -0.00988281 458.081 -0.00988281 461.391 0.0101172C462.801 0.0201172 463.131 0.380117 463.141 1.81012C463.151 4.76012 463.151 7.71012 463.141 10.6601C463.141 11.9701 462.821 12.3001 461.521 12.3101C459.831 12.3301 458.151 12.3201 456.481 12.3201Z" fill="#08266E"/>
<path d="M451.76 177.86C451.76 180.1 451.78 182.33 451.75 184.57C451.74 185.59 452.13 186.17 453.2 186.16C455.8 186.15 458.39 186.18 460.99 186.11C462.51 186.07 462.84 185.64 462.87 184.12C462.88 183.76 462.89 183.4 462.85 183.04C462.7 181.78 462.41 180.63 461.07 180.03C459.71 179.43 458.51 179.81 457.54 180.69C456.52 181.61 456.28 180.6 455.8 180.18C455.23 179.69 455.1 179.18 455.76 178.6C457.49 177.1 459.43 176.38 461.71 177.06C464.09 177.77 465.43 179.39 465.81 181.82C466.04 183.25 466.08 184.68 465.79 186.11C465.41 187.98 464.38 188.98 462.54 189.01C458.87 189.07 455.19 189.05 451.51 189.02C450.04 189.01 449.23 188.28 448.93 186.85C448.83 186.35 448.79 185.82 448.79 185.31C448.78 180.64 448.81 175.97 448.76 171.3C448.75 170.34 449.03 169.98 449.96 170.13C450.19 170.17 450.44 170.16 450.68 170.13C451.49 170.01 451.79 170.29 451.77 171.16C451.72 173.39 451.76 175.63 451.76 177.86Z" fill="#08266E"/>
<path d="M84.7402 178.601C84.7402 180.991 84.7602 183.391 84.7402 185.781C84.7202 188.151 83.8202 189.031 81.4702 189.031C78.0402 189.031 74.6002 188.981 71.1702 189.061C70.0402 189.091 70.0202 188.521 70.1002 187.751C70.1702 187.061 69.6802 186.031 71.1202 186.151C72.0702 186.231 73.0402 186.121 73.9902 186.181C74.7702 186.231 75.0202 185.971 75.0102 185.171C74.9702 181.821 75.0802 178.461 74.9502 175.121C74.9002 173.691 75.7102 173.971 76.5202 173.931C77.3902 173.891 78.0002 173.881 77.9702 175.121C77.8702 178.471 77.9602 181.821 77.9202 185.171C77.9102 185.961 78.1402 186.171 78.9202 186.171C81.8302 186.181 81.8302 186.211 81.8302 183.261C81.8302 179.271 81.8602 175.281 81.8102 171.291C81.8002 170.361 82.0202 169.951 82.9902 170.101C83.2602 170.141 83.5502 170.141 83.8302 170.101C84.5802 169.991 84.7802 170.301 84.7702 171.031C84.7202 173.571 84.7402 176.081 84.7402 178.601Z" fill="#08266E"/>
<path d="M371.081 186.2C371.081 187.52 371.121 188.83 371.071 190.15C370.961 193.06 369.471 194.51 366.571 194.56C365.571 194.58 364.571 194.52 363.581 194.58C362.831 194.62 362.441 194.42 362.541 193.6C362.581 193.29 362.571 192.96 362.541 192.64C362.471 191.94 362.701 191.62 363.471 191.68C364.341 191.74 365.221 191.7 366.101 191.68C367.361 191.66 367.981 191.08 368.141 189.84C368.221 189.25 368.101 188.99 367.421 189C366.191 189 364.961 189.12 363.731 188.8C362.081 188.37 361.151 187.28 360.761 185.72C360.321 183.99 360.311 182.24 360.851 180.53C361.641 178.03 363.631 176.62 366.291 176.86C368.731 177.08 370.501 178.43 370.901 181.06C370.941 181.3 371.021 181.53 371.021 181.77C371.031 183.24 371.031 184.72 371.031 186.19C371.061 186.2 371.071 186.2 371.081 186.2ZM368.181 183.77C368.141 183.09 368.241 182.26 368.001 181.44C367.711 180.44 367.041 179.88 366.061 179.77C365.071 179.66 364.311 180.15 363.831 181.04C363.331 181.96 363.301 182.95 363.411 183.94C363.571 185.4 364.121 185.93 365.591 186.13C368.181 186.46 368.181 186.46 368.181 183.77Z" fill="#08266E"/>
<path d="M354.54 179.58C354.54 176.79 354.56 174 354.52 171.21C354.51 170.42 354.67 170.08 355.56 170.1C357.54 170.14 357.54 170.09 357.54 172.05C357.54 177.23 357.49 182.41 357.58 187.59C357.6 188.86 357.2 189.23 356.05 189.04C356.01 189.03 355.97 189.03 355.93 189.04C354.73 189.27 354.49 188.71 354.52 187.59C354.6 184.92 354.54 182.25 354.54 179.58Z" fill="#08266E"/>
<path d="M91.1009 179.64C91.1009 182.39 91.0709 185.14 91.1209 187.89C91.1409 188.75 90.9609 189.09 90.0109 189.05C87.7409 188.95 88.1009 189.31 88.0909 187.17C88.0709 181.91 88.1109 176.65 88.0609 171.39C88.0509 170.43 88.2609 169.95 89.2909 170.13C89.4109 170.15 89.5309 170.15 89.6509 170.13C90.7609 169.94 91.1709 170.32 91.1209 171.52C91.0309 174.22 91.1009 176.93 91.1009 179.64Z" fill="#08266E"/>
<path d="M95.4101 150.7C95.4101 153.45 95.3701 156.21 95.4301 158.96C95.4501 159.84 95.2401 160.13 94.3201 160.1C92.4001 160.04 92.4001 160.09 92.4001 158.12C92.4001 153.01 92.4501 147.91 92.3601 142.8C92.3401 141.52 92.7501 141.15 93.9101 141.35C93.9501 141.36 93.9901 141.36 94.0301 141.35C95.0801 141.18 95.4901 141.53 95.4501 142.69C95.3401 145.35 95.4101 148.03 95.4101 150.7Z" fill="#08266E"/>
<path d="M365.33 150.7C365.33 147.95 365.36 145.19 365.31 142.44C365.3 141.63 365.49 141.32 366.36 141.34C368.28 141.37 368.28 141.32 368.28 143.22C368.28 148.45 368.26 153.68 368.3 158.91C368.31 159.83 368.1 160.24 367.13 160.09C366.82 160.04 366.49 160.05 366.17 160.09C365.48 160.17 365.29 159.89 365.3 159.22C365.35 156.37 365.33 153.53 365.33 150.7Z" fill="#08266E"/>
<path d="M502.99 179.62C502.99 182.41 502.951 185.2 503.011 187.99C503.031 188.86 502.74 189.07 501.93 189.03C499.7 188.94 500.06 189.33 500.05 187.12C500.03 181.94 500.091 176.75 500.011 171.57C499.991 170.31 500.371 170.09 501.541 170.07C502.771 170.05 503.07 170.4 503.03 171.59C502.92 174.28 502.99 176.95 502.99 179.62Z" fill="#08266E"/>
<path d="M167.681 179.55C167.681 182.34 167.641 185.13 167.701 187.92C167.721 188.82 167.471 189.17 166.571 189.03C166.221 188.98 165.851 189 165.491 189.03C164.921 189.08 164.721 188.85 164.721 188.28C164.731 182.5 164.741 176.72 164.721 170.94C164.721 170.32 164.921 170.14 165.551 170.12C167.681 170.06 167.681 170.03 167.681 172.13C167.681 174.6 167.681 177.07 167.681 179.55Z" fill="#08266E"/>
<path d="M500.041 150.6C500.041 147.89 500.08 145.17 500.02 142.46C500 141.54 500.291 141.23 501.171 141.35C501.521 141.4 501.891 141.38 502.251 141.35C502.831 141.3 503.001 141.56 503.001 142.12C502.991 147.87 502.981 153.62 503.001 159.36C503.001 159.98 502.761 160.06 502.231 160.08C500.041 160.16 500.041 160.18 500.041 158.02C500.041 155.55 500.041 153.07 500.041 150.6Z" fill="#08266E"/>
<path d="M689.83 158.87C693.06 159.31 696.06 160.3 698.59 162.46C699.18 162.96 698.92 163.29 698.45 163.53C696.87 164.34 695.54 165.42 694.46 166.83C694.17 167.21 693.79 167.28 693.43 166.96C692.23 165.92 691 164.9 690.87 163.12C690.76 161.63 689.97 160.53 688.76 159.7C688.55 159.56 688.11 159.56 688.2 159.19C688.29 158.79 688.71 158.91 689.01 158.88C689.27 158.85 689.55 158.87 689.83 158.87Z" fill="#EE4054"/>
<path d="M468.721 145.92C467.961 145.92 467.201 145.92 466.451 145.92C466.121 145.92 465.771 145.92 465.741 145.49C465.721 145.15 465.571 144.63 465.991 144.55C466.681 144.42 466.511 144.08 466.431 143.64C466.191 142.34 466.611 141.18 467.671 140.68C468.781 140.15 469.961 140.14 471.071 140.83C471.491 141.09 471.831 141.42 471.481 141.87C471.231 142.19 470.981 142.8 470.281 142.21C469.731 141.76 468.911 141.68 468.321 142.3C467.881 142.76 467.971 143.33 468.251 143.86C468.501 144.34 468.931 144.48 469.451 144.46C470.051 144.44 470.651 144.46 471.241 144.46C471.751 144.46 471.801 144.79 471.801 145.18C471.801 145.57 471.751 145.91 471.251 145.91C470.401 145.91 469.561 145.91 468.721 145.92C468.721 145.91 468.721 145.91 468.721 145.92Z" fill="#08266E"/>
<path d="M76.3407 172.3C75.5807 172.3 74.8307 172.31 74.0707 172.3C73.8107 172.3 73.4507 172.35 73.4507 171.95C73.4407 171.58 73.2507 170.98 73.7307 170.92C74.5207 170.81 74.3107 170.45 74.2007 169.96C73.9607 168.83 74.2207 167.79 75.1807 167.09C76.2007 166.36 77.3107 166.27 78.4107 166.97C78.7607 167.19 79.3007 167.38 79.0007 167.9C78.7607 168.32 78.3707 168.74 77.7507 168.23C77.2507 167.82 76.6407 167.78 76.1307 168.23C75.6307 168.68 75.6007 169.29 75.8107 169.88C76.0207 170.49 76.4307 170.88 77.1507 170.83C77.6307 170.8 78.1107 170.85 78.5807 170.82C79.1907 170.79 79.3007 171.12 79.3207 171.63C79.3407 172.17 79.0907 172.32 78.6007 172.3C77.8607 172.28 77.1007 172.3 76.3407 172.3Z" fill="#08266E"/>
<path d="M224.041 173.63C224.441 174.93 223.531 174.95 222.451 174.91C220.971 174.86 220.971 174.9 220.971 173.32C220.971 171.79 220.971 171.78 222.511 171.79C224.271 171.79 224.011 171.6 224.041 173.63Z" fill="#08266E"/>
<path d="M444.231 174.84C442.821 175.28 442.691 174.48 442.741 173.34C442.821 171.59 442.531 171.78 444.361 171.78C446.001 171.77 445.711 171.62 445.841 173.51C445.941 174.85 445.371 175.1 444.231 174.84Z" fill="#08266E"/>
<path d="M153.471 192.63C153.451 194.55 153.581 194.15 151.751 194.34C150.131 194.51 150.501 193.53 150.371 192.62C150.151 191.12 151.011 191.27 152.031 191.18C153.481 191.04 153.661 191.72 153.471 192.63Z" fill="#08266E"/>
<path d="M460.11 191.21C461.92 191.25 461.84 190.9 461.84 192.75C461.84 194.62 461.94 194.14 460.2 194.32C458.66 194.49 458.85 193.63 458.77 192.63C458.67 191.36 459.14 190.98 460.11 191.21Z" fill="#08266E"/>
<path d="M386.991 172.23C386.711 171.03 387.011 170.59 388.321 170.54C389.821 170.49 389.631 171.27 389.681 172.21C389.731 173.23 389.631 173.79 388.331 173.75C387.091 173.7 386.581 173.4 386.991 172.23Z" fill="#08266E"/>
<path d="M254.401 174.84C252.881 175.29 252.951 174.3 252.981 173.26C253.021 171.78 252.991 171.77 254.581 171.79C256.221 171.8 255.891 171.57 256.041 173.54C256.141 174.93 255.491 175.07 254.401 174.84Z" fill="#08266E"/>
<path d="M220.431 144.491C220.881 145.981 219.921 145.851 218.891 145.951C217.461 146.101 217.501 145.371 217.401 144.311C217.241 142.651 218.301 143.111 219.171 143.001C220.401 142.841 220.691 143.401 220.431 144.491Z" fill="#08266E"/>
<path d="M203.14 143.01C204.02 142.81 204.61 142.98 204.54 144.36C204.48 145.53 204.3 146 202.99 145.96C201.79 145.93 201.31 145.69 201.43 144.4C201.55 143.02 201.46 143.01 203.14 143.01Z" fill="#08266E"/>
<path d="M386.26 172.18C386.51 173.26 386.24 173.72 384.91 173.75C383.47 173.78 383.58 173.08 383.52 172.1C383.44 170.91 383.77 170.57 385.01 170.55C386.38 170.53 386.4 171.18 386.26 172.18Z" fill="#08266E"/>
<path d="M386.54 143.4C386.94 144.71 386.17 144.7 385.16 144.77C383.87 144.86 383.82 144.28 383.8 143.26C383.78 142.17 384.01 141.78 385.21 141.76C386.53 141.76 386.79 142.28 386.54 143.4Z" fill="#08266E"/>
<path d="M383.17 143.33C383.61 144.74 382.81 144.71 381.8 144.78C380.53 144.87 380.43 144.33 380.42 143.28C380.41 142.18 380.65 141.77 381.85 141.78C383.1 141.79 383.57 142.16 383.17 143.33Z" fill="#08266E"/>
<path d="M177.62 143.38C178.01 144.65 177.31 144.72 176.26 144.78C175.02 144.85 174.86 144.36 174.88 143.3C174.89 142.26 175.01 141.77 176.26 141.78C177.55 141.77 177.89 142.22 177.62 143.38Z" fill="#08266E"/>
<path d="M174.27 143.31C174.61 144.48 174.11 144.77 172.96 144.78C171.85 144.79 171.45 144.56 171.5 143.36C171.54 142.26 171.65 141.73 172.97 141.77C174.17 141.81 174.56 142.18 174.27 143.31Z" fill="#08266E"/>
<path d="M10.41 165.3C9.08002 165.7 9.09002 164.91 9.00002 163.85C8.89002 162.49 9.50002 162.37 10.58 162.42C12.06 162.49 11.95 162.45 12.09 164.03C12.22 165.48 11.45 165.46 10.41 165.3Z" fill="#08266E"/>
<path d="M291.7 143.15C291.46 142.16 291.88 141.8 293.13 141.77C294.51 141.74 294.36 142.45 294.45 143.36C294.57 144.59 294.09 144.84 292.98 144.75C291.71 144.66 291.7 144.73 291.7 143.15Z" fill="#08266E"/>
<path d="M291.02 143.31C291.33 144.44 290.9 144.78 289.73 144.78C288.61 144.78 288.23 144.54 288.29 143.36C288.34 142.29 288.4 141.73 289.74 141.78C290.95 141.81 291.28 142.21 291.02 143.31Z" fill="#08266E"/>
<path d="M435.56 192.78C435.83 193.92 435.5 194.33 434.21 194.36C432.73 194.4 432.92 193.62 432.86 192.68C432.8 191.61 433 191.17 434.24 191.16C435.59 191.15 435.81 191.68 435.56 192.78Z" fill="#08266E"/>
<path d="M438.92 192.82C439.15 193.85 438.92 194.31 437.66 194.36C436.14 194.43 436.29 193.66 436.24 192.65C436.18 191.55 436.44 191.19 437.64 191.16C439.04 191.13 439.12 191.78 438.92 192.82Z" fill="#08266E"/>
<path d="M71.7402 140.78C71.3702 139.55 72.0002 139.43 73.0902 139.37C74.3702 139.31 74.4202 139.86 74.4502 140.88C74.4802 142.01 74.2002 142.35 73.0202 142.36C71.7202 142.38 71.5102 141.85 71.7402 140.78Z" fill="#08266E"/>
<path d="M72.7009 144.4C72.9109 145.43 72.7209 145.94 71.4309 145.97C70.0609 146 70.0509 145.41 69.9809 144.36C69.9009 143.11 70.4009 142.99 71.4609 142.96C72.6509 142.94 72.9709 143.34 72.7009 144.4Z" fill="#08266E"/>
<path d="M76.05 144.441C76.33 145.561 75.96 145.911 74.76 145.971C73.3 146.051 73.45 145.291 73.38 144.331C73.29 143.201 73.71 142.991 74.76 142.971C75.93 142.951 76.36 143.301 76.05 144.441Z" fill="#08266E"/>
<path d="M186.38 197.92C186.72 199.11 186.18 199.33 185.05 199.4C183.58 199.49 183.78 198.67 183.68 197.73C183.55 196.5 184.13 196.47 185.1 196.41C186.35 196.34 186.65 196.83 186.38 197.92Z" fill="#08266E"/>
<path d="M187.15 197.82C186.74 196.51 187.47 196.48 188.5 196.4C189.86 196.3 189.75 197.01 189.81 197.95C189.89 199.12 189.51 199.37 188.37 199.4C187.03 199.44 186.91 198.83 187.15 197.82Z" fill="#08266E"/>
</g>
<defs>
<clipPath id="clip0_1_4314">
<rect width="851.04" height="199.41" fill="white"/>
</clipPath>
</defs>
</svg>
