<svg width="329" height="191" viewBox="0 0 329 191" fill="none" xmlns="http://www.w3.org/2000/svg">
<path d="M129.19 190.14C124.2 190.09 119.2 190.53 114.22 189.99C112.49 189.8 110.75 189.51 109.1 188.87C106.49 187.85 104.85 185.87 103.77 183.38C102.06 179.45 101.43 175.26 100.9 171.06C100.11 164.8 99.4897 158.53 98.7297 152.27C98.2197 148.04 96.7797 144.32 93.3597 141.43C89.3197 138.01 87.0798 133.39 85.3398 128.48C84.3498 125.7 83.1098 123.03 81.2798 120.66C80.4398 119.57 79.4597 118.63 78.3597 117.88C73.2797 114.44 70.9898 109.42 69.8998 103.61C68.9898 98.7501 68.5597 93.8101 67.2897 89.0101C66.1497 84.7101 64.0097 81.1701 60.2597 78.5701C57.0897 76.3701 55.4597 73.0101 54.3597 69.4001C52.9997 64.9301 51.5697 60.5001 48.7897 56.6501C47.6597 55.0901 46.2297 53.8401 44.7297 52.6501C41.4497 50.0401 38.6597 47.0201 37.0097 43.1001C34.9597 38.2301 35.6698 33.6301 38.7098 29.4001C41.9098 24.9401 46.3398 22.2401 51.6498 21.1501C54.8398 20.5001 58.1097 20.5501 61.0697 22.2401C64.7797 24.3701 66.2997 27.8601 66.8097 31.9101C67.1697 34.7101 67.0897 37.5201 66.4997 40.2501C65.6397 44.2001 66.1098 48.0401 67.0898 51.8501C68.9598 59.0601 71.8197 65.8801 75.5697 72.3201C76.0897 73.2101 76.7297 74.0301 77.3697 74.8401C77.5297 75.0401 77.7598 75.4501 78.1398 75.2501C78.4198 75.1001 78.3498 74.7501 78.3298 74.4801C78.2598 73.1101 77.8497 71.8101 77.3797 70.5401C76.5397 68.2601 75.7797 65.9401 74.7897 63.7201C72.4097 58.4101 72.3398 52.8601 73.0898 47.2701C73.9498 40.8401 76.5097 35.1801 81.4697 30.8201C85.8897 26.9401 90.9597 25.2001 96.9297 25.7001C105.82 26.4401 108.47 35.9001 105.2 42.1201C103.22 45.8901 99.9997 48.1101 96.1197 49.5401C95.2597 49.8601 94.3897 50.1301 93.5697 50.5201C92.1597 51.2001 91.0797 52.2301 90.6597 53.8001C89.0397 59.7801 88.5997 65.8201 89.8497 71.9301C90.1197 73.2601 90.5497 74.5401 91.1897 75.7601C91.8697 77.0501 92.9698 77.5901 94.3398 77.5101C97.8898 77.3101 100.35 75.6301 100.7 71.7401C100.95 69.0001 100.96 66.2301 101.55 63.5301C101.72 62.7501 101.87 61.9501 102.18 61.2301C103.7 57.6901 105.8 57.0901 109.13 58.0701C114.3 59.5901 117.83 63.0601 119.38 68.2901C120.31 71.4401 119.74 74.5401 118.63 77.5601C117.11 81.7101 114.66 85.3501 112.17 88.9501C109.39 92.9701 106.25 96.7601 104.12 101.2C103.21 103.1 102.64 105.05 103.22 107.21C103.48 108.16 103.97 108.42 104.84 108.34C105.64 108.27 106.4 108.07 107.16 107.81C109.43 107.03 110.94 107.72 111.88 109.91C112.66 111.72 113.38 111.83 114.69 110.37C116.1 108.8 117.06 106.97 117.81 105.03C119.01 101.93 120.7 99.1701 123.21 96.9801C129.27 91.7101 136.29 93.6701 140.11 99.9701C144.68 107.51 143.43 114.96 138.68 121.99C135.36 126.9 130.78 130.25 125.3 132.47C122.85 133.46 120.49 134.7 118.5 136.53C115.02 139.73 113.84 143.67 114.77 148.24C115.26 150.63 116.87 151.31 119.06 150.23C120.83 149.35 121.95 147.78 123.32 146.46C124.67 145.16 126.19 144.12 127.97 143.46C130.92 142.36 133.52 144.26 134.75 146.47C136.73 150.03 137.08 153.89 136.71 157.85C136.19 163.44 134.03 168.3 130.01 172.28C129.5 172.78 129.05 173.34 128.59 173.89C128.34 174.19 127.98 174.54 128.22 174.95C128.48 175.39 128.93 175.09 129.31 175.05C131.13 174.84 132.85 174.04 134.72 174.18C137.24 174.37 139.27 175.34 140.33 177.76C141.24 179.85 141.72 182 141.01 184.28C140.69 185.31 140.87 186.23 141.62 187.05C142.19 187.66 142.71 188.32 143.22 188.97C143.46 189.28 143.8 189.65 143.58 190.04C143.38 190.39 142.92 190.2 142.58 190.2C138.5 190.18 134.43 190.15 130.35 190.12C129.99 190.14 129.59 190.14 129.19 190.14Z" fill="#EE3E52"/>
<path d="M222.41 139.68C221.31 136.78 220.23 134.27 219.49 131.63C219.21 130.63 218.96 129.62 218.81 128.6C218.5 126.53 219.43 125.52 221.53 125.54C221.8 125.54 222.07 125.54 222.48 125.54C221.41 123.56 220.33 121.72 219.56 119.72C218.9 118 218.34 116.26 218.17 114.41C217.93 111.67 219.09 110.15 221.8 109.69C222.55 109.56 222.36 109.24 222.15 108.81C221 106.52 220.06 104.16 219.47 101.67C219.13 100.23 218.9 98.77 218.99 97.28C219.09 95.66 219.65 94.33 221.37 93.82C222.02 93.63 221.82 93.26 221.64 92.82C220.52 90.13 219.43 87.43 219 84.53C218.54 81.47 219.67 79.13 222.2 77.89C219.53 75.56 217.76 72.8 218.06 69.09C218.08 68.88 218.1 68.66 217.9 68.56C217.54 68.39 217.33 68.66 217.08 68.87C215.1 70.59 213.31 72.5 211.65 74.53C204.83 82.87 199.91 92.28 195.94 102.23C195.34 103.74 194.46 104.37 193.2 104.2C191.9 104.02 191.19 103.23 191.03 101.61C190.47 96.13 191.22 90.78 192.7 85.51C195 77.29 198.98 69.89 203.74 62.86C203.94 62.56 204.45 62.25 204.13 61.86C203.86 61.54 203.37 61.75 203 61.89C199 63.39 194.96 64.8 191.02 66.45C186.46 68.35 181.87 70.21 177.47 72.47C176.43 73 175.42 73.16 174.47 72.38C173.46 71.55 173.3 70.41 173.64 69.23C174.21 67.28 174.91 65.37 175.76 63.52C178.68 57.14 182.93 51.93 189.18 48.57C191.88 47.12 194.79 46.17 197.84 45.71C198.12 45.67 198.39 45.61 198.66 45.54C198.9 45.48 199.12 45.36 199.11 45.08C199.11 44.83 198.87 44.79 198.69 44.72C196.96 44.03 195.25 43.3 193.51 42.65C189.73 41.24 185.94 39.84 182.13 38.49C180.45 37.89 178.75 37.35 177.02 36.9C175.73 36.56 175.06 35.75 174.81 34.53C174.57 33.35 175.12 32.25 176.2 31.61C181.15 28.66 186.62 27.64 192.27 27.31C196.11 27.08 199.93 27.48 203.75 27.82C204.05 27.85 204.42 28.02 204.61 27.64C204.76 27.35 204.48 27.12 204.34 26.89C201.98 23.11 199.54 19.39 196.41 16.19C195.5 15.26 195.22 14.16 195.64 12.89C196.03 11.68 196.96 11.26 198.1 11.16C205.27 10.5 211.33 12.63 215.98 18.3C216.34 18.74 216.6 19.59 217.2 19.47C217.83 19.34 217.68 18.47 217.81 17.91C219.08 12.77 220.3 7.60996 222.71 2.82996C223.56 1.13996 224.89 0.099962 226.71 0.069962C228.59 0.039962 229.97 1.08996 230.83 2.82996C233.24 7.64996 234.51 12.84 235.74 18.04C235.86 18.56 235.72 19.37 236.31 19.5C236.89 19.63 237.12 18.84 237.46 18.43C241.93 12.87 247.83 10.69 254.81 11.08C256.09 11.15 257.39 11.36 257.88 12.87C258.36 14.33 257.87 15.46 256.83 16.53C253.8 19.66 251.44 23.29 249.16 26.97C249.03 27.19 248.74 27.43 248.97 27.72C249.17 27.96 249.48 27.85 249.76 27.83C253.38 27.53 257 27.16 260.64 27.29C265.7 27.47 270.59 28.42 275.24 30.44C276.07 30.8 276.86 31.27 277.61 31.79C278.59 32.46 278.94 33.46 278.71 34.62C278.48 35.75 277.85 36.56 276.68 36.87C273.23 37.78 269.9 39.07 266.55 40.27C262.9 41.58 259.29 42.98 255.66 44.34C255.59 44.37 255.49 44.37 255.44 44.42C255.14 44.71 254.42 44.61 254.47 45.14C254.52 45.64 255.14 45.63 255.56 45.69C258.42 46.09 261.12 47 263.69 48.26C269.54 51.12 273.69 55.69 276.73 61.35C277.98 63.68 278.96 66.11 279.74 68.63C279.9 69.16 280.07 69.72 280.07 70.26C280.1 72.35 278.15 73.49 276.23 72.54C272.12 70.51 267.9 68.72 263.65 66.98C259.36 65.22 255.04 63.58 250.7 61.96C250.29 61.81 249.77 61.52 249.47 61.86C249.1 62.28 249.67 62.63 249.89 62.96C254.71 70.1 258.71 77.63 260.99 85.99C262.37 91.04 262.99 96.16 262.56 101.39C262.37 103.64 260.91 104.73 259.06 104C258.38 103.73 258 103.23 257.74 102.57C254.92 95.45 251.61 88.57 247.43 82.14C244.35 77.4 240.91 72.95 236.74 69.1C236.46 68.84 236.16 68.3 235.64 68.59C235.26 68.8 235.5 69.25 235.51 69.58C235.63 73.1 233.87 75.69 231.36 77.91C233.7 79.08 234.88 81.28 234.62 83.86C234.3 87 233.14 89.89 231.93 92.75C231.66 93.39 231.63 93.67 232.4 93.93C233.91 94.43 234.46 95.69 234.54 97.18C234.7 100.33 233.78 103.25 232.63 106.12C232.26 107.04 231.85 107.95 231.39 108.83C231.09 109.41 231.1 109.64 231.83 109.72C234.28 109.99 235.68 111.87 235.39 114.41C235.1 116.93 234.26 119.29 233.17 121.57C232.54 122.89 231.87 124.18 230.97 125.56C231.67 125.56 232.17 125.54 232.66 125.56C233.92 125.63 234.78 126.54 234.76 127.84C234.72 130.11 233.89 132.2 233.17 134.31C232.59 135.99 231.91 137.65 231.22 139.47C231.93 139.22 232.49 138.98 233.08 138.84C233.93 138.64 234.52 138.99 234.61 139.88C235.02 143.9 232.84 149.37 229.73 151.22C227.33 152.65 224.05 152.13 222.26 149.95C220.06 147.27 218.92 144.19 218.9 140.71C218.89 138.91 219.74 138.33 221.39 139.08C221.61 139.19 221.84 139.35 222.41 139.68Z" fill="#08266E"/>
<path d="M67.67 190.23C58.56 190.23 49.4401 190.23 40.3301 190.23C38.8201 190.23 37.73 189.5 37.73 188.04C37.72 184.56 35.96 181.92 33.97 179.33C30.84 175.26 27.5 171.36 24.11 167.5C21.03 164.01 18.4101 160.21 17.3301 155.58C16.4901 151.99 17.3301 148.89 20.0901 146.34C22.5001 144.11 25.7301 144.2 28.5101 146.53C32.7001 150.03 35.3801 154.63 38.0701 159.24C39.5101 161.7 40.5501 164.42 42.7701 166.39C44.1701 167.63 45.0701 167.53 45.6901 165.76C46.7101 162.85 46.9201 159.81 46.5901 156.77C45.9601 150.96 43.87 145.73 39.85 141.38C37.09 138.4 33.8501 136.46 29.5801 136.77C27.7901 136.9 26.0401 136.77 24.3701 135.87C20.5501 133.81 20.88 129.51 22.73 127.03C25.97 122.69 31.1201 122.27 35.1901 125.88C38.5601 128.86 41.11 132.52 43.97 135.93C45.27 137.48 46.51 139.1 48.37 140.06C50.51 141.16 52.81 139.71 52.74 137.31C52.69 135.65 51.92 134.24 51.1 132.87C49.43 130.09 47.37 127.59 45.1 125.31C42.23 122.43 40.5501 119.05 39.9501 115.04C39.5001 112.02 38.6901 109.1 36.3201 106.9C33.0701 103.89 29.2601 102.91 24.9601 103.8C23.5701 104.09 22.1601 104.44 20.8401 104.96C17.7501 106.18 15.3801 104.85 13.2701 102.85C7.28007 97.1904 5.59004 89.5304 8.55004 81.8204C9.05004 80.5104 9.71004 79.2804 10.61 78.2004C13.46 74.7504 16.4901 74.6504 20.1201 76.7704C22.75 78.3004 25.4501 78.8204 28.3101 77.5904C30.3501 76.7204 30.8401 74.4904 29.5101 72.7404C27.6701 70.3204 25.0501 69.2504 22.2601 68.5004C19.0901 67.6504 15.7801 67.6704 12.5901 67.0104C3.18008 65.0804 -1.73992 58.3604 1.09008 48.5204C1.83008 45.9504 4.11007 44.8504 6.33007 43.8104C9.89007 42.1404 13.6101 41.9604 17.2701 43.1404C21.6701 44.5604 25.35 47.0604 27.42 51.4204C29.74 56.3004 31.4 61.4304 32.87 66.6004C34.1101 70.9404 36.1701 74.5804 39.9501 77.1504C42.2501 78.7104 43.0601 80.9804 43.0201 83.6504C43.0001 85.2104 42.99 86.7604 42.99 88.3204C42.99 92.6804 44.2 94.1904 48.48 95.0404C49.97 95.3304 51 96.1204 51.73 97.4004C55.27 103.62 56.4701 110.37 56.3101 117.44C56.2401 120.59 55.9601 123.74 56.4401 126.88C56.8501 129.53 57.9501 131.84 59.8801 133.69C61.6801 135.43 63.6701 136.9 66.0701 137.81C67.5501 138.37 68.4201 139.67 69.0101 141.12C70.0501 143.65 70.2601 146.32 70.0701 149C69.6501 154.88 71.7101 158.67 77.0201 161.43C78.3501 162.12 79.7301 162.73 81.0901 163.38C84.9801 165.23 87.9301 168.24 90.7501 171.38C94.0701 175.09 96.5101 179.3 97.4001 184.28C97.5901 185.34 97.6801 186.42 97.7001 187.49C97.7401 189.26 96.75 190.21 94.99 190.21C85.9 190.23 76.78 190.23 67.67 190.23Z" fill="#FAAC38"/>
<path d="M296.61 178.87C294.2 176.75 292.08 174.78 290.24 172.54C288.02 169.86 286.07 167.01 285.1 163.6C283.86 159.25 285.08 155.64 288.45 152.75C291.22 150.37 294.47 148.81 298.1 148.46C301.94 148.09 305.21 149.62 307.72 152.51C311.64 157.02 313.13 162.34 312.16 168.19C311.34 173.11 313.35 176.59 317.06 179.44C318.65 180.66 320.57 181.23 322.35 182.09C324.21 182.99 326.03 183.96 327.33 185.66C328.06 186.61 328.3 187.61 327.75 188.67C327.23 189.68 326.41 190.23 325.17 190.23C307.95 190.21 290.72 190.34 273.5 190.13C269.34 190.08 265.44 188.34 262.4 185.27C260.5 183.34 259.73 180.9 260.14 178.23C260.82 173.75 262.83 169.93 266.34 167C268.72 165.01 271.44 164.98 274.2 166.06C278.22 167.62 281.45 170.4 284.8 173C287.33 174.96 289.81 177.04 292.83 178.24C293.91 178.67 295.05 179.04 296.61 178.87Z" fill="#1FC1E3"/>
<path d="M274.68 109.62C274.71 107.78 274.91 105.96 275.23 104.15C275.98 99.9497 275.35 95.9097 273.84 91.9497C272.66 88.8597 271.34 85.8297 269.66 82.9797C269.24 82.2697 269.03 81.5797 269.55 80.8697C270.07 80.1597 270.86 79.9897 271.68 80.0797C277.43 80.7097 283.05 81.9397 288.33 84.3497C296 87.8597 302.05 93.1597 305.84 100.81C307.21 103.58 307.45 106.62 307.87 109.62C308.64 115.11 309.42 120.6 311.43 125.81C311.67 126.44 311.98 127.05 312.3 127.64C312.61 128.2 312.81 128.73 312.4 129.31C311.96 129.93 311.31 129.96 310.67 129.78C307.96 129.02 305.59 127.63 303.39 125.89C299.92 123.15 298.51 119.09 296.53 115.39C295.16 112.83 293.86 110.23 292.09 107.9C291.43 107.03 290.69 106.28 289.69 105.82C289.23 105.61 288.73 105.52 288.34 105.87C287.95 106.22 288.33 106.61 288.44 106.96C289.23 109.36 289.87 111.77 289.69 114.33C289.39 118.52 287.13 119.9 283.63 120.2C278.51 120.65 275.28 117.7 274.78 112.25C274.72 111.38 274.72 110.5 274.68 109.62Z" fill="#20C1E3"/>
<path d="M241.08 177.66C242.82 178.94 244.14 180.43 245.96 181.3C247.49 182.03 248.43 181.74 249.19 180.25C249.4 179.83 249.61 179.39 249.77 178.94C250.44 177.07 252.22 176.98 253.66 177.99C257.04 180.34 257.27 183.66 254.35 186.54C252.77 188.1 250.94 189.24 248.88 190C247.05 190.67 245.35 190.06 243.69 189.32C241.42 188.31 239.55 186.71 237.66 185.15C237.39 184.93 237.13 184.7 236.78 184.41C236.4 186.38 235.62 187.97 233.72 188.56C230.91 189.44 228.36 187.62 227.99 184.66C227.73 182.59 228.71 181.02 229.96 179.6C230.66 178.81 230.4 178.47 229.76 177.86C221.8 170.31 213.84 162.76 205.62 155.5C200.28 150.79 194.84 146.2 188.86 142.3C183.37 138.72 177.52 135.9 171.37 133.62C167.25 132.09 163.11 130.62 158.94 129.24C158.31 129.03 157.6 128.76 157.69 127.88C157.78 127.01 158.49 126.9 159.15 126.74C163.96 125.59 168.71 126.09 173.47 127.17C178.7 128.36 183.51 130.57 188.12 133.2C192.56 135.73 196.55 138.92 200.51 142.14C209.32 149.31 217.91 156.75 226.46 164.22C229.29 166.69 231.98 169.33 234.7 171.94C235.3 172.52 235.53 172.38 235.94 171.77C236.58 170.82 237.27 169.88 238.06 169.04C239.18 167.86 240.7 167.66 242.16 168.04C243.83 168.47 244.79 169.79 245.21 171.41C245.96 174.29 244.24 176.98 241.08 177.66Z" fill="#08266E"/>
<path d="M153.63 44.0898C159.16 44.2698 164.29 44.8198 169.27 46.3998C170.32 46.7298 170.8 47.3698 170.86 48.3598C170.93 49.3598 170.47 50.0998 169.53 50.5398C167.13 51.6598 164.77 52.8498 162.55 54.3198C158.41 57.0598 155.9 60.8298 154.87 65.6398C154.55 67.1198 154.22 68.6098 153.69 70.0198C151.8 75.0998 147.72 77.6198 142.77 79.0398C139.17 80.0798 135.85 79.3698 133.07 76.9298C130.27 74.4598 128.86 71.1698 128.45 67.4898C127.8 61.6198 129.93 56.6098 133.53 52.1598C136.97 47.8998 141.6 45.6998 146.93 44.6998C149.29 44.2598 151.63 44.3198 153.63 44.0898Z" fill="#EE3F53"/>
<path d="M164.16 111.33C164.16 109.23 164.67 107.22 165.42 105.27C165.71 104.51 165.45 104.39 164.78 104.39C163.99 104.39 163.44 104.8 162.93 105.33C160.87 107.49 159.62 110.18 158.19 112.75C156.79 115.28 155.82 118.06 153.97 120.35C151.65 123.23 148.62 125.01 145.15 126.13C144.63 126.3 144.22 126.19 143.86 125.78C143.54 125.42 143.38 124.99 143.6 124.57C146.56 118.75 147.22 112.37 148 106.06C148.57 101.44 150.47 97.5401 153.44 94.0701C156.87 90.0601 161 87.0501 165.86 84.9201C170.28 82.9801 174.94 82.1001 179.63 81.2401C179.98 81.1801 180.35 81.1901 180.71 81.1901C182.37 81.2101 183.09 82.4001 182.27 83.8201C180.52 86.8701 179.12 90.0801 178 93.4101C176.92 96.6201 176.69 99.8701 177.29 103.2C177.79 106 177.99 108.83 177.4 111.64C176.4 116.35 173.43 117.82 169.07 117.29C165.55 116.88 164.14 115.02 164.16 111.33Z" fill="#EE3F53"/>
<path d="M176.87 178.06C177.72 180.43 179.52 182.19 180.89 184.22C181.12 184.56 181.7 184.84 181.45 185.3C181.21 185.74 180.64 185.49 180.24 185.45C173.79 184.91 167.97 182.78 162.87 178.72C160.99 177.22 159.17 175.71 158.02 173.55C157.12 171.87 156.74 170.11 157.28 168.25C157.44 167.68 157.34 167.33 156.89 166.9C156.17 166.21 155.68 165.34 155.52 164.3C155.42 163.7 155.44 163.01 154.75 162.64C154.6 162.56 154.54 162.23 154.51 162C154.29 159.94 154.79 158.04 155.9 156.31C156.48 155.4 157.36 155.62 158.16 155.87C162.43 157.24 164.59 160.36 164.45 164.87C164.44 165.14 164.45 165.4 164.45 165.85C164.99 165.11 164.97 164.42 164.96 163.77C164.95 163.11 164.85 162.46 164.77 161.64C165.73 162.24 166.21 162.99 166.23 163.94C166.28 165.93 167.29 167.33 168.9 168.33C169.64 168.79 169.77 169.19 169.34 169.95C168.71 171.06 168.53 172.27 168.87 173.79C169.2 172.78 169.4 171.96 169.74 171.19C171.18 167.98 173.8 166.09 176.96 164.84C183 162.45 189.3 162.29 195.67 162.61C196.79 162.67 197.91 162.66 199.02 162.68C199.33 162.69 199.7 162.63 199.8 163.04C199.9 163.46 199.54 163.54 199.27 163.71C195.63 165.97 191.64 167.34 187.53 168.45C184.46 169.28 181.27 169.1 178.17 169.61C177.17 169.77 176.32 170.17 175.7 171.08C176.39 170.85 177.07 170.59 177.77 170.4C179.98 169.78 180.61 170.11 181.65 172.13C182.84 174.45 183.69 176.89 184.38 179.39C184.85 181.09 185.47 182.72 186.76 184.01C187.09 184.34 187.28 184.74 187.05 185.2C186.8 185.7 186.31 185.62 185.89 185.58C183.77 185.34 182.35 183.91 180.91 182.55C179.43 181.15 178.35 179.42 177.07 177.85C176.98 177.83 176.89 177.82 176.8 177.8C176.8 177.88 176.84 177.97 176.87 178.06ZM175.27 171.06C175.19 171.16 175.06 171.26 175.03 171.39C175.01 171.49 175.14 171.59 175.27 171.51C175.36 171.46 175.46 171.38 175.51 171.28C175.59 171.11 175.43 171.12 175.27 171.06Z" fill="#EE4054"/>
<path d="M287.07 126.061C288.79 126.141 290.78 126.201 292.71 126.771C293.32 126.951 293.97 127.151 294 127.971C294.03 128.831 293.42 129.001 292.76 129.121C290.72 129.491 288.68 129.771 286.67 130.301C283.41 131.171 280.2 132.121 277.1 133.481C274.12 134.791 271.25 136.281 268.51 138.001C262.86 141.531 257.64 145.631 252.57 149.931C246.92 154.711 241.38 159.631 236 164.711C234.68 165.951 233.93 165.901 232.77 164.501C232.11 163.711 231.37 162.991 230.69 162.211C229.77 161.171 229.75 160.351 230.78 159.431C233.47 157.041 236.19 154.681 238.94 152.351C244.85 147.331 250.74 142.291 256.93 137.621C261.59 134.101 266.62 131.231 272.06 129.081C276.78 127.201 281.69 126.131 287.07 126.061Z" fill="#08266E"/>
<path d="M215.461 184.39C213.471 186.03 211.69 187.67 209.54 188.8C208.24 189.48 206.94 190.18 205.42 190.24C202.71 190.34 200.681 188.84 198.711 187.3C197.751 186.55 196.91 185.64 196.35 184.5C195.03 181.84 196.88 178.07 199.8 177.45C201.01 177.19 201.821 177.61 202.341 178.67C202.641 179.28 202.85 179.93 203.18 180.51C203.85 181.71 204.86 182 206.11 181.39C208.01 180.47 209.55 179.06 211.31 177.68C209.29 177.31 207.841 176.36 207.211 174.53C206.591 172.74 206.741 171.02 208.011 169.46C209.531 167.59 212.24 167.21 213.85 168.97C217.46 172.92 221.09 176.86 224.44 181.04C225.7 182.61 225.311 185.14 223.081 187.44C221.571 189 219.221 189.24 217.521 188.05C216.281 187.22 215.741 185.96 215.461 184.39Z" fill="#08266E"/>
<path d="M246.341 107.82C246.341 107.74 246.341 107.66 246.341 107.58C246.301 105.33 246.421 105.26 248.491 106.25C253.401 108.59 254.771 112.97 252.281 118.41C251.941 119.16 251.171 119.91 251.241 120.6C251.281 121.05 252.491 121.37 253.151 121.79C254.691 122.77 255.411 124.2 255.371 126.02C255.271 130.21 252.691 132.97 249.041 134.19C247.631 134.66 246.161 134.78 244.711 135C244.051 135.1 243.651 134.9 243.951 134.14C245.831 129.41 244.501 125.23 241.701 121.34C241.151 120.58 241.281 120.18 241.801 119.52C244.521 116.1 246.271 112.28 246.341 107.82Z" fill="#20C1E3"/>
<path d="M204.791 107.42C204.781 111.92 206.421 115.83 209.181 119.28C209.921 120.21 209.871 120.7 209.201 121.65C206.571 125.43 205.371 129.52 207.161 134.05C207.441 134.75 207.251 135.07 206.511 134.99C204.051 134.72 201.631 134.37 199.501 132.93C196.861 131.14 195.701 128.6 195.771 125.5C195.831 123.29 197.251 121.92 199.131 121.12C200.121 120.7 199.931 120.4 199.521 119.69C198.271 117.52 197.411 115.21 197.671 112.64C198.001 109.34 200.101 107.43 202.941 106.13C203.081 106.06 203.241 106.03 203.391 105.97C204.751 105.38 204.871 105.47 204.771 106.94C204.781 107.1 204.791 107.26 204.791 107.42Z" fill="#EE4054"/>
<path d="M300.97 58.5497C300.98 62.6597 298.56 65.7496 294.63 66.8796C292.61 67.4596 288.64 65.9296 287.03 63.2596C284.61 59.2296 285.71 53.5197 289.72 51.1297C294.13 48.4997 299.23 51.1197 300.65 56.0597C300.89 56.8797 300.99 57.7097 300.97 58.5497Z" fill="#20C1E3"/>
<path d="M154.73 171.74C152.48 169.07 150.79 166.44 149.4 163.62C147.05 158.83 145.37 153.79 144.69 148.5C143.96 142.86 146.67 138.73 151.42 136.15C151.63 136.03 151.79 135.85 152.03 136.1C152.26 136.34 152.24 136.6 152.17 136.88C151.83 138.11 151.62 139.37 151.47 140.64C150.96 144.93 151.69 149.07 153.04 153.12C153.42 154.27 153.44 155.2 152.89 156.38C151.14 160.18 151.8 163.76 154.49 166.94C154.89 167.42 155.04 167.79 154.85 168.4C154.54 169.37 154.6 170.38 154.73 171.74Z" fill="#EE4054"/>
<path d="M166.83 158.87C170.06 159.31 173.06 160.3 175.59 162.46C176.18 162.96 175.92 163.29 175.45 163.53C173.87 164.34 172.54 165.42 171.46 166.83C171.17 167.21 170.79 167.28 170.43 166.96C169.23 165.92 168 164.9 167.87 163.12C167.76 161.63 166.97 160.53 165.76 159.7C165.55 159.56 165.11 159.56 165.2 159.19C165.29 158.79 165.71 158.91 166.01 158.88C166.27 158.85 166.55 158.87 166.83 158.87Z" fill="#EE4054"/>
</svg>
